<svg width="275" height="275" viewBox="0 0 275 275" fill="none" xmlns="http://www.w3.org/2000/svg">
<path d="M231.195 102.385C239.394 110.706 243.992 121.919 243.992 133.601C243.992 145.284 239.394 156.497 231.195 164.818L169.615 227.433C165.598 231.558 160.796 234.835 155.492 237.074C150.187 239.313 144.489 240.467 138.731 240.468C132.998 240.471 127.324 239.317 122.047 237.077C116.77 234.838 111.998 231.558 108.015 227.433L46.2804 165C38.0574 156.657 33.457 145.407 33.4781 133.692C33.457 127.916 34.5759 122.192 36.7705 116.849C38.9652 111.506 42.1926 106.648 46.2677 102.554L107.885 39.9851C115.893 31.804 126.821 27.1368 138.269 27.009C149.716 26.8813 160.746 31.3035 168.935 39.3039L169.615 39.9851L231.195 102.385Z" fill="#3CD8FF" stroke="#17177B" stroke-width="1.5" stroke-miterlimit="10"/>
<path d="M50.1895 161.615C50.1374 161.488 50.0575 161.375 49.9557 161.282C49.854 161.191 49.733 161.122 49.6014 161.082C48.4506 160.816 47.2872 160.605 46.1237 160.38C45.4439 160.276 44.815 159.958 44.3288 159.472C43.8425 158.985 43.5242 158.356 43.4203 157.677C43.2468 156.695 43.1114 155.71 42.9549 154.715C42.7857 153.662 42.6122 152.6 42.3922 151.567C42.3746 151.394 42.3037 151.229 42.1891 151.098C41.5037 150.459 41.0511 152.532 41.0087 152.837C40.8226 154.134 40.6266 155.43 40.4207 156.725C40.1372 158.476 39.5153 159.995 37.5945 160.363C36.4141 160.592 35.2295 160.812 34.0619 161.087C33.9318 161.128 33.813 161.199 33.7147 161.294C33.6164 161.388 33.5411 161.504 33.4949 161.632C33.4061 161.992 33.7191 162.11 34.0534 162.174C35.3437 162.42 36.6257 162.703 37.9203 162.931C38.5164 163.035 39.0521 163.358 39.4222 163.837C40.1626 164.721 40.3276 165.795 40.4841 166.878C40.7126 168.461 40.9509 170.04 41.1991 171.617C41.2541 171.985 41.3472 172.332 41.9395 172.336C42.3626 172.336 42.4261 171.913 42.4895 171.52C42.7941 169.552 43.0861 167.585 43.4076 165.618C43.495 164.946 43.7943 164.319 44.2622 163.827C44.7301 163.337 45.3421 163.009 46.0095 162.889C47.2082 162.638 48.4056 162.401 49.6014 162.178C49.9526 162.127 50.2911 162.013 50.1895 161.615Z" fill="white" stroke="#17177B" stroke-width="1.5" stroke-linecap="round" stroke-linejoin="round"/>
<path d="M197.268 174.862C197.231 174.768 197.174 174.684 197.101 174.614C197.028 174.545 196.94 174.492 196.845 174.46C195.973 174.257 195.093 174.096 194.213 173.931C193.7 173.851 193.226 173.61 192.858 173.243C192.491 172.876 192.25 172.401 192.17 171.888C192.039 171.143 191.937 170.398 191.819 169.654C191.7 168.909 191.557 168.067 191.395 167.276C191.383 167.144 191.33 167.02 191.243 166.92C190.723 166.438 190.397 168.004 190.35 168.237C190.21 169.218 190.062 170.205 189.907 171.198C189.69 172.522 189.221 173.669 187.77 173.948C186.877 174.122 185.985 174.282 185.1 174.494C185.002 174.527 184.913 174.583 184.84 174.656C184.766 174.73 184.711 174.818 184.677 174.917C184.605 175.192 184.847 175.28 185.1 175.34C186.078 175.526 187.047 175.742 188.028 175.911C188.478 175.992 188.882 176.238 189.162 176.6C189.72 177.269 189.843 178.077 189.962 178.898C190.135 180.091 190.321 181.284 190.503 182.477C190.545 182.757 190.617 183.019 191.062 183.023C191.395 183.023 191.434 182.705 191.485 182.405C191.717 180.92 191.937 179.444 192.178 177.946C192.243 177.437 192.469 176.962 192.823 176.591C193.178 176.22 193.64 175.971 194.145 175.882C195.045 175.692 195.95 175.513 196.862 175.344C197.09 175.247 197.344 175.154 197.268 174.862Z" fill="white" stroke="#17177B" stroke-width="1.5" stroke-linecap="round" stroke-linejoin="round"/>
<path d="M46.3987 47.4058L46.9361 47.0885C47.5241 46.7397 48.0621 46.3127 48.5353 45.8193C49.0339 45.324 49.4509 44.7528 49.7707 44.1269C49.9187 43.8224 50.0372 43.5051 50.1937 43.1962C50.203 43.1696 50.2173 43.1452 50.2361 43.1243C50.454 43.7329 50.7378 44.316 51.0822 44.8631C51.4571 45.3959 51.8945 45.8817 52.3853 46.3101C52.8914 46.7285 53.4369 47.0969 54.0142 47.4101L53.9253 47.4693C53.5011 47.71 53.0914 47.9756 52.6984 48.2646C51.8435 48.9161 51.1429 49.7483 50.6465 50.7016C50.4984 51.0019 50.3799 51.3235 50.2487 51.6324L50.2065 51.7296C49.9912 51.1132 49.7073 50.5228 49.3603 49.9696C48.9828 49.4364 48.544 48.9494 48.053 48.5185C47.5373 48.0971 46.9835 47.7246 46.3987 47.4058Z" fill="#FFB8BE" stroke="#17177B" stroke-width="1.5" stroke-linecap="round" stroke-linejoin="round"/>
<path d="M215.46 57.5385L215.998 57.2169C216.585 56.8684 217.124 56.4414 217.597 55.9477C218.098 55.4437 218.516 54.8641 218.837 54.2301C218.985 53.9254 219.103 53.6081 219.234 53.2993C219.247 53.2734 219.262 53.2493 219.28 53.2273C219.506 53.8383 219.796 54.4227 220.148 54.9704C220.524 55.5021 220.962 55.9878 221.451 56.4173C221.959 56.8361 222.506 57.2059 223.084 57.5216L222.995 57.5808C222.569 57.8186 222.16 58.0843 221.768 58.3762C220.911 59.0261 220.209 59.8603 219.717 60.8173C219.564 61.1177 219.445 61.4393 219.293 61.7481L219.247 61.8454C218.836 60.592 218.083 59.4784 217.072 58.6301C216.57 58.2167 216.031 57.8513 215.46 57.5385Z" fill="#FFF000" stroke="#17177B" stroke-width="1.5" stroke-linecap="round" stroke-linejoin="round"/>
<path d="M68.2084 179.385L68.7457 179.067C69.3343 178.717 69.8736 178.291 70.3492 177.798C70.847 177.294 71.2638 176.717 71.5846 176.085C71.7326 175.78 71.8511 175.463 72.0076 175.154C72.0167 175.126 72.0311 175.1 72.0499 175.078C72.2653 175.697 72.5491 176.29 72.8961 176.846C73.2725 177.38 73.7114 177.868 74.2034 178.297C74.7102 178.715 75.2557 179.083 75.8322 179.397L75.7476 179.457C75.322 179.697 74.9109 179.963 74.5164 180.252C73.658 180.903 72.9567 181.739 72.4646 182.697C72.3122 182.998 72.1938 183.315 72.0626 183.628L72.0204 183.721C71.8041 183.105 71.5203 182.514 71.1742 181.961C70.7976 181.424 70.3572 180.936 69.8627 180.505C69.3462 180.083 68.7926 179.708 68.2084 179.385Z" fill="white" stroke="#17177B" stroke-width="1.5" stroke-linecap="round" stroke-linejoin="round"/>
<path d="M93.5886 79.297C94.4319 79.297 95.1164 78.6133 95.1164 77.77C95.1164 76.9267 94.4319 76.2427 93.5886 76.2427C92.7453 76.2427 92.0616 76.9267 92.0616 77.77C92.0616 78.6133 92.7453 79.297 93.5886 79.297Z" fill="#3CD8FF" stroke="#17177B" stroke-width="1.5" stroke-linecap="round" stroke-linejoin="round"/>
<path d="M235.451 67.4469C236.187 67.4469 236.783 66.8503 236.783 66.1142C236.783 65.3782 236.187 64.7815 235.451 64.7815C234.715 64.7815 234.118 65.3782 234.118 66.1142C234.118 66.8503 234.715 67.4469 235.451 67.4469Z" fill="#FFB8BE" stroke="#17177B" stroke-width="1.5" stroke-linecap="round" stroke-linejoin="round"/>
<path d="M226.731 86.3752C227.93 86.3752 228.902 85.4035 228.902 84.205C228.902 83.0065 227.93 82.0348 226.731 82.0348C225.532 82.0348 224.56 83.0065 224.56 84.205C224.56 85.4035 225.532 86.3752 226.731 86.3752Z" fill="#008FFF" stroke="#17177B" stroke-width="1.5" stroke-linecap="round" stroke-linejoin="round"/>
<path d="M130.308 165.131L130.62 164.94L130.65 164.92C133.828 163.189 138.333 165.118 141.375 169.798C144.82 175.112 145.069 181.94 141.93 185.05C141.503 185.477 141.005 185.826 140.457 186.082L134.653 189.467L126.013 174.113L124.25 168.761L130.308 165.131Z" fill="#2CB7FF" stroke="#17177B" stroke-width="1.5" stroke-linecap="round" stroke-linejoin="round"/>
<path d="M134.733 189.454C138.638 187.762 139.738 181.61 137.191 175.687C134.644 169.764 129.41 166.328 125.505 168.008C121.6 169.688 120.497 175.852 123.048 181.771C125.599 187.69 130.824 191.133 134.733 189.454Z" fill="#2CB7FF" stroke="#17177B" stroke-width="1.5" stroke-linecap="round" stroke-linejoin="round"/>
<path d="M134.268 170.83L96.2882 187.58L92.4512 188.341L88.9946 184.673L88.893 183.565L127.346 167.115" fill="#DFDFDF"/>
<path d="M134.268 170.83L96.2882 187.58L92.4512 188.341L88.9946 184.673L88.893 183.565L127.346 167.115" stroke="#17177B" stroke-width="1.5" stroke-miterlimit="10"/>
<path d="M134.268 170.83L96.2882 187.58L92.4512 188.341L88.9946 184.673L88.893 183.565L127.346 167.115" stroke="#17177B" stroke-width="1.5" stroke-linecap="round" stroke-linejoin="round"/>
<path d="M159 210.65L159.31 210.46H159.343C162.517 208.725 167.027 210.658 170.065 215.338C173.512 220.647 173.762 227.475 170.618 230.568C170.191 230.995 169.695 231.344 169.15 231.605L163.342 234.99L154.702 219.636L152.942 214.288L159 210.65Z" fill="#2CB7FF" stroke="#17177B" stroke-width="1.5" stroke-linecap="round" stroke-linejoin="round"/>
<path d="M163.413 234.973C167.318 233.28 168.418 227.129 165.872 221.206C163.325 215.283 158.091 211.848 154.186 213.527C150.281 215.207 149.181 221.371 151.728 227.29C154.275 233.208 159.5 236.653 163.413 234.973Z" fill="#2CB7FF" stroke="#17177B" stroke-width="1.5" stroke-linecap="round" stroke-linejoin="round"/>
<path d="M86.9932 186.433C87.0948 186.37 87.1964 186.302 87.3018 186.243H87.3316C90.5086 184.508 95.0186 186.445 98.0566 191.12C101.505 196.435 101.75 203.263 98.6104 206.373C98.1842 206.798 97.6876 207.148 97.143 207.405L91.3336 210.79L82.6948 195.436L80.9348 190.085L86.9932 186.433Z" fill="#2CB7FF" stroke="#17177B" stroke-width="1.5" stroke-linecap="round" stroke-linejoin="round"/>
<path d="M91.4062 210.752C95.3112 209.059 96.4112 202.908 93.8636 196.989C91.3168 191.07 86.0834 187.626 82.1784 189.305C78.2734 190.985 77.1734 197.154 79.7202 203.077C82.267 209 87.5012 212.431 91.4062 210.752Z" fill="#2CB7FF" stroke="#17177B" stroke-width="1.5" stroke-linecap="round" stroke-linejoin="round"/>
<path d="M194.86 187.068C194.962 187.005 195.064 186.937 195.17 186.877H195.2C198.377 185.143 202.887 187.076 205.925 191.755C209.372 197.07 209.618 203.898 206.478 207.007C206.052 207.433 205.556 207.782 205.01 208.04L199.202 211.425L190.562 196.071L188.802 190.719L194.86 187.068Z" fill="#2CB7FF" stroke="#17177B" stroke-width="1.5" stroke-linecap="round" stroke-linejoin="round"/>
<path d="M199.27 211.39C203.175 209.698 204.278 203.547 201.727 197.628C199.176 191.709 193.96 188.269 190.05 189.962C186.141 191.654 185.045 197.801 187.592 203.724C190.14 209.647 195.373 213.07 199.27 211.39Z" fill="#2CB7FF" stroke="#17177B" stroke-width="1.5" stroke-linecap="round" stroke-linejoin="round"/>
<path d="M132.444 86.4898L138.109 85.5968C137.284 81.348 135.719 77.2765 133.485 73.5689C128.56 65.3231 121.004 60.0304 111.633 58.2323L110.558 63.8846C118.317 65.3654 124.338 69.5581 128.455 76.3527C130.357 79.4773 131.707 82.9064 132.444 86.4898Z" fill="#DFDFDF" stroke="#17177B" stroke-width="1.5" stroke-linecap="round" stroke-linejoin="round"/>
<path d="M48.9754 77.6982L111.27 64.9085C111.726 64.8143 112.159 64.6312 112.544 64.3697C112.93 64.1081 113.26 63.7731 113.515 63.384C113.771 62.9949 113.948 62.5592 114.036 62.1018C114.123 61.6443 114.12 61.174 114.026 60.7179C113.932 60.2618 113.748 59.8286 113.487 59.4433C113.225 59.0579 112.891 58.7278 112.501 58.4718C112.112 58.2158 111.677 58.0391 111.219 57.9515C110.762 57.864 110.291 57.8674 109.835 57.9615L47.5539 70.7554C46.6598 70.9702 45.8841 71.5239 45.3905 72.2998C44.8969 73.0757 44.7241 74.0131 44.9086 74.9139C45.093 75.8148 45.6203 76.6089 46.3791 77.1284C47.1379 77.6478 48.0689 77.8518 48.9754 77.6982Z" fill="#2CB7FF" stroke="#17177B" stroke-width="1.5" stroke-linecap="round" stroke-linejoin="round"/>
<path d="M141.642 86.308L219.273 106.285C219.273 106.285 219.429 122.168 214.081 124.664C208.733 127.16 175.07 136.887 175.07 136.887L135.677 121.943L130.227 103.625L134.162 85.7496" fill="#0047FF"/>
<path d="M141.642 86.308L219.273 106.285C219.273 106.285 219.429 122.168 214.081 124.664C208.733 127.16 175.07 136.887 175.07 136.887L135.677 121.943L130.227 103.625L134.162 85.7496" stroke="#17177B" stroke-width="1.5" stroke-miterlimit="10"/>
<path d="M141.642 86.308L219.273 106.285C219.273 106.285 219.429 122.168 214.081 124.664C208.733 127.16 175.07 136.887 175.07 136.887L135.677 121.943L130.227 103.625L134.162 85.7496" stroke="#17177B" stroke-width="1.5" stroke-linecap="round" stroke-linejoin="round"/>
<path d="M136.32 86.418L141.397 121.833L78.5148 108.473L81.6536 99.0336L136.32 86.418Z" fill="#0047FF" stroke="#17177B" stroke-width="1.5" stroke-linecap="round" stroke-linejoin="round"/>
<path d="M114.091 123.555C122.279 123.555 128.915 116.918 128.915 108.73C128.915 100.543 122.279 93.9064 114.091 93.9064C105.904 93.9064 99.2666 100.543 99.2666 108.73C99.2666 116.918 105.904 123.555 114.091 123.555Z" fill="#FFF000" stroke="#17177B" stroke-width="1.5" stroke-linecap="round" stroke-linejoin="round"/>
<path d="M110.19 108.74L117.112 108.6" stroke="#17177B" stroke-width="1.5" stroke-linecap="round" stroke-linejoin="round"/>
<path d="M112.035 98.6662L112.082 101.145" stroke="#17177B" stroke-width="1.5" stroke-linecap="round" stroke-linejoin="round"/>
<path d="M114.89 98.6066L114.942 101.09" stroke="#17177B" stroke-width="1.5" stroke-linecap="round" stroke-linejoin="round"/>
<path d="M112.407 117.383L112.454 119.866" stroke="#17177B" stroke-width="1.5" stroke-linecap="round" stroke-linejoin="round"/>
<path d="M115.263 117.328L115.314 119.807" stroke="#17177B" stroke-width="1.5" stroke-linecap="round" stroke-linejoin="round"/>
<path d="M118.42 102.279L116.968 101.048L110.042 101.187L110.36 117.365L117.315 117.226L118.69 115.957L118.575 110.105L116.935 108.659L118.52 107.483L118.42 102.279Z" stroke="#17177B" stroke-width="1.5" stroke-linecap="round" stroke-linejoin="round"/>
<path d="M139.81 133.692C147.997 133.692 154.635 127.055 154.635 118.868C154.635 110.681 147.997 104.043 139.81 104.043C131.623 104.043 124.985 110.681 124.985 118.868C124.985 127.055 131.623 133.692 139.81 133.692Z" fill="#FFF000" stroke="#17177B" stroke-width="1.5" stroke-linecap="round" stroke-linejoin="round"/>
<path d="M135.909 118.876L142.827 118.737" stroke="#17177B" stroke-width="1.5" stroke-linecap="round" stroke-linejoin="round"/>
<path d="M137.754 108.803L137.8 111.282" stroke="#17177B" stroke-width="1.5" stroke-linecap="round" stroke-linejoin="round"/>
<path d="M140.61 108.743L140.66 111.227" stroke="#17177B" stroke-width="1.5" stroke-linecap="round" stroke-linejoin="round"/>
<path d="M138.122 127.52L138.173 129.999" stroke="#17177B" stroke-width="1.5" stroke-linecap="round" stroke-linejoin="round"/>
<path d="M140.982 127.465L141.028 129.94" stroke="#17177B" stroke-width="1.5" stroke-linecap="round" stroke-linejoin="round"/>
<path d="M144.138 112.415L142.687 111.185L135.761 111.325L136.078 127.498L143.03 127.359L144.409 126.094L144.29 120.238L142.653 118.795L144.24 117.62L144.138 112.415Z" stroke="#17177B" stroke-width="1.5" stroke-linecap="round" stroke-linejoin="round"/>
<path d="M127.35 116.414C135.538 116.414 142.175 109.777 142.175 101.59C142.175 93.4014 135.538 86.7648 127.35 86.7648C119.163 86.7648 112.525 93.4014 112.525 101.59C112.525 109.777 119.163 116.414 127.35 116.414Z" fill="#FFF000" stroke="#17177B" stroke-width="1.5" stroke-linecap="round" stroke-linejoin="round"/>
<path d="M124.253 99.2162L129.825 103.324" stroke="#17177B" stroke-width="1.5" stroke-linecap="round" stroke-linejoin="round"/>
<path d="M131.852 92.3534L130.38 94.3502" stroke="#17177B" stroke-width="1.5" stroke-linecap="round" stroke-linejoin="round"/>
<path d="M134.153 94.05L132.677 96.0468" stroke="#17177B" stroke-width="1.5" stroke-linecap="round" stroke-linejoin="round"/>
<path d="M120.742 107.423L119.27 109.42" stroke="#17177B" stroke-width="1.5" stroke-linecap="round" stroke-linejoin="round"/>
<path d="M123.043 109.12L121.571 111.113" stroke="#17177B" stroke-width="1.5" stroke-linecap="round" stroke-linejoin="round"/>
<path d="M134.712 99.11L134.31 97.2484L128.734 93.1402L119.13 106.163L124.732 110.288L126.593 110.118L130.067 105.41L129.648 103.265L131.623 103.298L134.712 99.11Z" stroke="#17177B" stroke-width="1.5" stroke-linecap="round" stroke-linejoin="round"/>
<path d="M155.438 128.197C163.626 128.197 170.263 121.559 170.263 113.372C170.263 105.184 163.626 98.547 155.438 98.547C147.251 98.547 140.614 105.184 140.614 113.372C140.614 121.559 147.251 128.197 155.438 128.197Z" fill="#FFF000" stroke="#17177B" stroke-width="1.5" stroke-linecap="round" stroke-linejoin="round"/>
<path d="M151.537 113.38L158.459 113.24" stroke="#17177B" stroke-width="1.5" stroke-linecap="round" stroke-linejoin="round"/>
<path d="M153.383 103.307L153.429 105.786" stroke="#17177B" stroke-width="1.5" stroke-linecap="round" stroke-linejoin="round"/>
<path d="M156.238 103.248L156.289 105.731" stroke="#17177B" stroke-width="1.5" stroke-linecap="round" stroke-linejoin="round"/>
<path d="M153.75 122.024L153.801 124.503" stroke="#17177B" stroke-width="1.5" stroke-linecap="round" stroke-linejoin="round"/>
<path d="M156.61 121.965L156.661 124.444" stroke="#17177B" stroke-width="1.5" stroke-linecap="round" stroke-linejoin="round"/>
<path d="M159.767 106.92L158.315 105.689L151.39 105.828L151.707 122.003L158.662 121.863L160.037 120.598L159.923 114.743L158.282 113.3L159.872 112.124L159.767 106.92Z" stroke="#17177B" stroke-width="1.5" stroke-linecap="round" stroke-linejoin="round"/>
<path d="M147.172 110.749C155.359 110.749 161.996 104.112 161.996 95.9246C161.996 87.7365 155.359 81.0998 147.172 81.0998C138.984 81.0998 132.347 87.7365 132.347 95.9246C132.347 104.112 138.984 110.749 147.172 110.749Z" fill="#FFF000" stroke="#17177B" stroke-width="1.5" stroke-linecap="round" stroke-linejoin="round"/>
<path d="M143.267 95.933L150.188 95.7932" stroke="#17177B" stroke-width="1.5" stroke-linecap="round" stroke-linejoin="round"/>
<path d="M145.111 85.8588L145.162 88.343" stroke="#17177B" stroke-width="1.5" stroke-linecap="round" stroke-linejoin="round"/>
<path d="M147.971 85.8038L148.017 88.2834" stroke="#17177B" stroke-width="1.5" stroke-linecap="round" stroke-linejoin="round"/>
<path d="M145.483 104.576L145.53 107.06" stroke="#17177B" stroke-width="1.5" stroke-linecap="round" stroke-linejoin="round"/>
<path d="M148.339 104.521L148.39 107" stroke="#17177B" stroke-width="1.5" stroke-linecap="round" stroke-linejoin="round"/>
<path d="M151.5 89.472L150.044 88.2414L143.118 88.385L143.44 104.559L150.391 104.42L151.766 103.15L151.652 97.2988L150.01 95.852L151.601 94.6802L151.5 89.472Z" stroke="#17177B" stroke-width="1.5" stroke-linecap="round" stroke-linejoin="round"/>
<path d="M179.486 135.431C187.674 135.431 194.31 128.794 194.31 120.607C194.31 112.419 187.674 105.782 179.486 105.782C171.299 105.782 164.662 112.419 164.662 120.607C164.662 128.794 171.299 135.431 179.486 135.431Z" fill="#FFF000" stroke="#17177B" stroke-width="1.5" stroke-linecap="round" stroke-linejoin="round"/>
<path d="M175.581 120.611L182.503 120.471" stroke="#17177B" stroke-width="1.5" stroke-linecap="round" stroke-linejoin="round"/>
<path d="M177.425 110.537L177.477 113.02" stroke="#17177B" stroke-width="1.5" stroke-linecap="round" stroke-linejoin="round"/>
<path d="M180.285 110.482L180.332 112.962" stroke="#17177B" stroke-width="1.5" stroke-linecap="round" stroke-linejoin="round"/>
<path d="M177.798 129.258L177.845 131.738" stroke="#17177B" stroke-width="1.5" stroke-linecap="round" stroke-linejoin="round"/>
<path d="M180.654 129.2L180.705 131.678" stroke="#17177B" stroke-width="1.5" stroke-linecap="round" stroke-linejoin="round"/>
<path d="M183.814 114.15L182.359 112.92L175.433 113.063L175.755 129.237L182.705 129.098L184.085 127.828L183.967 121.977L182.325 120.53L183.915 119.358L183.814 114.15Z" stroke="#17177B" stroke-width="1.5" stroke-linecap="round" stroke-linejoin="round"/>
<path d="M159.868 129.588C168.056 129.588 174.693 122.951 174.693 114.764C174.693 106.576 168.056 99.9396 159.868 99.9396C151.681 99.9396 145.043 106.576 145.043 114.764C145.043 122.951 151.681 129.588 159.868 129.588Z" fill="#FFF000" stroke="#17177B" stroke-width="1.5" stroke-linecap="round" stroke-linejoin="round"/>
<path d="M155.963 114.772L162.885 114.633" stroke="#17177B" stroke-width="1.5" stroke-linecap="round" stroke-linejoin="round"/>
<path d="M157.807 104.699L157.858 107.182" stroke="#17177B" stroke-width="1.5" stroke-linecap="round" stroke-linejoin="round"/>
<path d="M160.668 104.644L160.715 107.123" stroke="#17177B" stroke-width="1.5" stroke-linecap="round" stroke-linejoin="round"/>
<path d="M158.18 123.42L158.227 125.9" stroke="#17177B" stroke-width="1.5" stroke-linecap="round" stroke-linejoin="round"/>
<path d="M161.036 123.36L161.087 125.84" stroke="#17177B" stroke-width="1.5" stroke-linecap="round" stroke-linejoin="round"/>
<path d="M164.196 108.312L162.741 107.08L155.815 107.225L156.137 123.399L163.088 123.26L164.467 121.99L164.348 116.139L162.707 114.692L164.298 113.52L164.196 108.312Z" stroke="#17177B" stroke-width="1.5" stroke-linecap="round" stroke-linejoin="round"/>
<path d="M184.085 134.166C192.272 134.166 198.91 127.529 198.91 119.342C198.91 111.154 192.272 104.517 184.085 104.517C175.898 104.517 169.26 111.154 169.26 119.342C169.26 127.529 175.898 134.166 184.085 134.166Z" fill="#FFF000" stroke="#17177B" stroke-width="1.5" stroke-linecap="round" stroke-linejoin="round"/>
<path d="M180.89 117.099L186.628 120.97" stroke="#17177B" stroke-width="1.5" stroke-linecap="round" stroke-linejoin="round"/>
<path d="M188.197 109.928L186.81 111.984" stroke="#17177B" stroke-width="1.5" stroke-linecap="round" stroke-linejoin="round"/>
<path d="M190.567 111.528L189.179 113.583" stroke="#17177B" stroke-width="1.5" stroke-linecap="round" stroke-linejoin="round"/>
<path d="M177.722 125.442L176.33 127.503" stroke="#17177B" stroke-width="1.5" stroke-linecap="round" stroke-linejoin="round"/>
<path d="M180.091 127.042L178.703 129.098" stroke="#17177B" stroke-width="1.5" stroke-linecap="round" stroke-linejoin="round"/>
<path d="M191.337 116.562L190.858 114.717L185.117 110.842L176.06 124.249L181.825 128.142L183.679 127.896L186.958 123.048L186.445 120.92L188.425 120.873L191.337 116.562Z" stroke="#17177B" stroke-width="1.5" stroke-linecap="round" stroke-linejoin="round"/>
<path d="M226.397 109.323L213.34 158.163L163.617 176.123L82.8766 154.423L74.5334 102.385L79.6996 104.178L174.164 125.285L220.453 109.463L226.397 109.323Z" fill="#2CB7FF" stroke="#17177B" stroke-width="1.5" stroke-linecap="round" stroke-linejoin="round"/>
<path d="M172.705 127.57L77.935 106.535C76.984 106.324 76.1318 105.798 75.5173 105.042C74.9029 104.285 74.5621 103.344 74.5504 102.37C74.5386 101.396 74.8565 100.446 75.4525 99.6753C76.0485 98.9045 76.8877 98.3576 77.8334 98.1246L133.257 84.438C135.811 83.8108 138.477 83.7994 141.037 84.4036L223.059 103.963C223.978 104.182 224.799 104.697 225.398 105.429C225.997 106.161 226.339 107.068 226.372 108.012C226.405 108.957 226.127 109.886 225.582 110.658C225.036 111.43 224.253 112.001 223.35 112.285L174.938 127.473C174.546 127.596 174.139 127.663 173.728 127.672C173.384 127.68 173.04 127.646 172.705 127.57ZM139.705 89.9846C138.034 89.5874 136.294 89.5942 134.627 90.0052L85.0384 102.245L173.575 121.893L216.73 108.355L139.705 89.9846Z" fill="#2CB7FF" stroke="#17177B" stroke-width="1.5" stroke-linecap="round" stroke-linejoin="round"/>
<path d="M163.79 172.806L206.33 156.335L214.47 153.547C214.835 154.229 215.035 154.987 215.054 155.76C215.085 156.769 214.8 157.762 214.24 158.602C213.68 159.441 212.871 160.085 211.928 160.443L165.597 178.26C165.066 178.464 164.503 178.576 163.934 178.59C163.472 178.599 163.012 178.541 162.567 178.42L86.363 157.99C84.247 157.418 81.8354 155.578 81.7934 153.378C81.7751 152.556 81.9645 151.743 82.3434 151.013L163.79 172.806Z" fill="#2CB7FF" stroke="#17177B" stroke-width="1.5" stroke-linecap="round" stroke-linejoin="round"/>
<path d="M173.728 127.676L163.79 172.805" stroke="#17177B" stroke-width="1.5" stroke-linecap="round" stroke-linejoin="round"/>
<path d="M45.4343 75.3078C45.4264 74.9267 45.4937 74.5477 45.6323 74.1926C45.771 73.8374 45.9782 73.5131 46.2423 73.2381C46.5063 72.963 46.822 72.7427 47.1711 72.5897C47.5203 72.4367 47.8962 72.354 48.2774 72.3463C48.6034 72.3376 48.9285 72.3863 49.2378 72.4901C52.2754 73.1079 68.2043 77.068 73.6366 93.2502L73.7086 93.4534L89.0068 181.39V181.343V181.437C89.4002 183.129 92.1082 186.915 99.6768 189.551L154.973 206.982L155.108 207.003L155.328 207.117C156.94 207.773 161.751 208.116 168.71 204.782C179 199.857 195.504 192.23 195.669 192.149L195.8 192.09C196.216 191.909 196.607 191.676 196.963 191.396C196.476 190.95 195.931 190.572 195.343 190.27C189.027 186.772 168.745 179.977 164.458 178.56C164.85 178.519 165.232 178.412 165.588 178.242L173.038 175.395C181.077 178.153 193.211 182.52 198.157 185.257C201.473 187.097 203.081 189.272 202.933 191.726C202.717 195.225 198.99 196.989 198.055 197.378C196.985 197.869 181.175 205.184 171.223 209.948C165.995 212.452 161.827 213.214 158.798 213.273C155.768 213.332 153.835 212.693 153.137 212.402L97.9252 195L97.8496 194.971C85.1568 190.567 83.532 183.404 83.3586 182.338L68.1281 94.8582C63.6689 81.9416 50.7481 78.65 48.2436 78.1214C47.5018 78.1084 46.7942 77.8074 46.27 77.2827C45.7459 76.7579 45.4463 76.0495 45.4343 75.3078Z" fill="#DFDFDF" stroke="#17177B" stroke-width="1.5" stroke-linecap="round" stroke-linejoin="round"/>
<path d="M172.705 127.57L77.935 106.535C76.984 106.324 76.1318 105.798 75.5173 105.042C74.9029 104.285 74.5621 103.344 74.5504 102.37C74.5386 101.396 74.8565 100.446 75.4525 99.6753C76.0485 98.9045 76.8877 98.3576 77.8334 98.1246L133.257 84.438C135.811 83.8108 138.477 83.7994 141.037 84.4036L223.059 103.963C223.978 104.182 224.799 104.697 225.398 105.429C225.997 106.161 226.339 107.068 226.372 108.012C226.405 108.957 226.127 109.886 225.582 110.658C225.036 111.43 224.253 112.001 223.35 112.285L174.938 127.473C174.546 127.596 174.139 127.663 173.728 127.672C173.384 127.68 173.04 127.646 172.705 127.57ZM139.705 89.9846C138.034 89.5874 136.294 89.5942 134.627 90.0052L85.0384 102.245L173.575 121.893L216.73 108.355L139.705 89.9846Z" fill="#2CB7FF" stroke="#17177B" stroke-width="1.5" stroke-linecap="round" stroke-linejoin="round"/>
<path d="M175.581 119.312C183.769 119.312 190.405 112.675 190.405 104.487C190.405 96.2996 183.769 89.663 175.581 89.663C167.394 89.663 160.757 96.2996 160.757 104.487C160.757 112.675 167.394 119.312 175.581 119.312Z" fill="#FFF000" stroke="#17177B" stroke-width="1.5" stroke-linecap="round" stroke-linejoin="round"/>
<path d="M171.68 104.496L178.602 104.356" stroke="#17177B" stroke-width="1.5" stroke-linecap="round" stroke-linejoin="round"/>
<path d="M173.525 94.422L173.575 96.9062" stroke="#17177B" stroke-width="1.5" stroke-linecap="round" stroke-linejoin="round"/>
<path d="M176.385 94.367L176.432 96.8466" stroke="#17177B" stroke-width="1.5" stroke-linecap="round" stroke-linejoin="round"/>
<path d="M173.897 113.14L173.944 115.623" stroke="#17177B" stroke-width="1.5" stroke-linecap="round" stroke-linejoin="round"/>
<path d="M176.753 113.085L176.804 115.563" stroke="#17177B" stroke-width="1.5" stroke-linecap="round" stroke-linejoin="round"/>
<path d="M179.913 98.0352L178.458 96.8046L171.532 96.9482L171.85 113.122L178.805 112.983L180.18 111.713L180.065 105.862L178.424 104.415L180.015 103.243L179.913 98.0352Z" stroke="#17177B" stroke-width="1.5" stroke-linecap="round" stroke-linejoin="round"/>
<path d="M147.172 110.749C155.359 110.749 161.996 104.112 161.996 95.9246C161.996 87.7365 155.359 81.0998 147.172 81.0998C138.984 81.0998 132.347 87.7365 132.347 95.9246C132.347 104.112 138.984 110.749 147.172 110.749Z" fill="#FFF000" stroke="#17177B" stroke-width="1.5" stroke-linecap="round" stroke-linejoin="round"/>
<path d="M143.998 98.2002L149.55 94.063" stroke="#17177B" stroke-width="1.5" stroke-linecap="round" stroke-linejoin="round"/>
<path d="M139.64 88.9304L141.126 90.9234" stroke="#17177B" stroke-width="1.5" stroke-linecap="round" stroke-linejoin="round"/>
<path d="M141.934 87.2262L143.419 89.2146" stroke="#17177B" stroke-width="1.5" stroke-linecap="round" stroke-linejoin="round"/>
<path d="M150.827 103.945L152.312 105.935" stroke="#17177B" stroke-width="1.5" stroke-linecap="round" stroke-linejoin="round"/>
<path d="M153.12 102.237L154.6 104.225" stroke="#17177B" stroke-width="1.5" stroke-linecap="round" stroke-linejoin="round"/>
<path d="M146.939 88.1604L145.043 88.0046L139.488 92.1464L149.152 105.118L154.728 100.963L155.113 99.1314L151.614 94.4396L149.439 94.215L150.048 92.3366L146.939 88.1604Z" stroke="#17177B" stroke-width="1.5" stroke-linecap="round" stroke-linejoin="round"/>
<path d="M162.88 97.515C171.068 97.515 177.705 90.8776 177.705 82.6902C177.705 74.503 171.068 67.8658 162.88 67.8658C154.693 67.8658 148.055 74.503 148.055 82.6902C148.055 90.8776 154.693 97.515 162.88 97.515Z" fill="#FFF000" stroke="#17177B" stroke-width="1.5" stroke-linecap="round" stroke-linejoin="round"/>
<path d="M159.009 82.2334L165.893 82.9186" stroke="#17177B" stroke-width="1.5" stroke-linecap="round" stroke-linejoin="round"/>
<path d="M162.038 72.452L161.789 74.9227" stroke="#17177B" stroke-width="1.5" stroke-linecap="round" stroke-linejoin="round"/>
<path d="M164.882 72.7355L164.632 75.2063" stroke="#17177B" stroke-width="1.5" stroke-linecap="round" stroke-linejoin="round"/>
<path d="M160.177 91.0846L159.932 93.5504" stroke="#17177B" stroke-width="1.5" stroke-linecap="round" stroke-linejoin="round"/>
<path d="M163.024 91.368L162.775 93.8346" stroke="#17177B" stroke-width="1.5" stroke-linecap="round" stroke-linejoin="round"/>
<path d="M167.949 76.8014L166.65 75.405L159.758 74.7238L158.15 90.8218L165.072 91.507L166.587 90.4116L167.17 84.59L165.71 82.9568L167.428 81.9798L167.949 76.8014Z" stroke="#17177B" stroke-width="1.5" stroke-linecap="round" stroke-linejoin="round"/>
<path d="M144.409 67.1509C152.596 67.1509 159.233 60.5137 159.233 52.3262C159.233 44.1388 152.596 37.5016 144.409 37.5016C136.221 37.5016 129.584 44.1388 129.584 52.3262C129.584 60.5137 136.221 67.1509 144.409 67.1509Z" fill="#FFF000" stroke="#17177B" stroke-width="1.5" stroke-linecap="round" stroke-linejoin="round"/>
<path d="M140.825 50.782L147.23 53.4051" stroke="#17177B" stroke-width="1.5" stroke-linecap="round" stroke-linejoin="round"/>
<path d="M146.524 42.2695L145.58 44.5669" stroke="#17177B" stroke-width="1.5" stroke-linecap="round" stroke-linejoin="round"/>
<path d="M149.168 43.3571L148.225 45.6501" stroke="#17177B" stroke-width="1.5" stroke-linecap="round" stroke-linejoin="round"/>
<path d="M139.42 59.5947L138.477 61.8878" stroke="#17177B" stroke-width="1.5" stroke-linecap="round" stroke-linejoin="round"/>
<path d="M142.065 60.6777L141.125 62.9708" stroke="#17177B" stroke-width="1.5" stroke-linecap="round" stroke-linejoin="round"/>
<path d="M150.945 48.125L150.103 46.42L143.69 43.7927L137.55 58.7611L143.985 61.4011L145.755 60.7835L147.975 55.368L147.045 53.388L148.97 52.9438L150.945 48.125Z" stroke="#17177B" stroke-width="1.5" stroke-linecap="round" stroke-linejoin="round"/>
<path d="M164.065 35.6781C172.252 35.6781 178.89 29.0409 178.89 20.8535C178.89 12.666 172.252 6.02887 164.065 6.02887C155.878 6.02887 149.24 12.666 149.24 20.8535C149.24 29.0409 155.878 35.6781 164.065 35.6781Z" fill="#FFF000" stroke="#17177B" stroke-width="1.5" stroke-linecap="round" stroke-linejoin="round"/>
<path d="M160.372 22.1228L166.878 19.7535" stroke="#17177B" stroke-width="1.5" stroke-linecap="round" stroke-linejoin="round"/>
<path d="M158.865 11.99L159.712 14.3254" stroke="#17177B" stroke-width="1.5" stroke-linecap="round" stroke-linejoin="round"/>
<path d="M161.552 11.0169L162.398 13.3481" stroke="#17177B" stroke-width="1.5" stroke-linecap="round" stroke-linejoin="round"/>
<path d="M165.262 29.5901L166.108 31.9212" stroke="#17177B" stroke-width="1.5" stroke-linecap="round" stroke-linejoin="round"/>
<path d="M167.945 28.6127L168.795 30.9396" stroke="#17177B" stroke-width="1.5" stroke-linecap="round" stroke-linejoin="round"/>
<path d="M166.079 13.3481L164.306 12.6543L157.795 15.0235L163.32 30.2289L169.853 27.8512L170.75 26.2097L168.748 20.7054L166.73 19.8677L167.856 18.2431L166.079 13.3481Z" stroke="#17177B" stroke-width="1.5" stroke-linecap="round" stroke-linejoin="round"/>
<path d="M207.025 226.27H75.7266C72.3526 226.27 69.6174 229.005 69.6174 232.38V252.704C69.6174 256.078 72.3526 258.813 75.7266 258.813H207.025C210.399 258.813 213.133 256.078 213.133 252.704V232.38C213.133 229.005 210.399 226.27 207.025 226.27Z" fill="#FFF000" stroke="#17177B" stroke-width="1.5" stroke-linecap="round" stroke-linejoin="round"/>
<path d="M82.157 247.42V238.112H83.4732V247.42H82.157Z" fill="#17177B"/>
<path d="M86.9466 247.42H85.7114V241.095H86.9214V242C87.1162 241.659 87.4004 241.377 87.7426 241.184C88.0856 240.992 88.4744 240.897 88.867 240.908C90.378 240.908 91.1266 242 91.1266 243.409V247.42H89.8914V243.612C89.8914 242.732 89.5232 242.021 88.4186 242.021C87.4454 242.021 86.9466 242.8 86.9466 243.76V247.42Z" fill="#17177B"/>
<path d="M93.6268 245.385C93.6673 245.736 93.8445 246.057 94.1203 246.279C94.3953 246.501 94.7474 246.605 95.0988 246.57C95.7932 246.57 96.1782 246.172 96.1782 245.723C96.1782 245.275 95.8864 245.025 95.3616 244.907L94.283 244.67C93.8491 244.616 93.4496 244.405 93.1593 244.078C92.869 243.751 92.7071 243.33 92.7048 242.893C92.7048 241.818 93.7154 240.895 94.9552 240.895C96.69 240.895 97.227 242.025 97.3584 242.588L96.2668 243.011C96.2233 242.702 96.0636 242.421 95.8199 242.226C95.5762 242.031 95.2669 241.937 94.9552 241.962C94.8307 241.948 94.7039 241.959 94.5832 241.994C94.4625 242.028 94.3502 242.087 94.2524 242.166C94.1546 242.244 94.0729 242.341 94.0126 242.452C93.953 242.562 93.9148 242.683 93.9018 242.808C93.9018 243.189 94.1386 243.464 94.6252 243.57L95.6488 243.794C96.7954 244.043 97.4004 244.737 97.4004 245.672C97.4004 246.607 96.6518 247.631 95.0866 247.631C93.348 247.631 92.6116 246.515 92.5054 245.791L93.6268 245.385Z" fill="#17177B"/>
<path d="M100.692 241.095H102.059V242.212H100.692V245.499C100.692 246.078 100.93 246.366 101.572 246.366C101.735 246.365 101.899 246.347 102.059 246.315V247.365C101.785 247.45 101.499 247.49 101.213 247.483C100.134 247.483 99.453 246.827 99.453 245.68V242.212H98.243V241.095H98.5814C98.712 241.109 98.8449 241.093 98.9694 241.049C99.094 241.005 99.207 240.934 99.3002 240.84C99.3934 240.747 99.4645 240.634 99.5088 240.51C99.5531 240.385 99.5683 240.253 99.5546 240.122V239.093H100.692V241.095Z" fill="#17177B"/>
<path d="M105.236 243.802L106.928 243.553C107.31 243.498 107.415 243.303 107.415 243.079C107.415 242.461 106.992 241.949 106.048 241.949C105.87 241.937 105.692 241.96 105.523 242.017C105.354 242.074 105.198 242.164 105.065 242.283C104.932 242.401 104.822 242.545 104.745 242.705C104.668 242.865 104.624 243.04 104.615 243.218L103.43 242.943C103.561 241.733 104.652 240.892 106.023 240.892C107.915 240.892 108.65 241.97 108.65 243.205V246.375C108.647 246.723 108.674 247.071 108.731 247.415H107.521C107.473 247.136 107.45 246.853 107.453 246.569C107.235 246.906 106.932 247.18 106.575 247.364C106.218 247.548 105.819 247.636 105.418 247.618C104.128 247.618 103.303 246.725 103.303 245.727C103.315 244.589 104.145 243.959 105.236 243.802ZM107.432 244.708V244.42L105.498 244.708C105.252 244.714 105.018 244.817 104.846 244.994C104.675 245.172 104.579 245.408 104.58 245.655C104.586 245.784 104.616 245.91 104.67 246.026C104.725 246.143 104.802 246.247 104.897 246.333C104.993 246.419 105.104 246.485 105.226 246.527C105.347 246.569 105.476 246.586 105.605 246.578C106.615 246.578 107.432 246.091 107.432 244.708Z" fill="#17177B"/>
<path d="M111.823 247.42H110.588V241.095H111.798V242C111.993 241.659 112.277 241.377 112.62 241.185C112.963 240.992 113.351 240.897 113.744 240.908C115.255 240.908 116.003 242 116.003 243.409V247.42H114.768V243.612C114.768 242.732 114.4 242.021 113.295 242.021C112.323 242.021 111.823 242.8 111.823 243.76V247.42Z" fill="#17177B"/>
<path d="M119.633 241.095H121V242.212H119.633V245.499C119.633 246.078 119.87 246.366 120.513 246.366C120.677 246.365 120.84 246.348 121 246.315V247.365C120.727 247.451 120.441 247.491 120.154 247.483C119.914 247.502 119.673 247.469 119.447 247.384C119.222 247.3 119.018 247.167 118.85 246.995C118.682 246.823 118.553 246.616 118.473 246.389C118.394 246.162 118.365 245.92 118.39 245.68V242.212H117.192V241.095H117.535C117.666 241.109 117.799 241.093 117.923 241.049C118.048 241.005 118.161 240.934 118.254 240.84C118.347 240.747 118.419 240.634 118.462 240.51C118.507 240.385 118.522 240.253 118.508 240.122V239.093H119.638L119.633 241.095Z" fill="#17177B"/>
<path d="M122.645 247.42V237.896H123.881V247.42H122.645Z" fill="#17177B"/>
<path d="M126.208 250.06L127.786 246.722L125.065 241.095H126.5L128.475 245.46L130.367 241.095H131.695L127.579 250.06H126.208Z" fill="#17177B"/>
<path d="M139.32 238.095C141.096 238.095 142.133 239.148 142.133 240.633C142.144 241.073 142.015 241.504 141.766 241.866C141.515 242.227 141.156 242.5 140.741 242.643C141.238 242.768 141.676 243.06 141.984 243.47C142.293 243.879 142.451 244.382 142.433 244.894C142.433 246.366 141.265 247.432 139.556 247.432H136.295V238.125L139.32 238.095ZM139.175 242.173C140.212 242.173 140.83 241.552 140.83 240.685C140.83 239.817 140.187 239.225 139.137 239.225H137.585V242.186L139.175 242.173ZM139.357 246.285C140.398 246.285 141.109 245.71 141.109 244.8C141.109 243.891 140.542 243.278 139.417 243.278H137.572V246.285H139.357Z" fill="#17177B"/>
<path d="M146.105 247.615C144.629 247.615 143.736 246.51 143.736 245.075V241.095H144.972V244.902C144.972 245.748 145.369 246.531 146.405 246.531C147.442 246.531 147.903 245.875 147.903 244.915V241.107H149.143V246.23C149.143 246.622 149.165 247.013 149.207 247.403H148.022C147.988 247.149 147.971 246.893 147.971 246.637C147.777 246.953 147.502 247.21 147.173 247.382C146.845 247.555 146.476 247.634 146.105 247.615Z" fill="#17177B"/>
<path d="M151.462 250.06L153.04 246.722L150.315 241.095H151.737L153.708 245.46L155.603 241.095H156.962L152.845 250.06H151.462Z" fill="#17177B"/>
<path d="M160.947 242.749C160.947 239.635 163.261 237.896 165.58 237.896C167.695 237.896 169.205 239.055 169.679 240.858L168.482 241.28C168.127 239.876 167.103 239.085 165.58 239.085C163.887 239.085 162.263 240.32 162.263 242.753C162.263 245.186 163.883 246.438 165.58 246.438C166.254 246.459 166.916 246.248 167.454 245.841C167.993 245.434 168.376 244.855 168.541 244.2L169.683 244.623C169.441 245.515 168.901 246.299 168.153 246.844C167.406 247.388 166.495 247.661 165.571 247.618C163.172 247.615 160.947 245.867 160.947 242.749Z" fill="#17177B"/>
<path d="M174.583 242.343C174.405 242.318 174.225 242.305 174.045 242.305C173.005 242.305 172.311 242.855 172.311 244.251V247.42H171.071V241.095H172.281V242.199C172.438 241.829 172.702 241.516 173.041 241.299C173.379 241.083 173.776 240.975 174.177 240.989C174.319 240.989 174.46 241.002 174.6 241.027L174.583 242.343Z" fill="#17177B"/>
<path d="M176.322 250.06L177.9 246.722L175.175 241.095H176.597L178.568 245.46L180.463 241.095H181.792L177.692 250.06H176.322Z" fill="#17177B"/>
<path d="M182.972 249.916V241.095H184.17V242.08C184.387 241.718 184.698 241.421 185.07 241.222C185.443 241.022 185.863 240.927 186.285 240.947C188.176 240.947 189.187 242.406 189.187 244.251C189.187 246.095 188.095 247.589 186.225 247.589C185.825 247.607 185.426 247.522 185.067 247.343C184.708 247.164 184.4 246.896 184.174 246.565V249.916H182.972ZM186.065 242.038C184.931 242.038 184.182 242.986 184.182 244.251C184.182 245.516 184.931 246.485 186.065 246.485C187.199 246.485 187.93 245.55 187.93 244.251C187.93 242.952 187.22 242.038 186.065 242.038Z" fill="#17177B"/>
<path d="M192.36 241.095H193.731V242.212H192.36V245.499C192.36 246.078 192.597 246.366 193.245 246.366C193.408 246.365 193.571 246.347 193.731 246.315V247.365C193.457 247.45 193.171 247.49 192.885 247.483C192.645 247.502 192.404 247.469 192.178 247.384C191.953 247.3 191.749 247.167 191.581 246.995C191.412 246.823 191.284 246.616 191.204 246.389C191.125 246.162 191.096 245.92 191.12 245.68V242.212H189.91V241.095H190.253C190.385 241.109 190.517 241.093 190.641 241.049C190.766 241.005 190.879 240.934 190.972 240.84C191.065 240.747 191.137 240.634 191.181 240.51C191.225 240.385 191.24 240.253 191.227 240.122V239.093H192.356L192.36 241.095Z" fill="#17177B"/>
<path d="M201.25 244.25C201.25 246.18 199.908 247.615 198.017 247.615C196.126 247.615 194.78 246.18 194.78 244.25C194.78 242.322 196.122 240.895 198.017 240.895C199.912 240.895 201.25 242.33 201.25 244.25ZM199.98 244.25C199.98 242.791 199.058 242 198.008 242C196.96 242 196.037 242.791 196.037 244.25C196.037 245.71 196.955 246.51 198.008 246.51C199.062 246.51 199.988 245.723 199.988 244.25H199.98Z" fill="#17177B"/>
<path d="M190.79 245.13L202.04 249.582L213.29 254.037L203.605 257.945L199.692 267.634L195.242 256.385L190.79 245.13Z" fill="white" stroke="#17177B" stroke-width="1.5" stroke-linecap="round" stroke-linejoin="round"/>
</svg>
