<svg width="275" height="275" viewBox="0 0 275 275" fill="none" xmlns="http://www.w3.org/2000/svg">
<path d="M241.708 102.05C250.993 111.47 256.198 124.166 256.198 137.392C256.198 150.618 250.993 163.314 241.708 172.734L171.989 243.616C167.444 248.281 162.011 251.989 156.011 254.523C150.011 257.058 143.565 258.366 137.052 258.373C130.561 258.373 124.137 257.067 118.162 254.532C112.188 251.996 106.784 248.284 102.275 243.616L32.3611 172.962C23.0524 163.52 17.8439 150.789 17.8665 137.53C17.8435 130.991 19.1104 124.511 21.5947 118.462C24.0789 112.414 27.7319 106.914 32.3441 102.279L102.075 31.4303C111.143 22.1593 123.521 16.8697 136.488 16.7253C149.455 16.5809 161.948 21.5934 171.219 30.6603C171.482 30.9142 171.735 31.1722 171.989 31.4303L241.708 102.05Z" fill="#FFAA00" stroke="#17177B" stroke-width="1.5" stroke-linecap="round" stroke-linejoin="round"/>
<path d="M57.9826 164.932C57.9283 164.796 57.8437 164.674 57.7353 164.575C57.6268 164.475 57.4972 164.403 57.3564 164.361C56.1253 164.073 54.8772 163.849 53.6333 163.612C52.9065 163.499 52.2344 163.158 51.7143 162.637C51.1941 162.117 50.8528 161.445 50.7395 160.718C50.5576 159.669 50.4095 158.603 50.2445 157.562C50.0626 156.437 49.8764 155.312 49.6437 154.177C49.623 153.992 49.5463 153.816 49.4237 153.674C48.6918 152.993 48.2095 155.21 48.1545 155.535C47.9556 156.923 47.7314 158.311 47.5241 159.699C47.2195 161.569 46.5553 163.193 44.4991 163.591C43.2298 163.832 41.9606 164.065 40.721 164.361C40.5827 164.406 40.4563 164.482 40.3516 164.584C40.2468 164.685 40.1663 164.808 40.116 164.945C40.0188 165.33 40.353 165.461 40.7126 165.525C42.0918 165.787 43.4668 166.092 44.8503 166.337C45.4878 166.449 46.0607 166.794 46.458 167.305C47.2491 168.253 47.4226 169.4 47.5918 170.559C47.8372 172.252 48.0995 173.944 48.3576 175.636C48.4168 176.03 48.5183 176.402 49.1487 176.406C49.6183 176.406 49.6733 175.962 49.741 175.535C50.0668 173.419 50.3798 171.304 50.7226 169.218C50.8157 168.499 51.1359 167.828 51.6365 167.302C52.1372 166.778 52.7922 166.426 53.5064 166.299C54.7841 166.034 56.0646 165.78 57.348 165.537C57.733 165.478 58.0926 165.355 57.9826 164.932Z" fill="white" stroke="#17177B" stroke-width="1.5" stroke-linecap="round" stroke-linejoin="round"/>
<path d="M202.887 35.6569C202.832 35.5211 202.748 35.3995 202.639 35.3012C202.531 35.2031 202.401 35.1308 202.26 35.0899C201.03 34.8023 199.781 34.5739 198.537 34.3369C197.811 34.2258 197.138 33.8857 196.617 33.366C196.096 32.8463 195.756 32.1742 195.643 31.4473C195.462 30.3981 195.313 29.3319 195.145 28.2911C194.967 27.1657 194.78 26.0404 194.548 24.9065C194.527 24.7203 194.45 24.5448 194.328 24.4031C193.595 23.7177 193.11 25.9346 193.058 26.2604C192.86 27.6523 192.657 29.04 192.432 30.4234C192.128 32.2977 191.463 33.9223 189.407 34.3157C188.138 34.5611 186.869 34.7939 185.63 35.0899C185.491 35.1348 185.364 35.2106 185.259 35.3119C185.154 35.413 185.074 35.5368 185.025 35.6739C184.927 36.0589 185.261 36.1857 185.617 36.2534C187 36.5157 188.375 36.8204 189.758 37.0615C190.396 37.1729 190.968 37.5203 191.362 38.0346C192.157 38.9781 192.33 40.1499 192.5 41.2881C192.745 42.9804 193.003 44.6727 193.262 46.3649C193.325 46.7584 193.422 47.1307 194.057 47.1349C194.527 47.1349 194.582 46.6865 194.645 46.2634C194.975 44.1481 195.284 42.0327 195.63 39.9469C195.72 39.226 196.039 38.553 196.54 38.0273C197.041 37.5015 197.699 37.1511 198.415 37.0277C199.684 36.7611 200.953 36.5031 202.256 36.2661C202.654 36.2027 202.997 36.0799 202.887 35.6569Z" fill="white" stroke="#17177B" stroke-width="1.5" stroke-linecap="round" stroke-linejoin="round"/>
<path d="M244.509 197.209H251.549" stroke="#17177B" stroke-width="1.5" stroke-linecap="round" stroke-linejoin="round"/>
<path d="M248.029 193.689V200.725" stroke="#17177B" stroke-width="1.5" stroke-linecap="round" stroke-linejoin="round"/>
<path d="M164.209 82.3518C175.251 82.3518 184.203 73.4 184.203 62.3573C184.203 51.3145 175.251 42.3626 164.209 42.3626C153.166 42.3626 144.215 51.3145 144.215 62.3573C144.215 73.4 153.166 82.3518 164.209 82.3518Z" fill="#0028F4" stroke="#17177B" stroke-width="1.5" stroke-linecap="round" stroke-linejoin="round"/>
<path d="M164.044 80.8286C175.119 80.8286 184.097 71.8504 184.097 60.7749C184.097 49.6995 175.119 40.7211 164.044 40.7211C152.968 40.7211 143.99 49.6995 143.99 60.7749C143.99 71.8504 152.968 80.8286 164.044 80.8286Z" fill="#FFF000" stroke="#17177B" stroke-width="1.5" stroke-linecap="round" stroke-linejoin="round"/>
<path d="M168.042 47.7822L154.795 50.8156L150.793 63.8041L160.045 73.7634L173.292 70.7299L177.295 57.7414L168.042 47.7822ZM169.438 66.5837L161.713 68.3522L156.315 62.5434L158.654 54.9661L166.38 53.1976L171.77 59.0064L169.438 66.5837Z" fill="#FFF000" stroke="#17177B" stroke-width="1.5" stroke-linecap="round" stroke-linejoin="round"/>
<path d="M76.3823 243.155C87.4248 243.155 96.3768 234.203 96.3768 223.16C96.3768 212.117 87.4248 203.165 76.3823 203.165C65.3396 203.165 56.3878 212.117 56.3878 223.16C56.3878 234.203 65.3396 243.155 76.3823 243.155Z" fill="#17177B" stroke="#17177B" stroke-width="1.5" stroke-linecap="round" stroke-linejoin="round"/>
<path d="M76.2172 241.573C87.2598 241.573 96.2118 232.621 96.2118 221.578C96.2118 210.535 87.2598 201.583 76.2172 201.583C65.1745 201.583 56.2227 210.535 56.2227 221.578C56.2227 232.621 65.1745 241.573 76.2172 241.573Z" fill="#FFF000" stroke="#17177B" stroke-width="1.5" stroke-linecap="round" stroke-linejoin="round"/>
<path d="M76.2172 241.632C87.2926 241.632 96.2714 232.654 96.2714 221.578C96.2714 210.503 87.2926 201.524 76.2172 201.524C65.1418 201.524 56.1633 210.503 56.1633 221.578C56.1633 232.654 65.1418 241.632 76.2172 241.632Z" fill="#FFF000" stroke="#17177B" stroke-width="1.5" stroke-linecap="round" stroke-linejoin="round"/>
<path d="M73.26 209.241L71.0092 232.938L86.7648 230.107" stroke="#17177B" stroke-width="1.5" stroke-linecap="round" stroke-linejoin="round"/>
<path d="M76.1749 220.673L67.9756 225.91" stroke="#17177B" stroke-width="1.5" stroke-linecap="round" stroke-linejoin="round"/>
<path d="M86.172 73.5054L99.1482 220.199C99.44 224.065 98.9114 226.68 96.1102 223.88L64.1553 197.225C63.7481 196.824 63.438 196.333 63.2489 195.793C63.0597 195.252 62.9964 194.676 63.0638 194.108L77.385 73.6619C77.9686 68.7034 85.8 68.5638 86.172 73.5054Z" fill="#0032EB" stroke="#080000" stroke-width="1.5" stroke-miterlimit="10"/>
<path d="M64.1595 197.213L215.515 173.038L97.7304 225.047L64.1595 197.213Z" fill="#0032EB" stroke="#080000" stroke-width="1.5" stroke-miterlimit="10"/>
<path d="M238.695 180.523C249.738 180.523 258.69 171.571 258.69 160.528C258.69 149.485 249.738 140.533 238.695 140.533C227.653 140.533 218.701 149.485 218.701 160.528C218.701 171.571 227.653 180.523 238.695 180.523Z" fill="#17177B" stroke="#17177B" stroke-width="1.5" stroke-linecap="round" stroke-linejoin="round"/>
<path d="M238.53 178.995C249.606 178.995 258.585 170.017 258.585 158.942C258.585 147.866 249.606 138.888 238.53 138.888C227.456 138.888 218.477 147.866 218.477 158.942C218.477 170.017 227.456 178.995 238.53 178.995Z" fill="#FFF000" stroke="#17177B" stroke-width="1.5" stroke-linecap="round" stroke-linejoin="round"/>
<path d="M233.488 157.935L242.173 158.138" stroke="#17177B" stroke-width="1.5" stroke-linecap="round" stroke-linejoin="round"/>
<path d="M236.352 145.403L236.275 148.517" stroke="#17177B" stroke-width="1.5" stroke-linecap="round" stroke-linejoin="round"/>
<path d="M239.939 145.488L239.863 148.602" stroke="#17177B" stroke-width="1.5" stroke-linecap="round" stroke-linejoin="round"/>
<path d="M235.789 168.897L235.713 172.01" stroke="#17177B" stroke-width="1.5" stroke-linecap="round" stroke-linejoin="round"/>
<path d="M239.377 168.981L239.301 172.095" stroke="#17177B" stroke-width="1.5" stroke-linecap="round" stroke-linejoin="round"/>
<path d="M244.162 150.285L242.41 148.661L233.712 148.458L233.225 168.761L241.953 168.968L243.752 167.454L243.925 160.11L241.95 158.205L244.005 156.818L244.162 150.285Z" stroke="#17177B" stroke-width="1.5" stroke-linecap="round" stroke-linejoin="round"/>
<path d="M82.5 68.7839L207.355 64.5531C208.32 64.5191 209.264 64.8475 209.999 65.4738C210.736 66.1001 211.211 66.9789 211.331 67.9377L228.411 200.462C228.536 201.458 228.269 202.463 227.668 203.266C227.067 204.07 226.178 204.608 225.187 204.77L100.565 225.682C100.047 225.77 99.5149 225.751 99.0031 225.626C98.4912 225.502 98.0108 225.274 97.5899 224.957C97.1697 224.641 96.8183 224.241 96.5571 223.784C96.2958 223.326 96.1308 222.82 96.072 222.297L78.7562 73.1119C78.6943 72.5774 78.744 72.0359 78.9028 71.5217C79.061 71.0075 79.3245 70.5319 79.6767 70.125C80.0288 69.7181 80.4612 69.3887 80.9478 69.1579C81.4336 68.927 81.9622 68.7996 82.5 68.7839Z" fill="#008FFF" stroke="#080000" stroke-width="1.5" stroke-miterlimit="10"/>
<path d="M211.742 71.8173C211.626 70.9207 211.181 70.0992 210.493 69.5132C209.804 68.9273 208.922 68.6189 208.018 68.6484L91.0968 72.6254C90.5949 72.643 90.103 72.7644 89.65 72.982C89.1978 73.1994 88.7952 73.5084 88.4683 73.8892C88.1413 74.27 87.8961 74.7144 87.7495 75.1945C87.6028 75.6745 87.5569 76.1798 87.615 76.6784L91.6346 111.328L215.85 103.713L211.742 71.8173Z" fill="#008FFF" stroke="#080000" stroke-width="1.5" stroke-miterlimit="10"/>
<path d="M215.85 103.7L91.6346 111.315L103.827 216.378C103.884 216.87 104.04 217.345 104.287 217.773C104.534 218.202 104.864 218.576 105.261 218.872C105.657 219.169 106.11 219.381 106.59 219.496C107.071 219.611 107.571 219.627 108.058 219.543L224.755 199.959C225.683 199.804 226.514 199.296 227.075 198.541C227.635 197.785 227.88 196.843 227.76 195.91L215.85 103.7Z" fill="#008FFF" stroke="#080000" stroke-width="1.5" stroke-miterlimit="10"/>
<path d="M125.582 216.298L111.963 110.05L125.582 216.298Z" fill="#008FFF"/>
<path d="M125.582 216.298L111.963 110.05" stroke="#080000" stroke-width="1.5" stroke-miterlimit="10"/>
<path d="M145.911 213.045L132.567 108.968L145.911 213.045Z" fill="#008FFF"/>
<path d="M145.911 213.045L132.567 108.968" stroke="#080000" stroke-width="1.5" stroke-miterlimit="10"/>
<path d="M166.155 209.8L153.04 107.415L166.155 209.8Z" fill="#008FFF"/>
<path d="M166.155 209.8L153.04 107.415" stroke="#080000" stroke-width="1.5" stroke-miterlimit="10"/>
<path d="M186.437 206.398L173.597 106.26L186.437 206.398Z" fill="#008FFF"/>
<path d="M186.437 206.398L173.597 106.26" stroke="#080000" stroke-width="1.5" stroke-miterlimit="10"/>
<path d="M206.462 203.03L193.96 105.456L206.462 203.03Z" fill="#008FFF"/>
<path d="M206.462 203.03L193.96 105.456" stroke="#080000" stroke-width="1.5" stroke-miterlimit="10"/>
<path d="M164.45 84.0782C165.48 84.9834 166.111 86.2576 166.208 87.6249C166.306 88.9923 165.861 90.3429 164.97 91.3848L158.298 99.2116C157.866 99.7265 157.334 100.149 156.736 100.454C156.137 100.76 155.482 100.942 154.811 100.99C154.141 101.038 153.468 100.951 152.831 100.734C152.194 100.518 151.608 100.176 151.106 99.728L143.377 92.9584C142.348 92.0525 141.717 90.7768 141.625 89.4086C141.574 88.7333 141.656 88.055 141.869 87.4111C142.081 86.7679 142.418 86.1728 142.86 85.6602L149.532 77.838C149.961 77.33 150.486 76.9114 151.077 76.6066C151.667 76.3024 152.313 76.1175 152.975 76.0628C153.637 76.0082 154.304 76.0849 154.937 76.2886C155.569 76.492 156.155 76.819 156.661 77.2498L156.746 77.3216L164.45 84.0782ZM159.441 89.9502C159.882 89.427 160.101 88.7524 160.052 88.0695C160.003 87.3866 159.689 86.7503 159.178 86.295L155.316 82.9102C155.065 82.6902 154.772 82.5214 154.456 82.4145C154.14 82.3075 153.805 82.264 153.472 82.2861C153.138 82.3083 152.813 82.3969 152.513 82.5451C152.215 82.6933 151.947 82.8995 151.728 83.1516L148.39 87.0604C147.948 87.5829 147.728 88.2567 147.777 88.9388C147.825 89.621 148.138 90.2573 148.648 90.7118L152.502 94.0966C152.753 94.3174 153.046 94.4862 153.363 94.5939C153.68 94.7016 154.015 94.7452 154.348 94.723C154.682 94.7001 155.008 94.6122 155.308 94.4633C155.608 94.3143 155.875 94.1081 156.095 93.8552L159.441 89.9502Z" fill="#0032EB" stroke="black" stroke-width="1.5" stroke-miterlimit="10"/>
<path d="M94.8032 138.651L219.002 127.575L94.8032 138.651Z" fill="#008FFF"/>
<path d="M94.8032 138.651L219.002 127.575" stroke="#080000" stroke-width="1.5" stroke-miterlimit="10"/>
<path d="M97.9718 165.905L222.213 151.462L97.9718 165.905Z" fill="#008FFF"/>
<path d="M97.9718 165.905L222.213 151.462" stroke="#080000" stroke-width="1.5" stroke-miterlimit="10"/>
<path d="M197.073 129.647L176.842 131.454L180.049 156.487L200.213 154.148L197.073 129.647Z" fill="#FFF000" stroke="#080000" stroke-width="1.5" stroke-miterlimit="10"/>
<path d="M101.115 193.084L225.5 175.37L101.115 193.084Z" fill="#008FFF"/>
<path d="M101.115 193.084L225.5 175.37" stroke="#080000" stroke-width="1.5" stroke-miterlimit="10"/>
<path d="M180.015 156.373L200.213 154.025L203.327 178.538L183.23 181.398L180.015 156.373Z" fill="#FFF000" stroke="#080000" stroke-width="1.5" stroke-miterlimit="10"/>
<path d="M213.59 188.011C213.026 188.093 212.493 188.318 212.043 188.666C211.591 189.014 211.237 189.471 211.014 189.995L210.933 189.415C210.847 188.691 210.523 188.015 210.012 187.494C209.501 186.973 208.832 186.636 208.109 186.536C207.386 186.435 206.65 186.578 206.017 186.941C205.384 187.303 204.888 187.865 204.608 188.54C204.45 187.702 203.976 186.957 203.285 186.457C202.595 185.957 201.739 185.74 200.894 185.85C200.33 185.93 199.797 186.154 199.346 186.503C198.895 186.85 198.542 187.309 198.322 187.833L197.052 178.755C196.931 177.884 196.468 177.098 195.766 176.568C195.065 176.04 194.182 175.811 193.312 175.932C192.442 176.054 191.656 176.516 191.127 177.218C190.598 177.919 190.369 178.802 190.49 179.672L193.54 201.52L189.7 198.8C189.192 198.409 188.613 198.123 187.994 197.96C187.374 197.796 186.73 197.758 186.096 197.847C185.462 197.937 184.852 198.152 184.303 198.481C183.753 198.809 183.275 199.244 182.896 199.76C182.612 200.147 182.492 200.629 182.56 201.104C182.628 201.578 182.88 202.007 183.26 202.298L198.49 213.925L198.69 214.081C200.018 215.182 201.562 215.995 203.222 216.468C204.882 216.941 206.622 217.063 208.332 216.827C215.168 215.87 219.94 209.44 218.968 202.493L217.352 190.9C217.235 190.019 216.774 189.219 216.069 188.678C215.364 188.136 214.473 187.896 213.59 188.011Z" fill="white" stroke="#181141" stroke-width="1.5" stroke-linecap="round" stroke-linejoin="round"/>
<path d="M198.313 187.846L199.07 193.278L198.313 187.846Z" fill="#008FFF"/>
<path d="M198.313 187.846L199.07 193.278" stroke="#181141" stroke-width="1.5" stroke-linecap="round" stroke-linejoin="round"/>
<path d="M204.604 188.536L205.315 193.613L204.604 188.536Z" fill="#008FFF"/>
<path d="M204.604 188.536L205.315 193.613" stroke="#181141" stroke-width="1.5" stroke-linecap="round" stroke-linejoin="round"/>
<path d="M211.014 189.995L211.648 194.548L211.014 189.995Z" fill="#008FFF"/>
<path d="M211.014 189.995L211.648 194.548" stroke="#181141" stroke-width="1.5" stroke-linecap="round" stroke-linejoin="round"/>
<path d="M186.966 169.362L190.913 172.167L196.938 159.864" stroke="#181141" stroke-width="1.5" stroke-linecap="round" stroke-linejoin="round"/>
<path d="M183.192 145.648L187.14 148.458L193.168 136.15" stroke="#181141" stroke-width="1.5" stroke-linecap="round" stroke-linejoin="round"/>
<path d="M173.597 152.071L168.055 148.077L173.597 152.071Z" fill="#008FFF"/>
<path d="M173.597 152.071L168.055 148.077" stroke="white" stroke-width="1.5" stroke-miterlimit="10" stroke-linecap="round"/>
<path d="M189.58 149L189.01 142.717L189.58 149Z" fill="#008FFF"/>
<path d="M189.58 149L189.01 142.717" stroke="white" stroke-width="1.5" stroke-miterlimit="10" stroke-linecap="round"/>
<path d="M204.553 149.376L208.361 144.299L204.553 149.376Z" fill="#008FFF"/>
<path d="M204.553 149.376L208.361 144.299" stroke="white" stroke-width="1.5" stroke-miterlimit="10" stroke-linecap="round"/>
<path d="M206.462 165.085L214.077 164.37L206.462 165.085Z" fill="#008FFF"/>
<path d="M206.462 165.085L214.077 164.37" stroke="white" stroke-width="1.5" stroke-miterlimit="10" stroke-linecap="round"/>
<path d="M176.334 169.654L168.575 170.627L176.334 169.654Z" fill="#008FFF"/>
<path d="M176.334 169.654L168.575 170.627" stroke="white" stroke-width="1.5" stroke-miterlimit="10" stroke-linecap="round"/>
<path d="M179.668 185.96L176.317 190.735L179.668 185.96Z" fill="#008FFF"/>
<path d="M179.668 185.96L176.317 190.735" stroke="white" stroke-width="1.5" stroke-miterlimit="10" stroke-linecap="round"/>
<path d="M207.672 181.923L212.182 184.627L207.672 181.923Z" fill="#008FFF"/>
<path d="M207.672 181.923L212.182 184.627" stroke="white" stroke-width="1.5" stroke-miterlimit="10" stroke-linecap="round"/>
<path d="M193.9 105.08L173.597 106.323L176.808 131.37L197.04 129.567L193.9 105.08Z" fill="#FFF000" stroke="#080000" stroke-width="1.5" stroke-miterlimit="10"/>
<path d="M159.095 263.846C162.576 262.815 162.946 253.692 159.919 243.468C156.893 233.245 151.617 225.793 148.136 226.824C144.654 227.854 144.285 236.977 147.311 247.201C150.337 257.424 155.613 264.876 159.095 263.846Z" fill="#17177B" stroke="#17177B" stroke-width="1.5" stroke-linecap="round" stroke-linejoin="round"/>
<path d="M157.364 264.354C160.846 263.323 161.215 254.2 158.188 243.977C155.162 233.753 149.886 226.301 146.405 227.332C142.923 228.362 142.554 237.485 145.58 247.709C148.606 257.932 153.882 265.384 157.364 264.354Z" fill="#FFF000" stroke="#17177B" stroke-width="1.5" stroke-linecap="round" stroke-linejoin="round"/>
<path d="M214.375 120.605C216.695 118.206 212.862 110.739 205.816 103.925C198.77 97.1109 191.178 93.5313 188.859 95.93C186.539 98.3286 190.37 105.796 197.416 112.61C204.463 119.424 212.056 123.004 214.375 120.605Z" fill="#17177B" stroke="#17177B" stroke-width="1.5" stroke-linecap="round" stroke-linejoin="round"/>
<path d="M213.22 121.797C215.539 119.399 211.707 111.931 204.661 105.117C197.615 98.3033 190.023 94.7237 187.703 97.1223C185.384 99.521 189.215 106.989 196.261 113.803C203.308 120.617 210.9 124.196 213.22 121.797Z" fill="#FFF000" stroke="#17177B" stroke-width="1.5" stroke-linecap="round" stroke-linejoin="round"/>
<path d="M123.273 27.0596C126.174 16.8001 125.693 7.68215 122.199 6.69408C118.705 5.70602 113.521 13.222 110.62 23.4816C107.718 33.7412 108.199 42.8591 111.693 43.8472C115.187 44.8352 120.371 37.3192 123.273 27.0596Z" fill="#17177B" stroke="#17177B" stroke-width="1.5" stroke-linecap="round" stroke-linejoin="round"/>
<path d="M125.008 27.5505C127.909 17.291 127.429 8.17295 123.935 7.18492C120.441 6.19687 115.256 13.7129 112.355 23.9725C109.454 34.2319 109.934 43.35 113.428 44.338C116.922 45.3261 122.107 37.81 125.008 27.5505Z" fill="#FFF000" stroke="#17177B" stroke-width="1.5" stroke-linecap="round" stroke-linejoin="round"/>
<path d="M51.9875 120.475C54.01 117.459 48.4715 110.201 39.6169 104.262C30.7622 98.3232 21.9445 95.9528 19.9219 98.9687C17.8993 101.985 23.4378 109.244 32.2925 115.182C41.1471 121.121 49.9648 123.491 51.9875 120.475Z" fill="#17177B" stroke="#17177B" stroke-width="1.5" stroke-linecap="round" stroke-linejoin="round"/>
<path d="M52.9938 118.984C55.0164 115.968 49.4779 108.71 40.6232 102.771C31.7685 96.8321 22.9508 94.4618 20.9282 97.4776C18.9057 100.493 24.4442 107.752 33.2988 113.691C42.1535 119.63 50.9712 122 52.9938 118.984Z" fill="#FFF000" stroke="#17177B" stroke-width="1.5" stroke-linecap="round" stroke-linejoin="round"/>
<path d="M93.9652 148.479C105.008 148.479 113.96 139.527 113.96 128.484C113.96 117.442 105.008 108.49 93.9652 108.49C82.9224 108.49 73.9708 117.442 73.9708 128.484C73.9708 139.527 82.9224 148.479 93.9652 148.479Z" fill="#17177B" stroke="#17177B" stroke-width="1.5" stroke-linecap="round" stroke-linejoin="round"/>
<path d="M93.8002 146.955C104.876 146.955 113.855 137.977 113.855 126.902C113.855 115.826 104.876 106.848 93.8002 106.848C82.7254 106.848 73.7466 115.826 73.7466 126.902C73.7466 137.977 82.7254 146.955 93.8002 146.955Z" fill="#FFF000" stroke="#17177B" stroke-width="1.5" stroke-linecap="round" stroke-linejoin="round"/>
<path d="M99.5454 118.005C100.464 118.957 101.458 120.005 102.478 121.03C103.019 121.575 102.52 121.838 102.215 122.142C97.9336 126.432 93.6467 130.721 89.3536 135.008C89.032 135.33 88.6936 135.635 88.4484 135.855L85.0384 132.525L99.5454 118.005Z" stroke="#17177B" stroke-width="1.5" stroke-linecap="round" stroke-linejoin="round"/>
<path d="M90.3138 137.855L104.652 123.471C105.705 124.537 106.831 125.671 107.863 126.707L93.5 141.058L90.3138 137.855Z" stroke="#17177B" stroke-width="1.5" stroke-linecap="round" stroke-linejoin="round"/>
<path d="M88.4568 124.981L85.2034 121.762L94.215 112.742L97.4814 115.961L88.4568 124.981Z" stroke="#17177B" stroke-width="1.5" stroke-linecap="round" stroke-linejoin="round"/>
<path d="M82.995 130.426L79.737 127.168L82.9614 123.826L86.2484 127.164L82.995 130.426Z" stroke="#17177B" stroke-width="1.5" stroke-linecap="round" stroke-linejoin="round"/>
<path d="M89.54 64.3754C89.8746 64.1554 90.1748 63.9523 90.4796 63.762C91.507 63.0957 92.4405 62.2945 93.2548 61.38C94.1126 60.4394 94.8177 59.3701 95.3448 58.2112C95.5862 57.657 95.768 57.0773 95.9918 56.5188C96.0086 56.4715 96.0331 56.4272 96.0636 56.3878C96.5143 57.4662 97.0819 58.492 97.7564 59.4466C98.4714 60.3734 99.2941 61.2127 100.206 61.947C101.15 62.6545 102.156 63.2734 103.214 63.7958C103.165 63.8366 103.114 63.8747 103.062 63.91C102.318 64.3723 101.603 64.8795 100.921 65.4288C99.4331 66.6631 98.2384 68.2121 97.4218 69.9643C97.172 70.5185 96.9986 71.0981 96.7748 71.6566L96.7068 71.83C96.2607 70.7402 95.6931 69.7042 95.0148 68.7416C94.2975 67.8109 93.4725 66.9687 92.5566 66.2328C91.6117 65.5204 90.6018 64.8985 89.54 64.3754Z" fill="white" stroke="#17177B" stroke-width="1.5" stroke-linecap="round" stroke-linejoin="round"/>
<path d="M237.74 124.385L238.675 123.767C239.703 123.104 240.636 122.304 241.45 121.39C242.309 120.45 243.015 119.381 243.54 118.22C243.781 117.662 243.963 117.087 244.187 116.528C244.204 116.479 244.228 116.433 244.259 116.393C244.711 117.472 245.279 118.499 245.952 119.456C246.668 120.381 247.492 121.219 248.405 121.952C249.346 122.662 250.352 123.283 251.409 123.805L251.261 123.915C250.518 124.38 249.802 124.887 249.116 125.434C247.628 126.668 246.434 128.219 245.622 129.973C245.372 130.523 245.198 131.103 244.97 131.666C244.97 131.712 244.936 131.755 244.902 131.843C244.459 130.751 243.891 129.714 243.21 128.751C242.491 127.82 241.665 126.978 240.747 126.242C239.804 125.532 238.797 124.91 237.74 124.385Z" fill="white" stroke="#17177B" stroke-width="1.5" stroke-linecap="round" stroke-linejoin="round"/>
<path d="M173.597 225.03C174.63 225.03 175.467 224.193 175.467 223.16C175.467 222.127 174.63 221.29 173.597 221.29C172.564 221.29 171.727 222.127 171.727 223.16C171.727 224.193 172.564 225.03 173.597 225.03Z" fill="white" stroke="#0C23F4" stroke-width="1.5" stroke-linecap="round" stroke-linejoin="round"/>
<path d="M225.897 105.57C226.93 105.57 227.767 104.733 227.767 103.7C227.767 102.667 226.93 101.83 225.897 101.83C224.864 101.83 224.027 102.667 224.027 103.7C224.027 104.733 224.864 105.57 225.897 105.57Z" fill="white" stroke="#0C23F4" stroke-width="1.5" stroke-linecap="round" stroke-linejoin="round"/>
<path d="M145.911 32.2173C146.943 32.2173 147.78 31.3801 147.78 30.3473C147.78 29.3145 146.943 28.4773 145.911 28.4773C144.878 28.4773 144.04 29.3145 144.04 30.3473C144.04 31.3801 144.878 32.2173 145.911 32.2173Z" fill="white" stroke="#0C23F4" stroke-width="1.5" stroke-linecap="round" stroke-linejoin="round"/>
<path d="M60.3731 152.07C61.4059 152.07 62.2431 151.233 62.2431 150.2C62.2431 149.168 61.4059 148.33 60.3731 148.33C59.3403 148.33 58.5031 149.168 58.5031 150.2C58.5031 151.233 59.3403 152.07 60.3731 152.07Z" fill="white" stroke="#0C23F4" stroke-width="1.5" stroke-linecap="round" stroke-linejoin="round"/>
<path d="M179.875 121.444L183.823 124.253L189.848 111.946" stroke="#181141" stroke-width="1.5" stroke-linecap="round" stroke-linejoin="round"/>
</svg>
