<svg width="224" height="225" viewBox="0 0 224 225" fill="none" xmlns="http://www.w3.org/2000/svg">
<path d="M205.76 93.5211L141.967 34.2839C124.388 17.9365 95.7589 17.8965 78.0962 34.2172C78.0962 34.2472 78.0962 34.2472 78.0139 34.2839L14.3069 93.3509C10.0863 97.2333 6.73621 101.859 4.45168 106.96C2.16722 112.06 0.993847 117.533 1.00002 123.06C0.99598 128.535 2.1717 133.955 4.45756 138.998C6.74342 144.041 10.0928 148.605 14.3069 152.419L78.1102 211.749C86.5908 219.603 98.0613 224.007 110.016 224C121.97 223.992 133.434 219.573 141.903 211.709L205.774 152.659C209.965 148.791 213.291 144.188 215.561 139.115C217.831 134.042 219 128.6 219 123.103C219 117.607 217.831 112.165 215.561 107.092C213.291 102.019 209.965 97.4152 205.774 93.5478L205.76 93.5211Z" fill="#0C24F6" fill-opacity="0.8" stroke="#181180" stroke-width="1.5" stroke-miterlimit="10"/>
<path d="M185.5 131C194.06 131 201 124.284 201 116C201 107.716 194.06 101 185.5 101C176.939 101 170 107.716 170 116C170 124.284 176.939 131 185.5 131Z" fill="#0028F4" stroke="#0028F4" stroke-width="1.5" stroke-linecap="round" stroke-linejoin="round"/>
<path d="M185.5 130C194.06 130 201 123.061 201 114.5C201 105.94 194.06 99 185.5 99C176.94 99 170 105.94 170 114.5C170 123.061 176.94 130 185.5 130Z" fill="#FFF000" stroke="#0C23F4" stroke-width="1.5" stroke-linecap="round" stroke-linejoin="round"/>
<path d="M148.109 200.933C150.401 200.214 150.643 193.84 148.65 186.697C146.657 179.554 143.183 174.347 140.891 175.066C138.599 175.786 138.356 182.161 140.35 189.304C142.343 196.446 145.817 201.654 148.109 200.933Z" fill="#0C23F4" stroke="#0C23F4" stroke-width="1.5" stroke-linecap="round" stroke-linejoin="round"/>
<path d="M146.937 200.936C149.438 200.244 149.702 194.115 147.528 187.247C145.353 180.378 141.564 175.372 139.063 176.064C136.563 176.756 136.298 182.885 138.473 189.753C140.647 196.622 144.437 201.628 146.937 200.936Z" fill="#FFF000" stroke="#0C23F4" stroke-width="1.5" stroke-linecap="round" stroke-linejoin="round"/>
<path d="M172.788 67.708C174.097 65.3015 169.209 60.3476 161.871 56.6428C154.533 52.938 147.522 51.8854 146.212 54.2918C144.903 56.6983 149.791 61.6522 157.129 65.3573C164.467 69.0624 171.478 70.1145 172.788 67.708Z" fill="#0C23F4" stroke="#0C23F4" stroke-width="1.5" stroke-linecap="round" stroke-linejoin="round"/>
<path d="M171.796 68.708C173.056 66.3022 168.35 61.3476 161.283 57.6428C154.217 53.938 147.465 52.8854 146.204 55.2919C144.944 57.6983 149.65 62.6521 156.717 66.3573C163.784 70.0624 170.535 71.1145 171.796 68.708Z" fill="#FFF000" stroke="#0C23F4" stroke-width="1.5" stroke-linecap="round" stroke-linejoin="round"/>
<path d="M57.5003 184C66.6129 184 74 177.06 74 168.5C74 159.939 66.6129 153 57.5003 153C48.3877 153 41 159.939 41 168.5C41 177.06 48.3877 184 57.5003 184Z" fill="#0028F4" stroke="#0028F4" stroke-width="1.5" stroke-linecap="round" stroke-linejoin="round"/>
<path d="M57.5003 183C66.6129 183 74 176.06 74 167.5C74 158.939 66.6129 152 57.5003 152C48.3877 152 41 158.939 41 167.5C41 176.06 48.3877 183 57.5003 183Z" fill="#FFF000" stroke="#0028F4" stroke-width="1.5" stroke-linecap="round" stroke-linejoin="round"/>
<path d="M57.5003 183C66.6126 183 74 176.06 74 167.5C74 158.939 66.6126 152 57.5003 152C48.3874 152 41 158.939 41 167.5C41 176.06 48.3874 183 57.5003 183Z" fill="#FFF000" stroke="#0C23F4" stroke-width="1.5" stroke-linecap="round" stroke-linejoin="round"/>
<path d="M55.0006 158L53 176L67 173.852" stroke="#0C23F4" stroke-width="1.5" stroke-linecap="round" stroke-linejoin="round"/>
<path d="M59 166L50 171" stroke="#0C23F4" stroke-width="1.5" stroke-linecap="round" stroke-linejoin="round"/>
<path d="M176.5 200C185.613 200 193 193.06 193 184.5C193 175.939 185.613 169 176.5 169C167.387 169 160 175.939 160 184.5C160 193.06 167.387 200 176.5 200Z" fill="#0028F4" stroke="#0028F4" stroke-width="1.5" stroke-linecap="round" stroke-linejoin="round"/>
<path d="M176.5 199C185.613 199 193 191.837 193 183C193 174.163 185.613 167 176.5 167C167.387 167 160 174.163 160 183C160 191.837 167.387 199 176.5 199Z" fill="#FFF000" stroke="#0C23F4" stroke-width="1.5" stroke-linecap="round" stroke-linejoin="round"/>
<path d="M179.99 174L168.484 176.216L165 185.717L173.022 193L184.528 190.781L188 181.282L179.99 174ZM181.204 187.747L174.489 189.034L169.806 184.781L171.83 179.243L178.542 177.956L183.229 182.208L181.204 187.747Z" fill="#FFF000" stroke="#0C23F4" stroke-width="1.5" stroke-linecap="round" stroke-linejoin="round"/>
<path d="M81.6151 35.2456C83.7324 28.0995 83.3831 21.7487 80.8334 21.0607C78.2844 20.3728 74.5018 25.6082 72.3846 32.7543C70.2674 39.9005 70.6174 46.2513 73.1664 46.9393C75.7154 47.6272 79.4979 42.3918 81.6151 35.2456Z" fill="#0C23F4" stroke="#0C23F4" stroke-width="1.5" stroke-linecap="round" stroke-linejoin="round"/>
<path d="M82.7308 35.2456C84.6715 28.0995 84.3507 21.7487 82.0142 21.0607C79.6778 20.3728 76.2105 25.6082 74.2692 32.7543C72.3285 39.9005 72.6493 46.2513 74.9858 46.9393C77.3222 47.6272 80.7901 42.3918 82.7308 35.2456Z" fill="#FFF000" stroke="#0C23F4" stroke-width="1.5" stroke-linecap="round" stroke-linejoin="round"/>
<path d="M125.948 99.4489L101.611 92L63.6072 108.288L63.3361 123.625C61.7203 130.417 61.5684 137.447 62.8893 144.295C65.1132 155.482 73.418 182.57 73.418 182.57L66.4152 200.928L77.9149 211.778C82.813 216.347 88.7558 219.789 95.2843 221.839C101.813 223.889 108.753 224.491 115.567 223.6L120.011 204.11C120.011 204.11 152.951 183.143 160.222 150.453C167.115 119.364 125.948 99.4489 125.948 99.4489Z" fill="#9F5B3A" stroke="#181180" stroke-width="1.5" stroke-linecap="round" stroke-linejoin="round"/>
<path d="M134 75.2459C134 75.2459 150.156 36.5496 160.976 36.0109C173.955 35.3858 158.22 61.8362 153.627 73.9159C149.034 85.9957 151.419 99 151.419 99" fill="#9F5B3A"/>
<path d="M134 75.2459C134 75.2459 150.156 36.5496 160.976 36.0109C173.955 35.3858 158.22 61.8362 153.627 73.9159C149.034 85.9957 151.419 99 151.419 99" stroke="#181180" stroke-width="1.5" stroke-linecap="round" stroke-linejoin="round"/>
<path d="M177 124C177 124 172.806 138.738 159.093 151.503C141.124 168.233 158.686 132.895 158.686 132.895L170.975 124.974L177 124Z" fill="#9F5B3A" stroke="#181180" stroke-width="1.5" stroke-linecap="round" stroke-linejoin="round"/>
<path d="M172 108.584C172 108.584 163.178 122.611 152.009 128.652C140.84 134.692 148.664 118.477 148.664 118.477L158.703 110.196L165.918 108L172 108.584Z" fill="#9F5B3A" stroke="#181180" stroke-width="1.5" stroke-linecap="round" stroke-linejoin="round"/>
<path d="M166 88C166 88 153.38 107.649 143.796 115.286C134.211 122.923 135.017 102.56 135.017 102.56L148.873 96.7069L158.671 90.3934L166 88Z" fill="#9F5B3A" stroke="#181180" stroke-width="1.5" stroke-linecap="round" stroke-linejoin="round"/>
<path d="M160.119 166.636L89.4359 179.937C88.5073 180.109 87.5448 179.925 86.7585 179.423C85.973 178.921 85.4278 178.144 85.243 177.261L58.0667 48.354C57.8848 47.47 58.0783 46.5534 58.6054 45.8052C59.1325 45.0571 59.9498 44.5385 60.8777 44.3631L131.566 31.0622C132.493 30.891 133.455 31.0764 134.24 31.5778C135.025 32.0793 135.569 32.856 135.755 33.7385L162.935 162.649C163.115 163.533 162.92 164.448 162.392 165.195C161.864 165.943 161.047 166.461 160.119 166.636Z" fill="#008EFF" stroke="#181180" stroke-width="1.5" stroke-miterlimit="10"/>
<path d="M60.1917 58.0204L59.8601 58.0859C59.282 58.2 58.9061 58.7606 59.0205 59.338L61.5541 72.1407C61.6679 72.7178 62.2296 73.0936 62.8077 72.9796L63.1393 72.9138C63.7174 72.7999 64.0939 72.239 63.9795 71.6619L61.4459 58.8593C61.3315 58.2819 60.7697 57.9063 60.1917 58.0204Z" fill="#008EFF" stroke="#181180" stroke-width="1.5" stroke-miterlimit="10"/>
<path d="M143.762 52.032L143.275 52.1337C142.418 52.3127 141.861 53.1919 142.03 54.0974L144.379 66.6521C144.548 67.5577 145.381 68.1468 146.238 67.968L146.725 67.8663C147.582 67.6875 148.139 66.8078 147.97 65.9022L145.621 53.3477C145.452 52.4421 144.619 51.8531 143.762 52.032Z" fill="#00CEFF" stroke="#181180" stroke-width="1.5" stroke-miterlimit="10"/>
<path d="M64.1917 74.0204L63.8601 74.0862C63.282 74.2001 62.9061 74.761 63.0205 75.3382L65.5541 88.1405C65.6679 88.7183 66.2296 89.094 66.8077 88.9794L67.1393 88.9143C67.7174 88.8004 68.0939 88.2395 67.9795 87.6623L65.4459 74.8593C65.3315 74.2822 64.7697 73.9064 64.1917 74.0204Z" fill="#008EFF" stroke="#181180" stroke-width="1.5" stroke-miterlimit="10"/>
<path d="M163.135 165.639L92.4455 178.937C91.5177 179.109 90.5552 178.924 89.7703 178.422C88.9847 177.921 88.441 177.144 88.2562 176.261L61.0657 47.3515C60.8852 46.4677 61.0802 45.552 61.6065 44.8043C62.1336 44.0566 62.9496 43.5376 63.8767 43.3606L134.566 30.0628C135.494 29.8907 136.456 30.0756 137.241 30.5772C138.026 31.0789 138.57 31.8562 138.755 32.7391L165.936 161.655C166.113 162.537 165.92 163.449 165.395 164.195C164.871 164.941 164.058 165.46 163.135 165.639Z" fill="#DFDFDF" stroke="#181180" stroke-width="1.5" stroke-miterlimit="10"/>
<path d="M131.391 36.0669L113.854 39.3789C113.854 39.4258 113.89 39.4694 113.9 39.5196C114.047 40.2379 113.89 40.9824 113.463 41.5905C113.036 42.1985 112.376 42.6207 111.624 42.7646L90.9939 46.6593C90.2416 46.7993 89.4619 46.6493 88.8249 46.242C88.1879 45.8348 87.7461 45.2035 87.5948 44.4859C87.5948 44.4357 87.5948 44.3855 87.5948 44.3352L70.0582 47.6473C69.0717 47.8366 68.2041 48.3908 67.6442 49.1889C67.0843 49.9869 66.8782 50.9642 67.0699 51.9071L92.1476 171.08C92.3457 172.021 92.9266 172.85 93.7625 173.385C94.5976 173.919 95.6216 174.116 96.6088 173.933L157.941 162.353C158.928 162.163 159.796 161.609 160.355 160.811C160.915 160.013 161.122 159.035 160.93 158.093L135.853 38.9202C135.654 37.9784 135.074 37.1498 134.238 36.6153C133.402 36.0807 132.379 35.8835 131.391 36.0669Z" fill="white" stroke="#181180" stroke-width="1.5" stroke-linecap="round" stroke-linejoin="round"/>
<path d="M92.5 43C93.881 43 95 42.3284 95 41.5C95 40.6716 93.881 40 92.5 40C91.119 40 90 40.6716 90 41.5C90 42.3284 91.119 43 92.5 43Z" fill="white" stroke="#181180" stroke-width="1.5" stroke-linecap="round" stroke-linejoin="round"/>
<path d="M97 40L108 39" stroke="#181180" stroke-width="1.5" stroke-linecap="round" stroke-linejoin="round"/>
<path d="M64.0095 112.345C64.0095 112.345 63.652 105.425 62.8485 101.221C62.0443 97.0179 60.7208 93.2109 64.949 93.0023C69.1778 92.7945 75.4275 106.445 75.8673 116.01C76.1263 122.008 76.006 128.018 75.5071 134" fill="#9F5B3A"/>
<path d="M64.0095 112.345C64.0095 112.345 63.652 105.425 62.8485 101.221C62.0443 97.0179 60.7208 93.2109 64.949 93.0023C69.1778 92.7945 75.4275 106.445 75.8673 116.01C76.1263 122.008 76.006 128.018 75.5071 134" stroke="#181180" stroke-width="1.5" stroke-linecap="round" stroke-linejoin="round"/>
<path d="M64.2038 110.957C64.2038 110.957 67.1186 111.399 68.5424 109.438C69.9654 107.478 68.1141 98.3983 62.3635 99.0316C62.3635 99.0316 61.8635 99.1391 62.0363 99.9248C62.2091 100.71 63.5133 108.249 63.3914 109.657C63.3914 109.654 63.3914 111.141 64.2038 110.957Z" fill="#CB8263" stroke="#181180" stroke-width="1.5" stroke-linecap="round" stroke-linejoin="round"/>
<path d="M176.814 123.044C176.367 122.665 174 124.786 172 126.736L172.226 129.104C172.27 129.072 172.322 129.047 172.38 129.033H172.482C172.55 129.035 172.617 129.05 172.676 129.079L172.751 129.127C172.822 129.189 172.863 129.27 172.865 129.355C172.866 129.396 172.854 129.438 172.83 129.474C172.814 129.513 172.787 129.548 172.751 129.577L172.704 129.621C172.655 129.671 172.615 129.725 172.581 129.782L172.617 129.718C172.598 129.769 172.564 129.816 172.518 129.853L172.435 129.904C172.394 129.92 172.35 129.929 172.304 129.933L172.408 131C173.988 129.393 175.568 127.587 175.568 127.587C175.568 127.587 177.616 123.726 176.814 123.044Z" fill="#9F5B3A"/>
<path d="M165.278 110.553C165.341 110.677 164.404 114.036 165.655 114C166.905 113.963 170.846 109.217 170.846 109.217C170.846 109.217 171.363 106.691 170.502 106.055C169.642 105.418 165.278 110.553 165.278 110.553Z" fill="#9F5B3A"/>
<path d="M160.231 90.5565C160.284 90.6801 159.504 94.0355 160.546 93.9997C161.587 93.9633 164.872 89.2177 164.872 89.2177C164.872 89.2177 165.303 86.6944 164.586 86.055C163.869 85.4161 160.231 90.5565 160.231 90.5565Z" fill="#9F5B3A"/>
<path d="M148 64C148 64 149.598 66.2398 154 67" stroke="#181180" stroke-width="1.5" stroke-linecap="round" stroke-linejoin="round"/>
<path d="M101 177.449L155 166C153.02 170.61 150.556 174.971 147.654 179L101 177.449Z" fill="#744126" stroke="#181180" stroke-width="1.5" stroke-linecap="round" stroke-linejoin="round"/>
<path d="M153 98.4999L166 89L159.598 97.9941L153.776 102L153 98.4999Z" fill="#744126" stroke="#181180" stroke-width="1.5" stroke-linecap="round" stroke-linejoin="round"/>
<path d="M157 117.987L172 108L161.288 122.145L158.145 123L157 117.987Z" fill="#744126" stroke="#181180" stroke-width="1.5" stroke-linecap="round" stroke-linejoin="round"/>
<path d="M162 138.136L177 125C177 125 173.045 135.476 164.053 147L162 138.136Z" fill="#744126" stroke="#181180" stroke-width="1.5" stroke-linecap="round" stroke-linejoin="round"/>
<path d="M166.855 78.8111C163.718 74.9509 158.275 73.8401 154.7 76.3256L136.927 88.6915C133.353 91.177 133.005 96.3209 136.142 100.18C139.283 104.047 144.738 105.164 148.301 102.672L166.074 90.3061C169.645 87.8179 169.997 82.6767 166.855 78.8111Z" fill="#9F5B3A" stroke="#181180" stroke-width="1.5" stroke-linecap="round" stroke-linejoin="round"/>
<path d="M171.161 99.4173C168.471 95.9562 163.806 94.9583 160.741 97.1913L145.511 108.282C142.446 110.511 142.146 115.123 144.836 118.585C147.529 122.043 152.195 123.041 155.255 120.811L170.49 109.721C173.554 107.491 173.855 102.876 171.161 99.4173Z" fill="#9F5B3A" stroke="#181180" stroke-width="1.5" stroke-linecap="round" stroke-linejoin="round"/>
<path d="M174.612 117.45C171.74 114.649 167.41 114.18 164.941 116.404L152.66 127.456C150.188 129.677 150.515 133.751 153.387 136.548C156.259 139.35 160.589 139.819 163.062 137.598L175.343 126.547C177.811 124.323 177.484 120.252 174.612 117.45Z" fill="#9F5B3A" stroke="#181180" stroke-width="1.5" stroke-linecap="round" stroke-linejoin="round"/>
<path d="M138.582 92.5894C140.124 93.9832 142.562 96.4116 144.184 99.1593C144.323 99.3878 144.51 99.5806 144.733 99.7244C144.956 99.8683 145.209 99.9584 145.471 99.9887C145.733 100.019 145.999 99.988 146.249 99.8986C146.497 99.8084 146.723 99.6632 146.908 99.4718C148.899 97.4158 151.536 93.5771 148.876 89.4486C145.86 84.7661 141.036 87.8731 138.614 89.936C138.425 90.0984 138.271 90.3001 138.166 90.5279C138.059 90.7551 138.003 91.0035 138 91.2548C137.997 91.5067 138.047 91.7559 138.147 91.9858C138.248 92.2163 138.395 92.4221 138.582 92.5894Z" fill="#CB8263" stroke="#181180" stroke-width="1.5" stroke-linecap="round" stroke-linejoin="round"/>
<path d="M146.499 111.616C147.934 112.807 150.302 114.944 151.812 117.373C151.919 117.541 152.064 117.684 152.24 117.791C152.415 117.898 152.614 117.966 152.822 117.99C153.031 118.015 153.242 117.993 153.44 117.93C153.638 117.866 153.818 117.761 153.966 117.622C155.799 115.959 158.497 112.631 155.974 109.046C153.194 105.09 148.727 107.789 146.542 109.509C146.376 109.637 146.242 109.796 146.148 109.976C146.055 110.156 146.005 110.353 146 110.553C145.997 110.753 146.039 110.952 146.125 111.135C146.211 111.318 146.339 111.482 146.499 111.616Z" fill="#CB8263" stroke="#181180" stroke-width="1.5" stroke-linecap="round" stroke-linejoin="round"/>
<path d="M154.53 131.557C156.043 132.947 157.37 134.536 158.476 136.283C158.587 136.476 158.74 136.639 158.923 136.762C159.106 136.885 159.314 136.963 159.531 136.989C159.748 137.016 159.968 136.992 160.175 136.916C160.38 136.842 160.567 136.719 160.719 136.558C162.232 134.945 164.137 132.025 162.139 128.889C159.963 125.472 156.556 127.435 154.622 128.99C154.436 129.143 154.284 129.334 154.177 129.552C154.07 129.769 154.01 130.008 154.001 130.252C153.992 130.495 154.035 130.738 154.126 130.963C154.217 131.188 154.355 131.391 154.53 131.557Z" fill="#CB8263" stroke="#181180" stroke-width="1.5" stroke-linecap="round" stroke-linejoin="round"/>
<path d="M73.4074 183L76 193L70 192.315L73.4074 183Z" fill="#744126" stroke="#181180" stroke-width="1.5" stroke-linecap="round" stroke-linejoin="round"/>
<path d="M108 223.979C110.299 224.045 112.6 223.955 114.885 223.711L115.787 223.326L120 204L109.674 208.048L114.303 211.657L108 223.979Z" fill="#744126" stroke="#181180" stroke-width="1.5" stroke-linecap="round" stroke-linejoin="round"/>
<path d="M220 155L222 159" stroke="#181180" stroke-width="1.5" stroke-miterlimit="10" stroke-linecap="round"/>
<path d="M223 156L219 158" stroke="#181180" stroke-width="1.5" stroke-miterlimit="10" stroke-linecap="round"/>
<path d="M190 53C191.105 53 192 52.3285 192 51.5C192 50.6716 191.105 50 190 50C188.896 50 188 50.6716 188 51.5C188 52.3285 188.896 53 190 53Z" fill="#FFF000" stroke="#181180" stroke-width="1.5" stroke-miterlimit="10"/>
<path d="M104 6.49653L104.564 6.15064C105.18 5.7881 105.745 5.34617 106.245 4.83627C106.769 4.31127 107.208 3.70789 107.544 3.04808C107.697 2.73331 107.822 2.40124 107.962 2.07612C107.973 2.04891 107.988 2.02339 108.007 2C108.243 2.64223 108.548 3.25696 108.919 3.8332C109.315 4.3886 109.776 4.89588 110.291 5.34475C110.823 5.77959 111.395 6.16404 112 6.49305C111.961 6.51729 111.937 6.53806 111.909 6.55188C111.463 6.80215 111.033 7.07943 110.621 7.38201C109.72 8.06067 108.983 8.93184 108.466 9.93122C108.306 10.2425 108.184 10.5745 108.045 10.8996L108 11C107.766 10.3555 107.46 9.73936 107.088 9.16333C106.692 8.60232 106.23 8.09023 105.712 7.63795C105.179 7.20481 104.606 6.82264 104 6.49653Z" fill="#FFF000" stroke="#181180" stroke-width="1.5" stroke-miterlimit="10"/>
<path d="M88.9473 89.2368L85.5124 89.7406L84.9169 90.8644L84 91L86.1644 87.1242L87.014 87L91 89.9732L90.0831 90.1088L88.9473 89.2368ZM88.3549 88.7745L86.701 87.5009L85.8254 89.1484L88.3549 88.7745Z" fill="black"/>
<path d="M96.6574 85.5192L97 86.805L96.3053 87.5744L91.6221 88.2527L92.0511 89.8603L91.1011 90L90 85.8278L95.6332 85L96.6574 85.5192ZM95.7018 85.6582L91.1105 86.3365L91.4531 87.6223L96.0444 86.944L95.7018 85.6582Z" fill="black"/>
<path d="M102.756 84.5286L103 85.8112L102.505 86.5798L99.1692 87.2568L99.4724 88.8613L98.7951 89L98 84.8262L102.016 84L102.756 84.5286ZM102.075 84.6673L98.8011 85.3443L99.0454 86.6269L102.319 85.9499L102.075 84.6673Z" fill="black"/>
<path d="M109 86.9685L108.195 87.1267L107.038 85.7076L104.219 86.2638L104.535 87.8618L103.829 88L103 83.8429L107.302 83L108.073 83.5126L108.328 84.7901L107.811 85.539L109 86.9685ZM107.622 84.9152L107.367 83.6342L103.836 84.3286L104.09 85.6061L107.622 84.9152Z" fill="black"/>
<path d="M109.488 86.4818L109 83.5749L109.44 82.7976L112.855 82L113.515 82.5182L114 85.4293L113.56 86.2024L110.134 87L109.488 86.4818ZM113.41 85.5689L112.922 82.6614L109.604 83.4318L110.09 86.3421L113.41 85.5689Z" fill="black"/>
<path d="M120 81L118.216 85.8424L117.439 86L114 82.2201L114.841 82.0489L117.722 85.3423L119.169 81.1712L120 81Z" fill="black"/>
<path d="M125.873 83.5017L126 84.1595L121.813 85L121 80.8204L125.09 80L125.214 80.6439L121.822 81.3219L122.03 82.3833L125.23 81.7387L125.358 82.3833L122.154 83.0238L122.384 84.2137L125.873 83.5017Z" fill="black"/>
<path d="M125 79.9035L131.21 79L132.236 79.5052L133 82.3422L132.313 83.0965L126.095 84L125 79.9035ZM132.064 82.4654L131.304 79.6311L126.113 80.3821L126.877 83.2191L132.064 82.4654Z" fill="black"/>
<path d="M133 78.1612L133.929 78L134.578 81.2968L133.817 81.4306L133 78.1612ZM133.889 82.1818L134.814 82.0166L135 82.8388L134.071 83L133.889 82.1818Z" fill="black"/>
<path d="M120.179 107.16L123.258 105.2C123.393 105.114 123.545 105.053 123.706 105.023C123.866 104.992 124.033 104.992 124.193 105.023C124.354 105.054 124.506 105.114 124.64 105.201C124.775 105.288 124.888 105.398 124.974 105.527L126.915 108.467C127.042 108.66 127.23 108.812 127.454 108.903C127.678 108.995 127.927 109.022 128.168 108.98L131.853 108.327C132.015 108.298 132.182 108.299 132.344 108.332C132.505 108.364 132.657 108.427 132.791 108.516C132.924 108.604 133.037 108.717 133.121 108.847C133.206 108.977 133.26 109.121 133.28 109.271L133.745 112.682C133.776 112.905 133.881 113.114 134.045 113.282C134.21 113.448 134.426 113.566 134.665 113.617L138.319 114.398C138.479 114.431 138.63 114.495 138.762 114.585C138.894 114.674 139.004 114.788 139.087 114.918C139.169 115.048 139.221 115.192 139.24 115.342C139.259 115.491 139.244 115.643 139.196 115.787L138.109 119.077C138.037 119.292 138.038 119.522 138.114 119.736C138.188 119.949 138.334 120.137 138.529 120.273L141.523 122.348C141.654 122.438 141.764 122.553 141.844 122.683C141.926 122.814 141.976 122.958 141.993 123.108C142.011 123.258 141.995 123.409 141.945 123.552C141.896 123.696 141.816 123.828 141.709 123.942L139.25 126.556C139.089 126.727 138.99 126.938 138.964 127.161C138.939 127.385 138.989 127.611 139.107 127.808L140.92 130.817C140.999 130.949 141.047 131.095 141.063 131.244C141.078 131.394 141.06 131.544 141.009 131.688C140.958 131.83 140.876 131.962 140.767 132.075C140.659 132.188 140.526 132.279 140.377 132.343L136.981 133.804C136.758 133.899 136.573 134.054 136.45 134.249C136.326 134.443 136.271 134.668 136.292 134.892L136.609 138.319C136.624 138.469 136.604 138.62 136.552 138.762C136.5 138.904 136.417 139.036 136.307 139.147C136.197 139.259 136.063 139.348 135.914 139.411C135.765 139.473 135.604 139.506 135.439 139.509L131.686 139.577C131.44 139.582 131.203 139.655 131.004 139.787C130.806 139.919 130.656 140.104 130.576 140.316L129.345 143.564C129.292 143.706 129.207 143.837 129.095 143.948C128.985 144.06 128.85 144.149 128.699 144.21C128.549 144.271 128.386 144.303 128.222 144.305C128.057 144.306 127.895 144.277 127.743 144.218L124.286 142.881C124.06 142.795 123.81 142.773 123.57 142.82C123.33 142.867 123.112 142.979 122.944 143.142L120.375 145.652C120.263 145.762 120.128 145.849 119.977 145.91C119.826 145.969 119.664 146 119.499 146C119.335 146 119.172 145.969 119.021 145.91C118.871 145.849 118.735 145.762 118.623 145.652L116.058 143.142C115.889 142.98 115.67 142.867 115.432 142.821C115.192 142.774 114.943 142.795 114.716 142.881L111.255 144.218C111.104 144.277 110.941 144.306 110.777 144.305C110.612 144.303 110.45 144.27 110.301 144.21C110.15 144.148 110.016 144.059 109.905 143.948C109.794 143.837 109.71 143.706 109.656 143.564L108.425 140.316C108.344 140.104 108.194 139.92 107.995 139.787C107.797 139.655 107.558 139.582 107.313 139.577L103.559 139.509C103.395 139.506 103.234 139.472 103.084 139.41C102.935 139.347 102.802 139.257 102.693 139.146C102.583 139.034 102.499 138.904 102.447 138.762C102.394 138.619 102.375 138.469 102.389 138.319L102.706 134.892C102.727 134.668 102.672 134.444 102.549 134.25C102.427 134.055 102.243 133.899 102.021 133.804L98.6206 132.343C98.4718 132.279 98.3391 132.188 98.2306 132.075C98.1221 131.962 98.04 131.83 97.9894 131.687C97.9388 131.544 97.9212 131.393 97.9374 131.243C97.9528 131.094 98.0019 130.949 98.0818 130.817L99.891 127.808C100.01 127.611 100.06 127.385 100.034 127.161C100.008 126.938 99.9086 126.727 99.7481 126.556L97.293 123.942C97.186 123.829 97.1046 123.696 97.0555 123.553C97.0063 123.41 96.9895 123.258 97.0063 123.109C97.0239 122.959 97.0738 122.815 97.1544 122.684C97.2351 122.553 97.3443 122.438 97.4755 122.348L100.469 120.273C100.664 120.137 100.81 119.949 100.886 119.736C100.962 119.522 100.964 119.292 100.893 119.077L99.8228 115.787C99.7752 115.643 99.7605 115.491 99.7788 115.342C99.7972 115.193 99.8492 115.049 99.9313 114.919C100.013 114.788 100.123 114.675 100.255 114.585C100.387 114.496 100.538 114.432 100.697 114.398L104.355 113.617C104.594 113.566 104.809 113.448 104.973 113.282C105.138 113.114 105.242 112.905 105.272 112.682L105.739 109.271C105.759 109.121 105.814 108.976 105.897 108.846C105.981 108.716 106.094 108.603 106.228 108.514C106.362 108.426 106.514 108.364 106.676 108.331C106.837 108.299 107.004 108.297 107.166 108.327L110.852 108.98C111.093 109.022 111.343 108.996 111.567 108.904C111.792 108.812 111.98 108.66 112.108 108.467L114.049 105.527C114.134 105.398 114.248 105.288 114.382 105.201C114.515 105.114 114.668 105.054 114.828 105.023C114.989 104.993 115.154 104.992 115.315 105.023C115.475 105.053 115.627 105.114 115.761 105.2L118.841 107.16C119.039 107.281 119.272 107.345 119.51 107.345C119.748 107.345 119.98 107.281 120.179 107.16Z" fill="#FFF000" stroke="#181180" stroke-width="1.5" stroke-miterlimit="10"/>
<path d="M110 129.031L115.871 132L124 115" stroke="#181180" stroke-width="1.5" stroke-miterlimit="10"/>
<path d="M36.5001 92C45.0606 92 52 85.2838 52 76.9997C52 68.7155 45.0606 62 36.5001 62C27.9396 62 21 68.7155 21 76.9997C21 85.2838 27.9396 92 36.5001 92Z" fill="#0028F4" stroke="#0028F4" stroke-width="1.5" stroke-linecap="round" stroke-linejoin="round"/>
<path d="M36.4998 91C45.0604 91 52 84.2841 52 76.0004C52 67.7159 45.0604 61 36.4998 61C27.9395 61 21 67.7159 21 76.0004C21 84.2841 27.9395 91 36.4998 91Z" fill="#FFF000" stroke="#0C23F4" stroke-width="1.5" stroke-linecap="round" stroke-linejoin="round"/>
<path d="M40.6682 69C41.3436 69.7437 42.074 70.5671 42.8238 71.3693C43.2213 71.7962 42.8529 72.0029 42.6299 72.24C39.4929 75.6006 36.3419 78.9578 33.1769 82.3114C32.941 82.5633 32.6953 82.8039 32.5143 83L30 80.3802C33.5162 76.6237 37.0518 72.8531 40.6682 69Z" stroke="#0C23F4" stroke-width="1.5" stroke-linecap="round" stroke-linejoin="round"/>
<path d="M34 84.4463L44.6189 73L47 75.5782L36.3687 87L34 84.4463Z" stroke="#0C23F4" stroke-width="1.5" stroke-linecap="round" stroke-linejoin="round"/>
<path d="M32.3887 74L30 71.6346L36.605 65L39 67.3647L32.3887 74Z" stroke="#0C23F4" stroke-width="1.5" stroke-linecap="round" stroke-linejoin="round"/>
<path d="M28.5034 79L26 76.0485L28.4764 73L31 76.0485L28.5034 79Z" stroke="#0C23F4" stroke-width="1.5" stroke-linecap="round" stroke-linejoin="round"/>
<path d="M30.3845 127.246C32.8547 120.1 32.4464 113.749 29.4727 113.061C26.4989 112.373 22.0857 117.608 19.6155 124.754C17.1453 131.9 17.5536 138.251 20.5274 138.939C23.5012 139.627 27.9144 134.392 30.3845 127.246Z" fill="#0C23F4" stroke="#0C23F4" stroke-width="1.5" stroke-linecap="round" stroke-linejoin="round"/>
<path d="M31.6255 127.691C33.736 120.82 33.376 114.716 30.8214 114.058C28.2668 113.4 24.485 118.437 22.3745 125.309C20.264 132.18 20.624 138.284 23.1786 138.942C25.7333 139.6 29.5151 134.563 31.6255 127.691Z" fill="#FFF000" stroke="#0C23F4" stroke-width="1.49587" stroke-linecap="round" stroke-linejoin="round"/>
<path d="M181 113H188" stroke="#0C23F4" stroke-width="1.5" stroke-linecap="round" stroke-linejoin="round"/>
<path d="M184 104V107" stroke="#0C23F4" stroke-width="1.5" stroke-linecap="round" stroke-linejoin="round"/>
<path d="M186 104V107" stroke="#0C23F4" stroke-width="1.5" stroke-linecap="round" stroke-linejoin="round"/>
<path d="M183 122V124" stroke="#0C23F4" stroke-width="1.5" stroke-linecap="round" stroke-linejoin="round"/>
<path d="M186 122V124" stroke="#0C23F4" stroke-width="1.5" stroke-linecap="round" stroke-linejoin="round"/>
<path d="M190 108.335L188.556 107.148L181.401 107L181 121.849L188.18 122L189.659 120.893L189.801 115.521L188.176 114.129L189.87 113.115L190 108.335Z" stroke="#0C23F4" stroke-width="1.5" stroke-linecap="round" stroke-linejoin="round"/>
<path d="M82.8586 67.9304C82.3002 68.0268 81.7446 68.0517 81.1917 68.0052C80.6388 67.9586 80.1754 67.8493 79.8014 67.6771L80.1571 66.1346C80.5061 66.284 80.8967 66.3856 81.3287 66.4395C81.7607 66.4934 82.1738 66.4863 82.568 66.4183C83.3169 66.289 83.6543 66.038 83.5802 65.6653C83.5411 65.4691 83.4041 65.344 83.1691 65.2899C82.9394 65.2281 82.5776 65.1857 82.0838 65.1628C81.5427 65.1412 81.0857 65.0984 80.7128 65.0343C80.3386 64.9637 79.9987 64.8093 79.6932 64.5712C79.3876 64.3332 79.1873 63.9755 79.0924 63.4982C79.0091 63.0797 79.0493 62.6839 79.2129 62.3108C79.3752 61.931 79.6634 61.604 80.0777 61.3296C80.4986 61.054 81.0407 60.8589 81.7042 60.7444C82.1575 60.6661 82.6147 60.6413 83.0756 60.6699C83.5353 60.692 83.9522 60.7721 84.3262 60.9105L84.0119 62.456C83.2848 62.2163 82.6124 62.1498 81.9949 62.2565C81.6073 62.3234 81.3365 62.431 81.1825 62.5793C81.0273 62.7211 80.9678 62.8835 81.0043 63.0666C81.0407 63.2497 81.1731 63.3689 81.4016 63.4241C81.63 63.4793 81.9872 63.5157 82.4731 63.5333C83.0208 63.5537 83.4784 63.5998 83.8461 63.6716C84.219 63.7357 84.5582 63.8868 84.8638 64.1248C85.1746 64.3552 85.3775 64.709 85.4725 65.1863C85.5544 65.5983 85.5136 65.9908 85.35 66.364C85.1864 66.7372 84.8948 67.0648 84.4753 67.3469C84.0545 67.6225 83.5156 67.8169 82.8586 67.9304ZM89.9976 66.6977C88.9728 66.8747 88.1193 66.7346 87.4372 66.2775C86.7616 65.8193 86.3224 65.0802 86.1195 64.0602L85.3624 60.2547L87.3136 59.9178L88.0589 63.6644C88.2774 64.7629 88.8236 65.2367 89.6973 65.0858C90.5645 64.9361 90.8888 64.312 90.6703 63.2135L89.9249 59.4669L91.8465 59.1351L92.6035 62.9406C92.8065 63.9606 92.6774 64.7978 92.2164 65.4523C91.762 66.1056 91.0224 66.5207 89.9976 66.6977ZM98.0005 65.3158C97.2778 65.4406 96.5976 65.4025 95.9596 65.2016C95.3269 64.993 94.7924 64.6457 94.3559 64.1597C93.9195 63.6737 93.633 63.0874 93.4964 62.4009C93.3598 61.7143 93.4018 61.0714 93.6223 60.4719C93.8428 59.8725 94.2089 59.3731 94.7206 58.9736C95.2376 58.5665 95.8574 58.3005 96.5801 58.1758C97.2107 58.0669 97.8011 58.0799 98.3512 58.2149C98.9012 58.3498 99.3854 58.5976 99.8037 58.9582L98.7845 60.2907C98.2311 59.8317 97.6358 59.6572 96.9986 59.7672C96.6241 59.8319 96.3053 59.9715 96.0422 60.186C95.7857 60.3994 95.6052 60.6706 95.5008 60.9997C95.4017 61.3212 95.3905 61.6748 95.4672 62.0606C95.544 62.4464 95.6911 62.776 95.9086 63.0496C96.1314 63.3154 96.4036 63.5052 96.7251 63.6187C97.0533 63.7311 97.4046 63.755 97.779 63.6903C98.4163 63.5803 98.9049 63.2187 99.245 62.6054L100.709 63.5091C100.457 63.9854 100.101 64.3784 99.6389 64.688C99.1773 64.9977 98.6312 65.2069 98.0005 65.3158ZM105.131 64.0846C104.409 64.2093 103.728 64.1713 103.09 63.9703C102.458 63.7617 101.923 63.4144 101.487 62.9284C101.05 62.4424 100.764 61.8562 100.627 61.1696C100.491 60.4831 100.533 59.8401 100.753 59.2407C100.974 58.6413 101.34 58.1418 101.851 57.7424C102.368 57.3352 102.988 57.0693 103.711 56.9445C104.342 56.8356 104.932 56.8486 105.482 56.9836C106.032 57.1186 106.516 57.3663 106.935 57.727L105.915 59.0594C105.362 58.6004 104.767 58.4259 104.129 58.536C103.755 58.6006 103.436 58.7402 103.173 58.9547C102.917 59.1681 102.736 59.4393 102.632 59.7685C102.533 60.0899 102.521 60.4435 102.598 60.8293C102.675 61.2151 102.822 61.5447 103.039 61.8183C103.262 62.0842 103.534 62.2739 103.856 62.3874C104.184 62.4999 104.535 62.5237 104.91 62.4591C105.547 62.349 106.036 61.9874 106.376 61.3741L107.84 62.2778C107.588 62.7541 107.231 63.1471 106.77 63.4567C106.308 63.7664 105.762 63.9757 105.131 64.0846ZM114.18 60.828L114.478 62.3286L108.94 63.2849L107.574 56.4194L112.984 55.4853L113.283 56.9859L109.804 57.5865L110.034 58.7438L113.099 58.2147L113.388 59.6662L110.323 60.1954L110.573 61.4508L114.18 60.828ZM118.012 61.8604C117.454 61.9568 116.898 61.9818 116.345 61.9352C115.792 61.8886 115.329 61.7793 114.955 61.6072L115.311 60.0646C115.66 60.214 116.05 60.3157 116.482 60.3696C116.914 60.4235 117.327 60.4164 117.722 60.3483C118.471 60.219 118.808 59.968 118.734 59.5953C118.695 59.3991 118.558 59.274 118.323 59.2199C118.093 59.1581 117.731 59.1158 117.237 59.0928C116.696 59.0713 116.239 59.0285 115.866 58.9643C115.492 58.8937 115.152 58.7393 114.847 58.5013C114.541 58.2632 114.341 57.9056 114.246 57.4282C114.163 57.0098 114.203 56.614 114.367 56.2408C114.529 55.8611 114.817 55.534 115.231 55.2596C115.652 54.984 116.194 54.789 116.858 54.6744C117.311 54.5961 117.768 54.5713 118.229 54.5999C118.689 54.622 119.106 54.7022 119.48 54.8405L119.166 56.386C118.438 56.1464 117.766 56.0799 117.148 56.1865C116.761 56.2534 116.49 56.3611 116.336 56.5094C116.181 56.6512 116.121 56.8136 116.158 56.9967C116.194 57.1797 116.327 57.2989 116.555 57.3541C116.784 57.4094 117.141 57.4458 117.627 57.4633C118.174 57.4837 118.632 57.5298 119 57.6016C119.373 57.6657 119.712 57.8168 120.017 58.0548C120.328 58.2852 120.531 58.6391 120.626 59.1164C120.708 59.5283 120.667 59.9209 120.504 60.294C120.34 60.6672 120.048 60.9948 119.629 61.2769C119.208 61.5525 118.669 61.747 118.012 61.8604ZM124.392 60.7588C123.834 60.8552 123.278 60.8801 122.726 60.8335C122.173 60.787 121.709 60.6776 121.335 60.5055L121.691 58.963C122.04 59.1123 122.431 59.214 122.863 59.2679C123.295 59.3218 123.708 59.3147 124.102 59.2467C124.851 59.1173 125.188 58.8663 125.114 58.4936C125.075 58.2975 124.938 58.1723 124.703 58.1182C124.473 58.0565 124.111 58.0141 123.618 57.9912C123.077 57.9696 122.62 57.9268 122.247 57.8627C121.872 57.792 121.533 57.6377 121.227 57.3996C120.921 57.1616 120.721 56.8039 120.626 56.3266C120.543 55.9081 120.583 55.5123 120.747 55.1391C120.909 54.7594 121.197 54.4324 121.612 54.1579C122.032 53.8824 122.575 53.6873 123.238 53.5727C123.691 53.4945 124.148 53.4696 124.609 53.4983C125.069 53.5203 125.486 53.6005 125.86 53.7388L125.546 55.2844C124.819 55.0447 124.146 54.9782 123.529 55.0848C123.141 55.1518 122.87 55.2594 122.716 55.4077C122.561 55.5495 122.502 55.7119 122.538 55.895C122.575 56.0781 122.707 56.1972 122.935 56.2525C123.164 56.3077 123.521 56.3441 124.007 56.3616C124.555 56.3821 125.012 56.4282 125.38 56.4999C125.753 56.5641 126.092 56.7151 126.398 56.9532C126.708 57.1836 126.911 57.5374 127.006 58.0147C127.088 58.4267 127.047 58.8192 126.884 59.1924C126.72 59.5655 126.429 59.8932 126.009 60.1753C125.588 60.4508 125.049 60.6453 124.392 60.7588ZM87.3379 75.4857C87.7594 75.555 88.1111 75.7175 88.393 75.9731C88.6736 76.2222 88.8549 76.5528 88.9368 76.9647C89.0565 77.5662 88.9058 78.0725 88.4847 78.4833C88.0636 78.8942 87.3932 79.179 86.4734 79.3378L82.7485 79.981L81.3827 73.1155L84.9105 72.5064C85.7908 72.3544 86.4935 72.4022 87.0184 72.6497C87.542 72.8907 87.8584 73.2858 87.9676 73.835C88.0327 74.1619 88.0091 74.4704 87.8969 74.7603C87.79 75.0425 87.6036 75.2843 87.3379 75.4857ZM83.5932 74.1846L83.8566 75.5086L85.1968 75.2772C85.8537 75.1638 86.1379 74.8848 86.0495 74.4401C85.9623 74.002 85.5903 73.8397 84.9333 73.9532L83.5932 74.1846ZM86.0367 77.9625C86.72 77.8446 87.0154 77.5535 86.9231 77.0892C86.8307 76.625 86.4429 76.4519 85.7597 76.5698L84.1239 76.8523L84.401 78.245L86.0367 77.9625ZM92.9745 76.3284L91.9102 76.5121L92.2732 78.3364L90.322 78.6733L88.9562 71.8078L92.1096 71.2634C92.7337 71.1556 93.2964 71.1666 93.7979 71.2965C94.2981 71.4197 94.7114 71.6527 95.0378 71.9954C95.3629 72.3315 95.5768 72.7579 95.6796 73.2744C95.7784 73.7713 95.7467 74.2266 95.5843 74.6401C95.4272 75.046 95.1527 75.3909 94.7607 75.675L96.678 77.5758L94.5889 77.9365L92.9745 76.3284ZM93.7087 73.6147C93.645 73.2943 93.4937 73.0634 93.255 72.9221C93.0162 72.7807 92.6964 72.7446 92.2957 72.8138L91.2117 73.001L91.6117 75.0116L92.6957 74.8244C93.0964 74.7552 93.3817 74.618 93.5515 74.4128C93.7201 74.2011 93.7725 73.9351 93.7087 73.6147ZM101.122 76.9505C100.393 77.0764 99.7055 77.0361 99.0597 76.8298C98.4205 76.6223 97.8794 76.2761 97.4363 75.7913C96.9999 75.3053 96.7141 74.7223 96.5788 74.0423C96.4435 73.3623 96.4861 72.7226 96.7066 72.1232C96.9337 71.5226 97.3057 71.0188 97.8227 70.6116C98.3462 70.2034 98.9726 69.9363 99.7018 69.8104C100.431 69.6845 101.115 69.7252 101.755 69.9327C102.4 70.1391 102.941 70.4853 103.378 70.9712C103.821 71.4561 104.11 72.0385 104.245 72.7185C104.381 73.3985 104.335 74.0388 104.108 74.6394C103.887 75.2388 103.515 75.7426 102.992 76.1509C102.475 76.558 101.851 76.8245 101.122 76.9505ZM100.802 75.342C101.15 75.2819 101.45 75.1457 101.7 74.9334C101.949 74.7212 102.127 74.4538 102.233 74.1312C102.337 73.8021 102.351 73.4446 102.274 73.0588C102.198 72.6731 102.048 72.3472 101.825 72.0814C101.601 71.8089 101.332 71.6154 101.017 71.5007C100.702 71.386 100.37 71.3587 100.022 71.4189C99.6736 71.479 99.3746 71.6152 99.1246 71.8274C98.8746 72.0396 98.6974 72.3103 98.593 72.6395C98.4873 72.962 98.4729 73.3162 98.5496 73.702C98.6264 74.0878 98.7768 74.4169 99.0008 74.6893C99.2236 74.9552 99.4925 75.1454 99.8075 75.2601C100.123 75.3748 100.454 75.4021 100.802 75.342ZM108.115 73.0242L107.54 73.9249L107.882 75.6413L105.95 75.9748L104.584 69.1093L106.516 68.7758L107.084 71.6299L109.186 68.3147L111.334 67.9438L109.121 71.4709L112.848 74.7837L110.582 75.1751L108.115 73.0242ZM118.6 72.2385L118.898 73.7391L113.36 74.6953L111.994 67.8299L117.404 66.8957L117.703 68.3963L114.224 68.997L114.454 70.1543L117.519 69.6251L117.808 71.0767L114.743 71.6059L114.993 72.8613L118.6 72.2385ZM122.633 71.2072L121.569 71.391L121.932 73.2152L119.981 73.5521L118.615 66.6867L121.768 66.1422C122.392 66.0344 122.955 66.0455 123.457 66.1753C123.957 66.2986 124.37 66.5316 124.697 66.8742C125.022 67.2104 125.236 67.6367 125.338 68.1532C125.437 68.6502 125.405 69.1054 125.243 69.5189C125.086 69.9248 124.811 70.2698 124.42 70.5539L126.337 72.4547L124.248 72.8154L122.633 71.2072ZM123.367 68.4935C123.304 68.1732 123.152 67.9423 122.914 67.8009C122.675 67.6595 122.355 67.6234 121.954 67.6926L120.87 67.8798L121.27 69.8904L122.354 69.7032C122.755 69.634 123.04 69.4968 123.21 69.2917C123.379 69.08 123.431 68.8139 123.367 68.4935ZM129.727 72.0114C129.168 72.1078 128.613 72.1327 128.06 72.0861C127.507 72.0396 127.043 71.9302 126.669 71.7581L127.025 70.2156C127.374 70.3649 127.765 70.4666 128.197 70.5205C128.629 70.5744 129.042 70.5673 129.436 70.4992C130.185 70.3699 130.522 70.1189 130.448 69.7462C130.409 69.5501 130.272 69.4249 130.037 69.3708C129.807 69.3091 129.446 69.2667 128.952 69.2438C128.411 69.2222 127.954 69.1794 127.581 69.1153C127.207 69.0446 126.867 68.8903 126.561 68.6522C126.256 68.4142 126.055 68.0565 125.96 67.5792C125.877 67.1607 125.917 66.7649 126.081 66.3917C126.243 66.012 126.531 65.6849 126.946 65.4105C127.367 65.135 127.909 64.9399 128.572 64.8253C129.026 64.7471 129.483 64.7222 129.944 64.7508C130.403 64.7729 130.82 64.8531 131.194 64.9914L130.88 66.537C130.153 66.2973 129.48 66.2308 128.863 66.3374C128.475 66.4044 128.205 66.512 128.051 66.6603C127.895 66.8021 127.836 66.9645 127.872 67.1476C127.909 67.3307 128.041 67.4498 128.27 67.5051C128.498 67.5603 128.855 67.5967 129.341 67.6142C129.889 67.6347 130.346 67.6807 130.714 67.7525C131.087 67.8166 131.426 67.9677 131.732 68.2058C132.043 68.4362 132.246 68.79 132.34 69.2673C132.422 69.6792 132.382 70.0718 132.218 70.445C132.054 70.8181 131.763 71.1458 131.343 71.4279C130.922 71.7034 130.384 71.8979 129.727 72.0114Z" fill="black"/>
<path d="M81.1917 68.0052L81.2224 67.5092L81.2224 67.5092L81.1917 68.0052ZM79.8014 67.6771L79.3116 67.5554L79.2199 67.9533L79.5988 68.1277L79.8014 67.6771ZM80.1571 66.1346L80.3469 65.6784L79.7985 65.4437L79.6673 66.0129L80.1571 66.1346ZM81.3287 66.4395L81.3798 65.9457L81.3798 65.9457L81.3287 66.4395ZM83.1691 65.2899L83.0483 65.77L83.0574 65.7724L83.0665 65.7745L83.1691 65.2899ZM82.0838 65.1628L82.0954 64.6656L82.0921 64.6655L82.0838 65.1628ZM80.7128 65.0343L80.6301 65.5232L80.6384 65.5246L80.7128 65.0343ZM79.2129 62.3108L79.6743 62.5181L79.6761 62.514L79.2129 62.3108ZM80.0777 61.3296L79.794 60.9123L79.7918 60.9138L80.0777 61.3296ZM83.0756 60.6699L83.0561 61.1667L83.0632 61.167L83.0756 60.6699ZM84.3262 60.9105L84.8187 61.0198L84.9046 60.5972L84.492 60.4446L84.3262 60.9105ZM84.0119 62.456L83.8637 62.9279L84.3951 63.103L84.5044 62.5654L84.0119 62.456ZM81.1825 62.5793L81.5277 62.9491L81.537 62.9402L81.1825 62.5793ZM81.4016 63.4241L81.2934 63.9075L81.2934 63.9075L81.4016 63.4241ZM82.4731 63.5333L82.4801 63.0359L82.4795 63.0359L82.4731 63.5333ZM83.8461 63.6716L83.7602 64.1599L83.7716 64.1619L83.8461 63.6716ZM84.8638 64.1248L84.5591 64.5134L84.5691 64.5208L84.8638 64.1248ZM85.35 66.364L84.8885 66.1567L84.8885 66.1567L85.35 66.364ZM84.4753 67.3469L84.7591 67.7641L84.764 67.7608L84.4753 67.3469ZM82.7611 67.44C82.2437 67.5293 81.7312 67.5521 81.2224 67.5092L81.161 68.5011C81.758 68.5514 82.3567 68.5243 82.9562 68.4208L82.7611 67.44ZM81.2224 67.5092C80.7092 67.466 80.3081 67.3666 80.004 67.2266L79.5988 68.1277C80.0427 68.332 80.5685 68.4512 81.161 68.5011L81.2224 67.5092ZM80.2912 67.7989L80.6468 66.2563L79.6673 66.0129L79.3116 67.5554L80.2912 67.7989ZM79.9672 66.5908C80.3668 66.7618 80.805 66.8743 81.2776 66.9333L81.3798 65.9457C80.9884 65.8969 80.6455 65.8062 80.3469 65.6784L79.9672 66.5908ZM81.2776 66.9333C81.7553 66.9929 82.2187 66.9858 82.6656 66.9087L82.4704 65.9279C82.129 65.9868 81.7662 65.9939 81.3798 65.9457L81.2776 66.9333ZM82.6656 66.9087C83.0652 66.8397 83.4289 66.7281 83.6903 66.5336C83.8273 66.4317 83.9492 66.2973 84.0227 66.1232C84.0976 65.9457 84.1085 65.7592 84.0729 65.5802L83.0874 65.7503C83.0889 65.7577 83.0854 65.7423 83.0945 65.7207C83.1022 65.7026 83.1068 65.7089 83.0751 65.7325C82.9992 65.789 82.8197 65.8676 82.4704 65.9279L82.6656 66.9087ZM84.0729 65.5802C84.0343 65.3862 83.9406 65.2052 83.7838 65.062C83.6323 64.9236 83.4503 64.8463 83.2717 64.8052L83.0665 65.7745C83.1229 65.7875 83.127 65.7998 83.1125 65.7866C83.1051 65.7799 83.0978 65.7707 83.0924 65.7609C83.0872 65.7514 83.0867 65.7466 83.0874 65.7503L84.0729 65.5802ZM83.2899 64.8097C83.0035 64.7327 82.5953 64.6888 82.0954 64.6656L82.0721 65.66C82.5599 65.6826 82.8752 65.7235 83.0483 65.77L83.2899 64.8097ZM82.0921 64.6655C81.5645 64.6445 81.1311 64.6031 80.7872 64.544L80.6384 65.5246C81.0403 65.5937 81.5209 65.638 82.0755 65.6601L82.0921 64.6655ZM80.7955 64.5455C80.5031 64.4902 80.2392 64.3708 79.9978 64.1828L79.3886 64.9597C79.7583 65.2478 80.1742 65.4371 80.6301 65.5231L80.7955 64.5455ZM79.9978 64.1828C79.8138 64.0395 79.6629 63.8044 79.5851 63.4131L78.5997 63.5833C78.7117 64.1466 78.9613 64.6269 79.3886 64.9597L79.9978 64.1828ZM79.5851 63.4131C79.5208 63.0901 79.5523 62.7965 79.6743 62.5181L78.7514 62.1034C78.5463 62.5713 78.4974 63.0694 78.5997 63.5833L79.5851 63.4131ZM79.6761 62.514C79.7945 62.2369 80.0122 61.9782 80.3636 61.7454L79.7918 60.9138C79.3147 61.2298 78.9558 61.6252 78.7497 62.1075L79.6761 62.514ZM80.3615 61.7468C80.7111 61.5179 81.1844 61.3414 81.8018 61.2348L81.6067 60.254C80.8971 60.3765 80.286 60.5901 79.794 60.9123L80.3615 61.7468ZM81.8018 61.2348C82.2166 61.1631 82.6344 61.1404 83.0561 61.1666L83.0952 60.1731C82.5949 60.1421 82.0985 60.1691 81.6067 60.254L81.8018 61.2348ZM83.0632 61.167C83.4788 61.187 83.8429 61.2589 84.1605 61.3763L84.492 60.4446C84.0614 60.2854 83.5918 60.1969 83.0881 60.1727L83.0632 61.167ZM83.8338 60.8011L83.5195 62.3466L84.5044 62.5654L84.8187 61.0198L83.8338 60.8011ZM84.1602 61.9841C83.3699 61.7236 82.612 61.6427 81.8973 61.7661L82.0924 62.7469C82.6128 62.657 83.1996 62.7091 83.8637 62.9279L84.1602 61.9841ZM81.8973 61.7661C81.4813 61.8379 81.0894 61.9667 80.8281 62.2185L81.537 62.9402C81.5836 62.8953 81.7333 62.8089 82.0924 62.7469L81.8973 61.7661ZM80.8375 62.2097C80.5774 62.4471 80.4364 62.7741 80.5116 63.1517L81.497 62.9816C81.4958 62.9755 81.4963 62.9746 81.4961 62.9776C81.4959 62.9809 81.4951 62.9843 81.4942 62.9868C81.4921 62.9925 81.495 62.9787 81.5276 62.949L80.8375 62.2097ZM80.5116 63.1517C80.5497 63.3437 80.6443 63.5198 80.7981 63.6582C80.9457 63.7909 81.1219 63.866 81.2934 63.9075L81.5097 62.9407C81.4528 62.927 81.4486 62.9148 81.4637 62.9284C81.4717 62.9356 81.4806 62.9461 81.4877 62.9589C81.4946 62.9713 81.4967 62.9801 81.497 62.9816L80.5116 63.1517ZM81.2934 63.9075C81.5747 63.9755 81.9749 64.0129 82.4667 64.0307L82.4795 63.0359C81.9994 63.0186 81.6852 62.9832 81.5097 62.9407L81.2934 63.9075ZM82.4661 64.0306C82.9984 64.0505 83.4276 64.0949 83.7602 64.1598L83.9319 63.1833C83.5292 63.1047 83.0432 63.0569 82.4801 63.0359L82.4661 64.0306ZM83.7716 64.1619C84.0592 64.2113 84.3195 64.3266 84.5592 64.5133L85.1684 63.7363C84.7968 63.4469 84.3788 63.26 83.9205 63.1812L83.7716 64.1619ZM84.5691 64.5208C84.7514 64.656 84.9024 64.8827 84.9797 65.2714L85.9652 65.1013C85.8526 64.5353 85.5978 64.0544 85.1584 63.7288L84.5691 64.5208ZM84.9797 65.2714C85.0424 65.5862 85.0113 65.8767 84.8885 66.1567L85.8114 66.5713C86.0159 66.105 86.0664 65.6103 85.9652 65.1013L84.9797 65.2714ZM84.8885 66.1567C84.7695 66.4281 84.548 66.6899 84.1866 66.933L84.764 67.7608C85.2417 67.4397 85.6032 67.0462 85.8114 66.5713L84.8885 66.1567ZM84.1915 66.9297C83.8414 67.1589 83.3712 67.3346 82.7611 67.44L82.9562 68.4208C83.66 68.2992 84.2675 68.086 84.7591 67.7641L84.1915 66.9297ZM87.4372 66.2775L87.1602 66.6861L87.1626 66.6877L87.4372 66.2775ZM85.3624 60.2547L85.2649 59.7643L84.7722 59.8494L84.8697 60.3398L85.3624 60.2547ZM87.3136 59.9178L87.8063 59.8328L87.7087 59.3424L87.216 59.4274L87.3136 59.9178ZM89.9249 59.4669L89.8274 58.9765L89.3347 59.0616L89.4322 59.552L89.9249 59.4669ZM91.8465 59.1351L92.3392 59.0501L92.2416 58.5597L91.7489 58.6447L91.8465 59.1351ZM92.2164 65.4523L91.8023 65.161L91.8007 65.1633L92.2164 65.4523ZM89.9 66.2073C88.9659 66.3686 88.2553 66.2316 87.7117 65.8673L87.1626 66.6877C87.9832 67.2376 88.9796 67.3807 90.0951 67.1881L89.9 66.2073ZM87.7141 65.8689C87.1805 65.507 86.797 64.9038 86.6122 63.9751L85.6268 64.1452C85.8478 65.2565 86.3427 66.1316 87.1602 66.6861L87.7141 65.8689ZM86.6122 63.9751L85.8552 60.1697L84.8697 60.3398L85.6268 64.1452L86.6122 63.9751ZM85.46 60.7451L87.4111 60.4082L87.216 59.4274L85.2649 59.7643L85.46 60.7451ZM86.8209 60.0029L87.5662 63.7495L88.5516 63.5793L87.8063 59.8328L86.8209 60.0029ZM87.5662 63.7495C87.6857 64.3502 87.9106 64.8711 88.3067 65.2147C88.7244 65.5771 89.2475 65.6707 89.7949 65.5762L89.5997 64.5954C89.2734 64.6518 89.0865 64.5839 88.9582 64.4725C88.8081 64.3423 88.6506 64.0771 88.5516 63.5793L87.5662 63.7495ZM89.7949 65.5762C90.3403 65.482 90.7902 65.2195 91.0386 64.7415C91.2737 64.2891 91.2824 63.7285 91.163 63.1284L90.1776 63.2986C90.2767 63.7969 90.2324 64.0977 90.1432 64.2694C90.0673 64.4155 89.9215 64.5399 89.5997 64.5954L89.7949 65.5762ZM91.163 63.1284L90.4176 59.3818L89.4322 59.552L90.1776 63.2986L91.163 63.1284ZM90.0225 59.9573L91.944 59.6255L91.7489 58.6447L89.8274 58.9765L90.0225 59.9573ZM91.3538 59.2202L92.1108 63.0256L93.0962 62.8555L92.3392 59.0501L91.3538 59.2202ZM92.1108 63.0256C92.2953 63.9528 92.1667 64.6437 91.8023 65.161L92.6306 65.7436C93.1881 64.952 93.3176 63.9683 93.0962 62.8555L92.1108 63.0256ZM91.8007 65.1633C91.4403 65.6815 90.8344 66.046 89.9 66.2073L90.0951 67.1881C91.2104 66.9955 92.0838 66.5297 92.6322 65.7412L91.8007 65.1633ZM95.9596 65.2016L95.8112 65.6735L95.8178 65.6756L95.9596 65.2016ZM94.3559 64.1597L94.7276 63.8338L94.7276 63.8338L94.3559 64.1597ZM93.6223 60.4719L93.1499 60.2918L93.1499 60.2918L93.6223 60.4719ZM94.7206 58.9736L95.0372 59.3674L95.0388 59.3661L94.7206 58.9736ZM98.3512 58.2149L98.2414 58.6978L98.2414 58.6978L98.3512 58.2149ZM99.8037 58.9582L100.207 59.2648L100.488 58.8965L100.128 58.5861L99.8037 58.9582ZM98.7845 60.2907L98.4675 60.6692L98.8743 61.0067L99.1874 60.5973L98.7845 60.2907ZM96.0422 60.186L95.7177 59.7986L95.714 59.8016L96.0422 60.186ZM95.5008 60.9997L95.0213 60.8403L95.0202 60.844L95.5008 60.9997ZM95.9086 63.0496L95.5168 63.3519L95.5253 63.3621L95.9086 63.0496ZM96.7251 63.6187L96.5665 64.0871L96.5711 64.0887L96.7251 63.6187ZM99.245 62.6054L99.5032 62.1846L99.0534 61.907L98.8034 62.3578L99.245 62.6054ZM100.709 63.5091L101.155 63.7481L101.372 63.3381L100.967 63.0883L100.709 63.5091ZM99.6389 64.688L99.3507 64.2738L99.3507 64.2738L99.6389 64.688ZM97.9029 64.8255C97.2511 64.938 96.6535 64.9015 96.1014 64.7276L95.8178 65.6756C96.5416 65.9036 97.3046 65.9432 98.098 65.8062L97.9029 64.8255ZM96.108 64.7297C95.5592 64.5488 95.1024 64.251 94.7276 63.8338L93.9842 64.4856C94.4824 65.0403 95.0946 65.4372 95.8113 65.6735L96.108 64.7297ZM94.7276 63.8338C94.3577 63.4219 94.1095 62.9209 93.9891 62.3158L93.0037 62.486C93.1565 63.254 93.4813 63.9255 93.9842 64.4856L94.7276 63.8338ZM93.9891 62.3158C93.8687 61.7107 93.9078 61.1601 94.0947 60.6521L93.1499 60.2918C92.8958 60.9826 92.8509 61.718 93.0037 62.486L93.9891 62.3158ZM94.0947 60.6521C94.2837 60.1385 94.5952 59.7124 95.0372 59.3674L94.4041 58.5799C93.8226 59.0338 93.402 59.6066 93.1499 60.2918L94.0947 60.6521ZM95.0388 59.3661C95.4855 59.0143 96.0275 58.7784 96.6776 58.6662L96.4825 57.6854C95.6874 57.8227 94.9897 58.1187 94.4025 58.5811L95.0388 59.3661ZM96.6776 58.6662C97.2493 58.5674 97.7684 58.5818 98.2414 58.6978L98.4609 57.7319C97.8337 57.578 97.1721 57.5663 96.4825 57.6854L96.6776 58.6662ZM98.2414 58.6978C98.7146 58.814 99.1246 59.0247 99.4792 59.3304L100.128 58.5861C99.6462 58.1705 99.0878 57.8857 98.4609 57.7319L98.2414 58.6978ZM99.4008 58.6517L98.3816 59.9842L99.1874 60.5973L100.207 59.2648L99.4008 58.6517ZM99.1015 59.9122C98.4451 59.3677 97.7005 59.1388 96.901 59.2768L97.0961 60.2576C97.5711 60.1756 98.0172 60.2957 98.4675 60.6692L99.1015 59.9122ZM96.901 59.2768C96.452 59.3544 96.0527 59.5255 95.7177 59.7986L96.3668 60.5733C96.558 60.4175 96.7962 60.3094 97.0961 60.2576L96.901 59.2768ZM95.714 59.8016C95.384 60.0761 95.1526 60.4264 95.0213 60.8403L95.9803 61.1592C96.0578 60.9148 96.1874 60.7226 96.3705 60.5703L95.714 59.8016ZM95.0202 60.844C94.8936 61.2545 94.8843 61.6921 94.9745 62.1457L95.96 61.9755C95.8967 61.6575 95.9098 61.3879 95.9815 61.1554L95.0202 60.844ZM94.9745 62.1457C95.0648 62.5995 95.2422 63.0063 95.5169 63.3518L96.3003 62.7473C96.14 62.5457 96.0232 62.2932 95.96 61.9755L94.9745 62.1457ZM95.5253 63.3621C95.8065 63.6977 96.156 63.9421 96.5666 64.0871L96.8837 63.1503C96.6512 63.0682 96.4562 62.9331 96.2919 62.737L95.5253 63.3621ZM96.5711 64.0887C96.989 64.2319 97.4276 64.2583 97.8766 64.1807L97.6815 63.2C97.3816 63.2517 97.1176 63.2304 96.8791 63.1487L96.5711 64.0887ZM97.8766 64.1807C98.6761 64.0427 99.2831 63.5804 99.6865 62.8529L98.8034 62.3578C98.5267 62.8569 98.1565 63.1179 97.6815 63.2L97.8766 64.1807ZM98.9868 63.0261L100.451 63.9298L100.967 63.0883L99.5032 62.1846L98.9868 63.0261ZM100.263 63.27C100.049 63.6737 99.7478 64.0074 99.3507 64.2738L99.9272 65.1023C100.453 64.7494 100.865 64.297 101.155 63.7481L100.263 63.27ZM99.3507 64.2738C98.9538 64.54 98.4747 64.7267 97.9029 64.8255L98.098 65.8062C98.7876 65.6872 99.4008 65.4553 99.9272 65.1023L99.3507 64.2738ZM103.09 63.9703L102.942 64.4422L102.949 64.4443L103.09 63.9703ZM101.487 62.9284L101.858 62.6025L101.858 62.6025L101.487 62.9284ZM100.753 59.2407L100.281 59.0605L100.281 59.0605L100.753 59.2407ZM101.851 57.7424L102.168 58.1361L102.17 58.1348L101.851 57.7424ZM105.482 56.9836L105.372 57.4666L105.372 57.4666L105.482 56.9836ZM106.935 57.727L107.337 58.0335L107.619 57.6652L107.259 57.3548L106.935 57.727ZM105.915 59.0594L105.598 59.438L106.005 59.7754L106.318 59.366L105.915 59.0594ZM103.173 58.9547L102.848 58.5673L102.845 58.5704L103.173 58.9547ZM102.632 59.7685L102.152 59.609L102.151 59.6128L102.632 59.7685ZM103.039 61.8183L102.648 62.1207L102.656 62.1308L103.039 61.8183ZM103.856 62.3874L103.697 62.8559L103.702 62.8574L103.856 62.3874ZM106.376 61.3741L106.634 60.9534L106.184 60.6757L105.934 61.1265L106.376 61.3741ZM107.84 62.2778L108.286 62.5169L108.503 62.1068L108.098 61.8571L107.84 62.2778ZM106.77 63.4567L106.481 63.0425L106.481 63.0425L106.77 63.4567ZM105.034 63.5942C104.382 63.7067 103.784 63.6702 103.232 63.4963L102.949 64.4443C103.672 64.6723 104.435 64.712 105.229 64.575L105.034 63.5942ZM103.239 63.4984C102.69 63.3175 102.233 63.0198 101.858 62.6025L101.115 63.2543C101.613 63.809 102.225 64.2059 102.942 64.4422L103.239 63.4984ZM101.858 62.6025C101.489 62.1906 101.24 61.6896 101.12 61.0845L100.135 61.2547C100.287 62.0227 100.612 62.6943 101.115 63.2543L101.858 62.6025ZM101.12 61.0845C101 60.4794 101.039 59.9289 101.225 59.4208L100.281 59.0605C100.027 59.7513 99.9817 60.4867 100.135 61.2547L101.12 61.0845ZM101.225 59.4208C101.414 58.9072 101.726 58.4811 102.168 58.1361L101.535 57.3486C100.953 57.8025 100.533 58.3753 100.281 59.0605L101.225 59.4208ZM102.17 58.1348C102.616 57.783 103.158 57.5471 103.808 57.4349L103.613 56.4541C102.818 56.5914 102.12 56.8874 101.533 57.3499L102.17 58.1348ZM103.808 57.4349C104.38 57.3362 104.899 57.3505 105.372 57.4666L105.592 56.5006C104.965 56.3467 104.303 56.335 103.613 56.4541L103.808 57.4349ZM105.372 57.4666C105.845 57.5827 106.255 57.7934 106.61 58.0991L107.259 57.3548C106.777 56.9393 106.219 56.6544 105.592 56.5006L105.372 57.4666ZM106.532 57.4204L105.512 58.7529L106.318 59.366L107.337 58.0335L106.532 57.4204ZM106.232 58.6809C105.576 58.1364 104.831 57.9075 104.032 58.0456L104.227 59.0263C104.702 58.9443 105.148 59.0644 105.598 59.438L106.232 58.6809ZM104.032 58.0456C103.583 58.1231 103.184 58.2942 102.848 58.5673L103.498 59.3421C103.689 59.1862 103.927 59.0781 104.227 59.0263L104.032 58.0456ZM102.845 58.5704C102.515 58.8449 102.283 59.1951 102.152 59.609L103.111 59.9279C103.189 59.6835 103.318 59.4913 103.501 59.339L102.845 58.5704ZM102.151 59.6128C102.024 60.0232 102.015 60.4608 102.105 60.9144L103.091 60.7442C103.028 60.4263 103.041 60.1566 103.112 59.9242L102.151 59.6128ZM102.105 60.9144C102.196 61.3682 102.373 61.7751 102.648 62.1206L103.431 61.516C103.271 61.3144 103.154 61.0619 103.091 60.7442L102.105 60.9144ZM102.656 62.1308C102.937 62.4665 103.287 62.7108 103.697 62.8558L104.015 61.919C103.782 61.8369 103.587 61.7019 103.423 61.5058L102.656 62.1308ZM103.702 62.8574C104.12 63.0006 104.558 63.027 105.007 62.9495L104.812 61.9687C104.512 62.0205 104.248 61.9991 104.01 61.9174L103.702 62.8574ZM105.007 62.9495C105.807 62.8114 106.414 62.3491 106.817 61.6216L105.934 61.1265C105.658 61.6256 105.287 61.8867 104.812 61.9687L105.007 62.9495ZM106.118 61.7948L107.582 62.6985L108.098 61.8571L106.634 60.9534L106.118 61.7948ZM107.394 62.0387C107.18 62.4425 106.879 62.7761 106.481 63.0425L107.058 63.871C107.584 63.5181 107.996 63.0657 108.286 62.5169L107.394 62.0387ZM106.481 63.0425C106.085 63.3087 105.605 63.4955 105.034 63.5942L105.229 64.575C105.918 64.4559 106.532 64.2241 107.058 63.871L106.481 63.0425ZM114.18 60.828L114.672 60.743L114.575 60.2526L114.082 60.3377L114.18 60.828ZM114.478 62.3286L114.576 62.819L115.068 62.734L114.971 62.2436L114.478 62.3286ZM108.94 63.2849L108.447 63.37L108.545 63.8604L109.038 63.7753L108.94 63.2849ZM107.574 56.4194L107.477 55.929L106.984 56.0141L107.082 56.5045L107.574 56.4194ZM112.984 55.4853L113.477 55.4002L113.379 54.9098L112.887 54.9949L112.984 55.4853ZM113.283 56.9859L113.38 57.4763L113.873 57.3912L113.775 56.9008L113.283 56.9859ZM109.804 57.5865L109.707 57.0961L109.214 57.1812L109.311 57.6716L109.804 57.5865ZM110.034 58.7438L109.542 58.8289L109.639 59.3193L110.132 59.2342L110.034 58.7438ZM113.099 58.2147L113.592 58.1296L113.494 57.6392L113.001 57.7243L113.099 58.2147ZM113.388 59.6662L113.485 60.1566L113.978 60.0715L113.881 59.5812L113.388 59.6662ZM110.323 60.1954L110.226 59.705L109.733 59.7901L109.83 60.2805L110.323 60.1954ZM110.573 61.4508L110.08 61.5359L110.178 62.0263L110.67 61.9412L110.573 61.4508ZM113.687 60.9131L113.985 62.4137L114.971 62.2436L114.672 60.743L113.687 60.9131ZM114.381 61.8382L108.842 62.7945L109.038 63.7753L114.576 62.819L114.381 61.8382ZM109.433 63.1998L108.067 56.3344L107.082 56.5045L108.447 63.37L109.433 63.1998ZM107.672 56.9098L113.082 55.9757L112.887 54.9949L107.477 55.929L107.672 56.9098ZM112.491 55.5704L112.79 57.071L113.775 56.9008L113.477 55.4002L112.491 55.5704ZM113.185 56.4955L109.707 57.0961L109.902 58.0769L113.38 57.4763L113.185 56.4955ZM109.311 57.6716L109.542 58.8289L110.527 58.6588L110.297 57.5014L109.311 57.6716ZM110.132 59.2342L113.197 58.7051L113.001 57.7243L109.937 58.2535L110.132 59.2342ZM112.606 58.2998L112.895 59.7513L113.881 59.5812L113.592 58.1296L112.606 58.2998ZM113.29 59.1758L110.226 59.705L110.421 60.6858L113.485 60.1566L113.29 59.1758ZM109.83 60.2805L110.08 61.5359L111.066 61.3657L110.816 60.1103L109.83 60.2805ZM110.67 61.9412L114.277 61.3184L114.082 60.3377L110.475 60.9604L110.67 61.9412ZM116.345 61.9352L116.376 61.4393L116.376 61.4393L116.345 61.9352ZM114.955 61.6072L114.465 61.4854L114.373 61.8833L114.752 62.0577L114.955 61.6072ZM115.311 60.0646L115.501 59.6084L114.952 59.3737L114.821 59.9429L115.311 60.0646ZM116.482 60.3696L116.533 59.8758L116.533 59.8758L116.482 60.3696ZM118.323 59.2199L118.202 59.7L118.211 59.7025L118.22 59.7046L118.323 59.2199ZM117.237 59.0928L117.249 58.5956L117.246 58.5955L117.237 59.0928ZM115.866 58.9643L115.784 59.4533L115.792 59.4547L115.866 58.9643ZM114.367 56.2408L114.828 56.4481L114.83 56.444L114.367 56.2408ZM115.231 55.2596L114.948 54.8424L114.945 54.8438L115.231 55.2596ZM118.229 54.5999L118.21 55.0967L118.217 55.097L118.229 54.5999ZM119.48 54.8405L119.972 54.9499L120.058 54.5273L119.646 54.3747L119.48 54.8405ZM119.166 56.386L119.017 56.858L119.549 57.0331L119.658 56.4954L119.166 56.386ZM116.336 56.5094L116.681 56.8792L116.691 56.8702L116.336 56.5094ZM116.555 57.3541L116.447 57.8375L116.447 57.8375L116.555 57.3541ZM117.627 57.4633L117.634 56.966L117.633 56.9659L117.627 57.4633ZM119 57.6016L118.914 58.09L118.925 58.0919L119 57.6016ZM120.017 58.0548L119.713 58.4435L119.723 58.4509L120.017 58.0548ZM120.504 60.294L120.042 60.0867L120.042 60.0867L120.504 60.294ZM119.629 61.2769L119.913 61.6942L119.918 61.6909L119.629 61.2769ZM117.915 61.37C117.397 61.4594 116.885 61.4821 116.376 61.4393L116.315 62.4311C116.912 62.4814 117.51 62.4543 118.11 62.3508L117.915 61.37ZM116.376 61.4393C115.863 61.3961 115.462 61.2966 115.158 61.1566L114.752 62.0577C115.196 62.262 115.722 62.3812 116.315 62.4311L116.376 61.4393ZM115.445 61.7289L115.8 60.1864L114.821 59.9429L114.465 61.4854L115.445 61.7289ZM115.121 60.5208C115.52 60.6918 115.959 60.8044 116.431 60.8634L116.533 59.8758C116.142 59.8269 115.799 59.7362 115.501 59.6084L115.121 60.5208ZM116.431 60.8634C116.909 60.9229 117.372 60.9159 117.819 60.8387L117.624 59.8579C117.283 59.9169 116.92 59.924 116.533 59.8758L116.431 60.8634ZM117.819 60.8387C118.219 60.7697 118.582 60.6582 118.844 60.4636C118.981 60.3617 119.103 60.2273 119.176 60.0532C119.251 59.8757 119.262 59.6892 119.226 59.5102L118.241 59.6804C118.243 59.6877 118.239 59.6724 118.248 59.6508C118.256 59.6326 118.26 59.6389 118.229 59.6625C118.153 59.719 117.973 59.7976 117.624 59.8579L117.819 60.8387ZM119.226 59.5102C119.188 59.3162 119.094 59.1352 118.937 58.992C118.786 58.8537 118.604 58.7763 118.425 58.7352L118.22 59.7046C118.277 59.7176 118.281 59.7299 118.266 59.7166C118.259 59.7099 118.251 59.7008 118.246 59.6909C118.241 59.6815 118.24 59.6767 118.241 59.6804L119.226 59.5102ZM118.444 58.7398C118.157 58.6628 117.749 58.6189 117.249 58.5957L117.226 59.59C117.714 59.6127 118.029 59.6535 118.202 59.7L118.444 58.7398ZM117.246 58.5955C116.718 58.5745 116.285 58.5331 115.941 58.474L115.792 59.4547C116.194 59.5238 116.675 59.5681 117.229 59.5901L117.246 58.5955ZM115.949 58.4755C115.657 58.4203 115.393 58.3009 115.151 58.1128L114.542 58.8898C114.912 59.1778 115.328 59.3671 115.784 59.4532L115.949 58.4755ZM115.151 58.1128C114.967 57.9695 114.817 57.7344 114.739 57.3432L113.753 57.5133C113.865 58.0767 114.115 58.5569 114.542 58.8898L115.151 58.1128ZM114.739 57.3432C114.674 57.0201 114.706 56.7266 114.828 56.4481L113.905 56.0335C113.7 56.5013 113.651 56.9994 113.753 57.5133L114.739 57.3432ZM114.83 56.444C114.948 56.167 115.166 55.9082 115.517 55.6754L114.945 54.8438C114.468 55.1598 114.109 55.5552 113.903 56.0375L114.83 56.444ZM115.515 55.6768C115.865 55.4479 116.338 55.2714 116.955 55.1648L116.76 54.184C116.051 54.3065 115.44 54.5202 114.948 54.8424L115.515 55.6768ZM116.955 55.1648C117.37 55.0932 117.788 55.0705 118.21 55.0967L118.249 54.1032C117.749 54.0721 117.252 54.0991 116.76 54.184L116.955 55.1648ZM118.217 55.097C118.632 55.117 118.997 55.1889 119.314 55.3063L119.646 54.3747C119.215 54.2155 118.745 54.127 118.242 54.1028L118.217 55.097ZM118.987 54.7311L118.673 56.2767L119.658 56.4954L119.972 54.9499L118.987 54.7311ZM119.314 55.9141C118.524 55.6537 117.766 55.5727 117.051 55.6961L117.246 56.6769C117.766 56.587 118.353 56.6391 119.017 56.858L119.314 55.9141ZM117.051 55.6961C116.635 55.768 116.243 55.8968 115.982 56.1485L116.691 56.8702C116.737 56.8253 116.887 56.7389 117.246 56.6769L117.051 55.6961ZM115.991 56.1397C115.731 56.3772 115.59 56.7042 115.665 57.0817L116.651 56.9116C116.649 56.9055 116.65 56.9047 116.65 56.9077C116.65 56.9109 116.649 56.9144 116.648 56.9169C116.646 56.9226 116.649 56.9088 116.681 56.879L115.991 56.1397ZM115.665 57.0817C115.703 57.2737 115.798 57.4499 115.952 57.5882C116.099 57.721 116.275 57.796 116.447 57.8375L116.663 56.8708C116.606 56.857 116.602 56.8449 116.617 56.8585C116.625 56.8657 116.634 56.8762 116.641 56.8889C116.648 56.9013 116.65 56.9101 116.651 56.9116L115.665 57.0817ZM116.447 57.8375C116.728 57.9055 117.129 57.9429 117.62 57.9607L117.633 56.9659C117.153 56.9486 116.839 56.9132 116.663 56.8708L116.447 57.8375ZM117.62 57.9607C118.152 57.9805 118.581 58.0249 118.914 58.0898L119.086 57.1134C118.683 57.0347 118.197 56.9869 117.634 56.966L117.62 57.9607ZM118.925 58.0919C119.213 58.1414 119.473 58.2567 119.713 58.4433L120.322 57.6664C119.95 57.3769 119.532 57.1901 119.074 57.1113L118.925 58.0919ZM119.723 58.4509C119.905 58.586 120.056 58.8128 120.133 59.2015L121.119 59.0313C121.006 58.4654 120.751 57.9845 120.312 57.6588L119.723 58.4509ZM120.133 59.2015C120.196 59.5163 120.165 59.8067 120.042 60.0867L120.965 60.5014C121.17 60.035 121.22 59.5403 121.119 59.0313L120.133 59.2015ZM120.042 60.0867C119.923 60.3581 119.702 60.62 119.34 60.863L119.918 61.6909C120.395 61.3697 120.757 60.9763 120.965 60.5014L120.042 60.0867ZM119.345 60.8597C118.995 61.0889 118.525 61.2647 117.915 61.37L118.11 62.3508C118.814 62.2293 119.421 62.016 119.913 61.6942L119.345 60.8597ZM122.726 60.8335L122.756 60.3376L122.756 60.3376L122.726 60.8335ZM121.335 60.5055L120.845 60.3838L120.754 60.7816L121.133 60.956L121.335 60.5055ZM121.691 58.963L121.881 58.5068L121.332 58.2721L121.201 58.8412L121.691 58.963ZM122.863 59.2679L122.914 58.7741L122.914 58.7741L122.863 59.2679ZM124.703 58.1182L124.582 58.5984L124.591 58.6008L124.6 58.6029L124.703 58.1182ZM123.618 57.9912L123.629 57.494L123.626 57.4938L123.618 57.9912ZM122.247 57.8627L122.164 58.3516L122.172 58.353L122.247 57.8627ZM120.747 55.1391L121.208 55.3465L121.21 55.3424L120.747 55.1391ZM121.612 54.1579L121.328 53.7407L121.326 53.7421L121.612 54.1579ZM124.609 53.4983L124.59 53.995L124.597 53.9954L124.609 53.4983ZM125.86 53.7388L126.353 53.8482L126.438 53.4256L126.026 53.273L125.86 53.7388ZM125.546 55.2844L125.397 55.7563L125.929 55.9314L126.038 55.3937L125.546 55.2844ZM122.716 55.4077L123.062 55.7775L123.071 55.7685L122.716 55.4077ZM122.935 56.2525L122.827 56.7359L122.827 56.7359L122.935 56.2525ZM124.007 56.3616L124.014 55.8643L124.013 55.8643L124.007 56.3616ZM125.38 56.4999L125.294 56.9883L125.305 56.9903L125.38 56.4999ZM126.398 56.9532L126.093 57.3418L126.103 57.3492L126.398 56.9532ZM126.884 59.1924L126.422 58.985L126.422 58.985L126.884 59.1924ZM126.009 60.1753L126.293 60.5925L126.298 60.5892L126.009 60.1753ZM124.295 60.2684C123.778 60.3577 123.265 60.3805 122.756 60.3376L122.695 61.3295C123.292 61.3797 123.891 61.3527 124.49 61.2491L124.295 60.2684ZM122.756 60.3376C122.243 60.2944 121.842 60.1949 121.538 60.055L121.133 60.956C121.576 61.1603 122.102 61.2796 122.695 61.3295L122.756 60.3376ZM121.825 60.6272L122.181 59.0847L121.201 58.8412L120.845 60.3838L121.825 60.6272ZM121.501 59.4192C121.901 59.5902 122.339 59.7027 122.811 59.7617L122.914 58.7741C122.522 58.7253 122.179 58.6345 121.881 58.5068L121.501 59.4192ZM122.811 59.7617C123.289 59.8213 123.752 59.8142 124.199 59.737L124.004 58.7563C123.663 58.8152 123.3 58.8223 122.914 58.7741L122.811 59.7617ZM124.199 59.737C124.599 59.668 124.963 59.5565 125.224 59.362C125.361 59.2601 125.483 59.1257 125.556 58.9516C125.631 58.774 125.642 58.5875 125.607 58.4086L124.621 58.5787C124.623 58.5861 124.619 58.5707 124.628 58.5491C124.636 58.5309 124.641 58.5373 124.609 58.5608C124.533 58.6173 124.354 58.696 124.004 58.7563L124.199 59.737ZM125.607 58.4086C125.568 58.2146 125.474 58.0336 125.318 57.8904C125.166 57.752 124.984 57.6747 124.806 57.6336L124.6 58.6029C124.657 58.6159 124.661 58.6282 124.646 58.615C124.639 58.6082 124.632 58.5991 124.626 58.5892C124.621 58.5798 124.621 58.575 124.621 58.5787L125.607 58.4086ZM124.824 57.6381C124.537 57.5611 124.129 57.5172 123.629 57.494L123.606 58.4883C124.094 58.511 124.409 58.5518 124.582 58.5984L124.824 57.6381ZM123.626 57.4938C123.098 57.4728 122.665 57.4315 122.321 57.3723L122.172 58.353C122.574 58.4221 123.055 58.4664 123.609 58.4885L123.626 57.4938ZM122.329 57.3738C122.037 57.3186 121.773 57.1992 121.532 57.0111L120.922 57.7881C121.292 58.0761 121.708 58.2654 122.164 58.3515L122.329 57.3738ZM121.532 57.0111C121.348 56.8679 121.197 56.6328 121.119 56.2415L120.133 56.4117C120.246 56.975 120.495 57.4553 120.922 57.7881L121.532 57.0111ZM121.119 56.2415C121.055 55.9184 121.086 55.6249 121.208 55.3465L120.285 54.9318C120.08 55.3997 120.031 55.8978 120.133 56.4117L121.119 56.2415ZM121.21 55.3424C121.328 55.0653 121.546 54.8065 121.897 54.5737L121.326 53.7421C120.849 54.0582 120.49 54.4535 120.283 54.9359L121.21 55.3424ZM121.895 54.5752C122.245 54.3462 122.718 54.1697 123.336 54.0631L123.141 53.0823C122.431 53.2049 121.82 53.4185 121.328 53.7407L121.895 54.5752ZM123.336 54.0631C123.75 53.9915 124.168 53.9688 124.59 53.995L124.629 53.0015C124.129 52.9705 123.632 52.9974 123.141 53.0823L123.336 54.0631ZM124.597 53.9954C125.013 54.0153 125.377 54.0872 125.694 54.2046L126.026 53.273C125.595 53.1138 125.126 53.0253 124.622 53.0011L124.597 53.9954ZM125.368 53.6294L125.053 55.175L126.038 55.3937L126.353 53.8482L125.368 53.6294ZM125.694 54.8124C124.904 54.552 124.146 54.471 123.431 54.5944L123.626 55.5752C124.147 55.4854 124.733 55.5374 125.397 55.7563L125.694 54.8124ZM123.431 54.5944C123.015 54.6663 122.623 54.7951 122.362 55.0469L123.071 55.7685C123.117 55.7237 123.267 55.6372 123.626 55.5752L123.431 54.5944ZM122.371 55.0381C122.111 55.2755 121.97 55.6025 122.045 55.9801L123.031 55.8099C123.03 55.8039 123.03 55.803 123.03 55.806C123.03 55.8092 123.029 55.8127 123.028 55.8152C123.026 55.8209 123.029 55.8071 123.061 55.7774L122.371 55.0381ZM122.045 55.9801C122.084 56.172 122.178 56.3482 122.332 56.4865C122.479 56.6193 122.656 56.6944 122.827 56.7359L123.043 55.7691C122.987 55.7554 122.982 55.7432 122.998 55.7568C123.006 55.764 123.014 55.7745 123.021 55.7872C123.028 55.7996 123.031 55.8084 123.031 55.8099L122.045 55.9801ZM122.827 56.7359C123.109 56.8039 123.509 56.8413 124.001 56.859L124.013 55.8643C123.533 55.8469 123.219 55.8116 123.043 55.7691L122.827 56.7359ZM124 56.859C124.532 56.8788 124.961 56.9232 125.294 56.9882L125.466 56.0117C125.063 55.9331 124.577 55.8853 124.014 55.8643L124 56.859ZM125.305 56.9903C125.593 57.0397 125.853 57.155 126.093 57.3417L126.702 56.5647C126.331 56.2753 125.913 56.0884 125.454 56.0096L125.305 56.9903ZM126.103 57.3492C126.285 57.4843 126.436 57.7111 126.514 58.0998L127.499 57.9296C127.386 57.3637 127.132 56.8828 126.692 56.5572L126.103 57.3492ZM126.514 58.0998C126.576 58.4146 126.545 58.7051 126.422 58.985L127.345 59.3997C127.55 58.9333 127.6 58.4387 127.499 57.9296L126.514 58.0998ZM126.422 58.985C126.303 59.2565 126.082 59.5183 125.72 59.7613L126.298 60.5892C126.775 60.268 127.137 59.8746 127.345 59.3997L126.422 58.985ZM125.725 59.758C125.375 59.9873 124.905 60.163 124.295 60.2684L124.49 61.2491C125.194 61.1276 125.801 60.9144 126.293 60.5925L125.725 59.758ZM87.3379 75.4857L87.0268 75.0878L86.106 75.7859L87.2672 75.9767L87.3379 75.4857ZM88.393 75.9731L88.0587 76.3366L88.0628 76.3403L88.393 75.9731ZM88.4847 78.4833L88.8413 78.842L88.8413 78.842L88.4847 78.4833ZM82.7485 79.981L82.2558 80.0661L82.3534 80.5565L82.8461 80.4714L82.7485 79.981ZM81.3827 73.1155L81.2852 72.6252L80.7925 72.7102L80.89 73.2006L81.3827 73.1155ZM87.0184 72.6497L86.8113 73.0982L86.8157 73.1002L87.0184 72.6497ZM87.8969 74.7603L87.4274 74.5725L87.4261 74.5757L87.8969 74.7603ZM83.5932 74.1846L83.4956 73.6942L83.0029 73.7793L83.1005 74.2696L83.5932 74.1846ZM83.8566 75.5086L83.3639 75.5937L83.4614 76.0841L83.9541 75.999L83.8566 75.5086ZM84.1239 76.8523L84.0263 76.3619L83.5336 76.447L83.6312 76.9374L84.1239 76.8523ZM84.401 78.245L83.9082 78.3301L84.0058 78.8205L84.4985 78.7354L84.401 78.245ZM87.2672 75.9767C87.6036 76.032 87.8598 76.1563 88.0587 76.3366L88.7273 75.6096C88.3624 75.2786 87.9152 75.078 87.4086 74.9948L87.2672 75.9767ZM88.0628 76.3403C88.2486 76.5053 88.3807 76.7312 88.4441 77.0498L89.4295 76.8796C89.329 76.3743 89.0986 75.9392 88.7232 75.606L88.0628 76.3403ZM88.4441 77.0498C88.5325 77.4943 88.4274 77.8324 88.128 78.1246L88.8413 78.842C89.3841 78.3125 89.5804 77.6382 89.4295 76.8796L88.4441 77.0498ZM88.128 78.1246C87.8071 78.4377 87.2488 78.6967 86.3759 78.8474L86.571 79.8282C87.5375 79.6613 88.3201 79.3506 88.8413 78.842L88.128 78.1246ZM86.3759 78.8474L82.651 79.4906L82.8461 80.4714L86.571 79.8282L86.3759 78.8474ZM83.2413 79.8959L81.8755 73.0305L80.89 73.2006L82.2558 80.0661L83.2413 79.8959ZM81.4803 73.6059L85.0081 72.9968L84.813 72.016L81.2852 72.6252L81.4803 73.6059ZM85.0081 72.9968C85.839 72.8533 86.4216 72.9144 86.8114 73.0982L87.2253 72.2012C86.5653 71.8899 85.7427 71.8555 84.813 72.016L85.0081 72.9968ZM86.8157 73.1002C87.1924 73.2736 87.3982 73.5341 87.4749 73.9201L88.4604 73.7499C88.3186 73.0374 87.8915 72.5077 87.221 72.1992L86.8157 73.1002ZM87.4749 73.9201C87.5228 74.1609 87.5041 74.3742 87.4274 74.5725L88.3664 74.948C88.5141 74.5665 88.5425 74.163 88.4604 73.7499L87.4749 73.9201ZM87.4261 74.5757C87.3546 74.7646 87.228 74.9353 87.0268 75.0878L87.649 75.8837C87.9793 75.6333 88.2253 75.3204 88.3676 74.9448L87.4261 74.5757ZM83.1005 74.2696L83.3639 75.5937L84.3493 75.4235L84.0859 74.0995L83.1005 74.2696ZM83.9541 75.999L85.2943 75.7676L85.0992 74.7868L83.759 75.0182L83.9541 75.999ZM85.2943 75.7676C85.6632 75.7039 86.0149 75.5815 86.2604 75.3405C86.5353 75.0707 86.614 74.7161 86.5422 74.3551L85.5568 74.5252C85.5669 74.5761 85.5618 74.5985 85.5606 74.6031C85.56 74.6052 85.5589 74.6115 85.5449 74.6252C85.5061 74.6633 85.3872 74.7371 85.0992 74.7868L85.2943 75.7676ZM86.5422 74.3551C86.4704 73.9942 86.2585 73.6922 85.8983 73.5351C85.5777 73.3952 85.2038 73.3992 84.8358 73.4628L85.0309 74.4435C85.3199 74.3937 85.4604 74.4221 85.5119 74.4446C85.5303 74.4526 85.5328 74.4576 85.533 74.4579C85.5347 74.46 85.5472 74.4769 85.5568 74.5252L86.5422 74.3551ZM84.8358 73.4628L83.4956 73.6942L83.6907 74.675L85.0309 74.4435L84.8358 73.4628ZM86.1343 78.4529C86.5166 78.3869 86.878 78.2602 87.1291 78.0128C87.4094 77.7366 87.4894 77.3742 87.4158 77.0042L86.4303 77.1743C86.4415 77.2304 86.4364 77.2575 86.4341 77.2662C86.4324 77.2725 86.4291 77.2822 86.4124 77.2987C86.3681 77.3424 86.2401 77.4202 85.9392 77.4722L86.1343 78.4529ZM87.4158 77.0042C87.3421 76.6341 87.1281 76.3225 86.7602 76.1582C86.4306 76.0111 86.0444 76.0134 85.6621 76.0794L85.8572 77.0602C86.1582 77.0083 86.3075 77.0382 86.3657 77.0642C86.3877 77.074 86.3945 77.0819 86.3984 77.0872C86.404 77.0946 86.4192 77.1182 86.4303 77.1743L87.4158 77.0042ZM85.6621 76.0794L84.0263 76.3619L84.2214 77.3427L85.8572 77.0602L85.6621 76.0794ZM83.6312 76.9374L83.9082 78.3301L84.8937 78.1599L84.6166 76.7672L83.6312 76.9374ZM84.4985 78.7354L86.1343 78.4529L85.9392 77.4722L84.3034 77.7546L84.4985 78.7354ZM92.9745 76.3284L93.3264 75.9816L93.1371 75.7931L92.8769 75.838L92.9745 76.3284ZM91.9102 76.5121L91.8127 76.0218L91.32 76.1068L91.4175 76.5972L91.9102 76.5121ZM92.2732 78.3364L92.3707 78.8268L92.8634 78.7417L92.7659 78.2513L92.2732 78.3364ZM90.322 78.6733L89.8293 78.7584L89.9269 79.2488L90.4196 79.1637L90.322 78.6733ZM88.9562 71.8078L88.8587 71.3174L88.366 71.4025L88.4635 71.8929L88.9562 71.8078ZM93.7979 71.2965L93.6818 71.7779L93.6876 71.7793L93.7979 71.2965ZM95.0378 71.9954L94.6764 72.3325L94.6791 72.3353L95.0378 71.9954ZM95.5843 74.6401L95.1156 74.4502L95.1148 74.4523L95.5843 74.6401ZM94.7607 75.675L94.458 75.2709L93.9921 75.6086L94.4097 76.0227L94.7607 75.675ZM96.678 77.5758L96.7755 78.0662L97.7113 77.9046L97.029 77.2282L96.678 77.5758ZM94.5889 77.9365L94.237 78.2833L94.4263 78.4719L94.6864 78.4269L94.5889 77.9365ZM91.2117 73.001L91.1142 72.5106L90.6215 72.5956L90.719 73.086L91.2117 73.001ZM91.6117 75.0116L91.119 75.0966L91.2166 75.587L91.7093 75.5019L91.6117 75.0116ZM93.5515 74.4128L93.943 74.734L93.9487 74.7268L93.5515 74.4128ZM92.8769 75.838L91.8127 76.0218L92.0078 77.0025L93.072 76.8188L92.8769 75.838ZM91.4175 76.5972L91.7804 78.4215L92.7659 78.2513L92.4029 76.4271L91.4175 76.5972ZM92.1756 77.846L90.2245 78.1829L90.4196 79.1637L92.3707 78.8268L92.1756 77.846ZM90.8147 78.5882L89.4489 71.7228L88.4635 71.8929L89.8293 78.7584L90.8147 78.5882ZM89.0538 72.2982L92.2071 71.7537L92.012 70.773L88.8587 71.3174L89.0538 72.2982ZM92.2071 71.7537C92.7767 71.6554 93.2649 71.6699 93.6818 71.7778L93.9141 70.8151C93.328 70.6634 92.6906 70.6558 92.012 70.773L92.2071 71.7537ZM93.6876 71.7793C94.1012 71.8812 94.4243 72.0678 94.6764 72.3325L95.3992 71.6583C94.9985 71.2377 94.4951 70.9583 93.9082 70.8136L93.6876 71.7793ZM94.6791 72.3353C94.9265 72.5911 95.1004 72.9247 95.1868 73.3595L96.1723 73.1893C96.0532 72.591 95.7992 72.0719 95.3965 71.6555L94.6791 72.3353ZM95.1868 73.3595C95.2697 73.7759 95.2396 74.1343 95.1156 74.4502L96.053 74.83C96.2537 74.3188 96.2871 73.7668 96.1723 73.1893L95.1868 73.3595ZM95.1148 74.4523C94.9949 74.7621 94.7832 75.0352 94.458 75.2709L95.0635 76.0792C95.5222 75.7467 95.8595 75.3298 96.0538 74.8279L95.1148 74.4523ZM94.4097 76.0227L96.3269 77.9235L97.029 77.2282L95.1118 75.3274L94.4097 76.0227ZM96.5804 77.0854L94.4913 77.4462L94.6864 78.4269L96.7755 78.0662L96.5804 77.0854ZM94.9408 77.5898L93.3264 75.9816L92.6226 76.6752L94.237 78.2833L94.9408 77.5898ZM94.2014 73.5296C94.1154 73.0973 93.894 72.7267 93.505 72.4964L93.0049 73.3477C93.0934 73.4001 93.1745 73.4913 93.216 73.6998L94.2014 73.5296ZM93.505 72.4964C93.1203 72.2686 92.6618 72.2433 92.1981 72.3234L92.3932 73.3042C92.731 73.2459 92.912 73.2927 93.0049 73.3477L93.505 72.4964ZM92.1981 72.3234L91.1142 72.5106L91.3093 73.4913L92.3932 73.3042L92.1981 72.3234ZM90.719 73.086L91.119 75.0966L92.1044 74.9265L91.7044 72.9159L90.719 73.086ZM91.7093 75.5019L92.7932 75.3148L92.5981 74.334L91.5142 74.5212L91.7093 75.5019ZM92.7932 75.3148C93.2532 75.2354 93.6696 75.0641 93.9429 74.7339L93.1602 74.0918C93.0938 74.1719 92.9396 74.275 92.5981 74.334L92.7932 75.3148ZM93.9487 74.7268C94.2233 74.3818 94.2874 73.962 94.2014 73.5296L93.216 73.6998C93.2575 73.9082 93.2168 74.0205 93.1544 74.0989L93.9487 74.7268ZM99.0597 76.8298L98.9137 77.3024L98.9159 77.3032L99.0597 76.8298ZM97.4363 75.7913L97.0646 76.1172L97.0676 76.1205L97.4363 75.7913ZM96.7066 72.1232L96.2357 71.9389L96.2342 71.943L96.7066 72.1232ZM97.8227 70.6116L97.5063 70.2177L97.5045 70.2192L97.8227 70.6116ZM101.755 69.9327L101.608 70.4054L101.611 70.4061L101.755 69.9327ZM103.378 70.9712L103.006 71.2972L103.009 71.3005L103.378 70.9712ZM104.108 74.6394L103.637 74.4551L103.635 74.4592L104.108 74.6394ZM102.992 76.1509L102.675 75.757L102.673 75.7584L102.992 76.1509ZM101.7 74.9334L102.031 75.3146L102.031 75.3146L101.7 74.9334ZM102.233 74.1312L102.711 74.295L102.712 74.2906L102.233 74.1312ZM101.825 72.0814L101.439 72.3903L101.442 72.3939L101.825 72.0814ZM101.017 71.5007L101.18 71.034L101.18 71.034L101.017 71.5007ZM99.1246 71.8274L98.7926 71.4462L98.7926 71.4462L99.1246 71.8274ZM98.593 72.6395L99.0711 72.8032L99.0725 72.7989L98.593 72.6395ZM99.0008 74.6893L98.6145 74.9982L98.6175 75.0018L99.0008 74.6893ZM99.8075 75.2601L99.9708 74.7934L99.9708 74.7934L99.8075 75.2601ZM101.025 76.4601C100.367 76.5736 99.7632 76.5353 99.2035 76.3564L98.9159 77.3032C99.6479 77.537 100.419 77.5792 101.22 77.4408L101.025 76.4601ZM99.2058 76.3571C98.6497 76.1766 98.186 75.879 97.8051 75.4621L97.0676 76.1205C97.5727 76.6732 98.1913 77.068 98.9137 77.3024L99.2058 76.3571ZM97.8081 75.4654C97.4376 75.0528 97.1904 74.5548 97.0715 73.9572L96.0861 74.1274C96.2377 74.8898 96.5623 75.5578 97.0646 76.1172L97.8081 75.4654ZM97.0715 73.9572C96.9526 73.3596 96.9918 72.8122 97.179 72.3033L96.2342 71.943C95.9804 72.633 95.9344 73.365 96.0861 74.1274L97.0715 73.9572ZM97.1775 72.3074C97.3728 71.791 97.6911 71.3583 98.1409 71.0041L97.5045 70.2192C96.9203 70.6792 96.4946 71.2543 96.2358 71.9389L97.1775 72.3074ZM98.139 71.0056C98.5928 70.6517 99.142 70.4143 99.7994 70.3008L99.6043 69.32C98.8033 69.4583 98.0997 69.755 97.5064 70.2177L98.139 71.0056ZM99.7994 70.3008C100.457 70.1872 101.057 70.2263 101.608 70.4054L101.901 69.4601C101.174 69.2242 100.405 69.1817 99.6043 69.32L99.7994 70.3008ZM101.611 70.4061C102.172 70.5856 102.634 70.8824 103.006 71.2972L103.75 70.6453C103.249 70.0881 102.628 69.6926 101.898 69.4594L101.611 70.4061ZM103.009 71.3005C103.385 71.7116 103.634 72.2079 103.753 72.8036L104.738 72.6334C104.586 71.8692 104.257 71.2006 103.747 70.642L103.009 71.3005ZM103.753 72.8036C103.871 73.3993 103.829 73.9458 103.637 74.4551L104.578 74.8236C104.84 74.1318 104.89 73.3977 104.738 72.6334L103.753 72.8036ZM103.635 74.4592C103.447 74.9708 103.131 75.4018 102.675 75.757L103.308 76.5448C103.9 76.0834 104.327 75.5068 104.58 74.8195L103.635 74.4592ZM102.673 75.7584C102.227 76.1098 101.682 76.3465 101.025 76.4601L101.22 77.4408C102.021 77.3026 102.722 77.0063 103.31 76.5434L102.673 75.7584ZM100.9 75.8324C101.329 75.7582 101.711 75.5871 102.031 75.3146L101.368 74.5522C101.188 74.7043 100.972 74.8055 100.705 74.8516L100.9 75.8324ZM102.031 75.3146C102.352 75.0427 102.579 74.6991 102.711 74.295L101.755 73.9674C101.676 74.2084 101.547 74.3997 101.368 74.5522L102.031 75.3146ZM102.712 74.2906C102.845 73.8733 102.858 73.4308 102.767 72.9738L101.782 73.1439C101.844 73.4584 101.83 73.7308 101.754 73.9718L102.712 74.2906ZM102.767 72.9738C102.676 72.517 102.494 72.1096 102.209 71.7688L101.442 72.3939C101.602 72.5848 101.719 72.8291 101.782 73.1439L102.767 72.9738ZM102.212 71.7724C101.932 71.4324 101.587 71.1821 101.18 71.034L100.853 71.9674C101.077 72.0487 101.27 72.1854 101.439 72.3903L102.212 71.7724ZM101.18 71.034C100.776 70.8868 100.354 70.8543 99.9243 70.9285L100.119 71.9092C100.386 71.8631 100.628 71.8853 100.853 71.9674L101.18 71.034ZM99.9243 70.9285C99.495 71.0026 99.1135 71.1737 98.7926 71.4462L99.4566 72.2086C99.6356 72.0566 99.8523 71.9554 100.119 71.9092L99.9243 70.9285ZM98.7926 71.4462C98.4699 71.7202 98.2439 72.0692 98.1136 72.48L99.0725 72.7989C99.151 72.5514 99.2794 72.359 99.4566 72.2086L98.7926 71.4462ZM98.115 72.4757C97.9795 72.8892 97.966 73.3303 98.0569 73.7871L99.0423 73.6169C98.9797 73.3022 98.9952 73.0349 99.0711 72.8032L98.115 72.4757ZM98.0569 73.7871C98.1478 74.2441 98.3304 74.6528 98.6145 74.9982L99.3872 74.3804C99.2231 74.1809 99.1049 73.9314 99.0423 73.6169L98.0569 73.7871ZM98.6175 75.0018C98.8966 75.3349 99.2406 75.5799 99.6442 75.7268L99.9708 74.7934C99.7444 74.711 99.5506 74.5754 99.3842 74.3768L98.6175 75.0018ZM99.6442 75.7268C100.049 75.8741 100.471 75.9065 100.9 75.8324L100.705 74.8516C100.438 74.8977 100.196 74.8756 99.9708 74.7934L99.6442 75.7268ZM108.115 73.0242L108.442 72.654L107.998 72.2669L107.689 72.7511L108.115 73.0242ZM107.54 73.9249L107.114 73.6518L107.009 73.8162L107.047 74.01L107.54 73.9249ZM107.882 75.6413L107.979 76.1317L108.472 76.0466L108.374 75.5562L107.882 75.6413ZM105.95 75.9748L105.457 76.0599L105.555 76.5503L106.048 76.4652L105.95 75.9748ZM104.584 69.1093L104.487 68.6189L103.994 68.704L104.092 69.1944L104.584 69.1093ZM106.516 68.7758L107.008 68.6908L106.911 68.2004L106.418 68.2855L106.516 68.7758ZM107.084 71.6299L106.591 71.715L106.839 72.9611L107.511 71.9019L107.084 71.6299ZM109.186 68.3147L109.089 67.8243L108.874 67.8614L108.759 68.0428L109.186 68.3147ZM111.334 67.9438L111.763 68.2138L112.362 67.2592L111.237 67.4534L111.334 67.9438ZM109.121 71.4709L108.693 71.2009L108.471 71.5539L108.791 71.8378L109.121 71.4709ZM112.848 74.7837L112.946 75.2741L113.948 75.101L113.179 74.4168L112.848 74.7837ZM110.582 75.1751L110.255 75.5453L110.44 75.7068L110.679 75.6655L110.582 75.1751ZM107.689 72.7511L107.114 73.6518L107.966 74.1981L108.541 73.2974L107.689 72.7511ZM107.047 74.01L107.389 75.7264L108.374 75.5562L108.033 73.8399L107.047 74.01ZM107.784 75.1509L105.853 75.4844L106.048 76.4652L107.979 76.1317L107.784 75.1509ZM106.443 75.8897L105.077 69.0243L104.092 69.1944L105.457 76.0599L106.443 75.8897ZM104.682 69.5997L106.613 69.2662L106.418 68.2855L104.487 68.6189L104.682 69.5997ZM106.023 68.8609L106.591 71.715L107.576 71.5448L107.008 68.6908L106.023 68.8609ZM107.511 71.9019L109.613 68.5867L108.759 68.0428L106.656 71.358L107.511 71.9019ZM109.284 68.8051L111.432 68.4342L111.237 67.4534L109.089 67.8243L109.284 68.8051ZM110.906 67.6738L108.693 71.2009L109.549 71.7408L111.763 68.2138L110.906 67.6738ZM108.791 71.8378L112.518 75.1507L113.179 74.4168L109.451 71.1039L108.791 71.8378ZM112.751 74.2934L110.484 74.6847L110.679 75.6655L112.946 75.2741L112.751 74.2934ZM110.908 74.8049L108.442 72.654L107.788 73.3944L110.255 75.5453L110.908 74.8049ZM118.6 72.2385L119.092 72.1534L118.995 71.663L118.502 71.7481L118.6 72.2385ZM118.898 73.7391L118.996 74.2295L119.488 74.1444L119.391 73.654L118.898 73.7391ZM113.36 74.6953L112.867 74.7804L112.965 75.2708L113.458 75.1857L113.36 74.6953ZM111.994 67.8299L111.897 67.3395L111.404 67.4246L111.502 67.915L111.994 67.8299ZM117.404 66.8957L117.897 66.8107L117.799 66.3203L117.307 66.4054L117.404 66.8957ZM117.703 68.3963L117.8 68.8867L118.293 68.8017L118.195 68.3113L117.703 68.3963ZM114.224 68.997L114.127 68.5066L113.634 68.5917L113.731 69.0821L114.224 68.997ZM114.454 70.1543L113.962 70.2394L114.059 70.7298L114.552 70.6447L114.454 70.1543ZM117.519 69.6251L118.012 69.54L117.914 69.0497L117.421 69.1347L117.519 69.6251ZM117.808 71.0767L117.905 71.5671L118.398 71.482L118.301 70.9916L117.808 71.0767ZM114.743 71.6059L114.646 71.1155L114.153 71.2005L114.25 71.6909L114.743 71.6059ZM114.993 72.8613L114.5 72.9463L114.598 73.4367L115.09 73.3516L114.993 72.8613ZM118.107 72.3236L118.405 73.8242L119.391 73.654L119.092 72.1534L118.107 72.3236ZM118.801 73.2487L113.262 74.205L113.458 75.1857L118.996 74.2295L118.801 73.2487ZM113.853 74.6103L112.487 67.7448L111.502 67.915L112.867 74.7804L113.853 74.6103ZM112.092 68.3203L117.502 67.3861L117.307 66.4054L111.897 67.3395L112.092 68.3203ZM116.911 66.9808L117.21 68.4814L118.195 68.3113L117.897 66.8107L116.911 66.9808ZM117.605 67.906L114.127 68.5066L114.322 69.4874L117.8 68.8867L117.605 67.906ZM113.731 69.0821L113.962 70.2394L114.947 70.0692L114.717 68.9119L113.731 69.0821ZM114.552 70.6447L117.617 70.1155L117.421 69.1347L114.357 69.6639L114.552 70.6447ZM117.026 69.7102L117.315 71.1618L118.301 70.9916L118.012 69.54L117.026 69.7102ZM117.71 70.5863L114.646 71.1155L114.841 72.0962L117.905 71.5671L117.71 70.5863ZM114.25 71.6909L114.5 72.9463L115.486 72.7762L115.236 71.5208L114.25 71.6909ZM115.09 73.3516L118.697 72.7289L118.502 71.7481L114.895 72.3709L115.09 73.3516ZM122.633 71.2072L122.985 70.8604L122.796 70.6719L122.536 70.7168L122.633 71.2072ZM121.569 71.391L121.471 70.9006L120.979 70.9857L121.076 71.4761L121.569 71.391ZM121.932 73.2152L122.029 73.7056L122.522 73.6205L122.425 73.1302L121.932 73.2152ZM119.981 73.5521L119.488 73.6372L119.586 74.1276L120.078 74.0425L119.981 73.5521ZM118.615 66.6867L118.517 66.1963L118.025 66.2814L118.122 66.7717L118.615 66.6867ZM123.457 66.1753L123.341 66.6567L123.346 66.6581L123.457 66.1753ZM124.697 66.8742L124.335 67.2113L124.338 67.2141L124.697 66.8742ZM125.243 69.5189L124.774 69.329L124.774 69.3312L125.243 69.5189ZM124.42 70.5539L124.117 70.1497L123.651 70.4874L124.068 70.9015L124.42 70.5539ZM126.337 72.4547L126.434 72.945L127.37 72.7835L126.688 72.107L126.337 72.4547ZM124.248 72.8154L123.896 73.1622L124.085 73.3507L124.345 73.3058L124.248 72.8154ZM120.87 67.8798L120.773 67.3894L120.28 67.4745L120.378 67.9649L120.87 67.8798ZM121.27 69.8904L120.778 69.9755L120.875 70.4659L121.368 70.3808L121.27 69.8904ZM123.21 69.2917L123.602 69.6128L123.607 69.6056L123.21 69.2917ZM122.536 70.7168L121.471 70.9006L121.667 71.8814L122.731 71.6976L122.536 70.7168ZM121.076 71.4761L121.439 73.3003L122.425 73.1302L122.062 71.3059L121.076 71.4761ZM121.834 72.7248L119.883 73.0617L120.078 74.0425L122.029 73.7056L121.834 72.7248ZM120.473 73.4671L119.108 66.6016L118.122 66.7717L119.488 73.6372L120.473 73.4671ZM118.713 67.1771L121.866 66.6326L121.671 65.6518L118.517 66.1963L118.713 67.1771ZM121.866 66.6326C122.435 66.5342 122.924 66.5487 123.341 66.6567L123.573 65.6939C122.987 65.5422 122.349 65.5346 121.671 65.6518L121.866 66.6326ZM123.346 66.6581C123.76 66.7601 124.083 66.9466 124.335 67.2113L125.058 66.5372C124.657 66.1165 124.154 65.8371 123.567 65.6924L123.346 66.6581ZM124.338 67.2141C124.585 67.47 124.759 67.8036 124.846 68.2383L125.831 68.0682C125.712 67.4698 125.458 66.9507 125.055 66.5343L124.338 67.2141ZM124.846 68.2383C124.928 68.6547 124.898 69.0131 124.774 69.329L125.712 69.7089C125.912 69.1976 125.946 68.6456 125.831 68.0682L124.846 68.2383ZM124.774 69.3312C124.654 69.6409 124.442 69.914 124.117 70.1497L124.722 70.958C125.181 70.6255 125.518 70.2087 125.713 69.7067L124.774 69.3312ZM124.068 70.9015L125.986 72.8023L126.688 72.107L124.771 70.2062L124.068 70.9015ZM126.239 71.9643L124.15 72.325L124.345 73.3058L126.434 72.945L126.239 71.9643ZM124.6 72.4686L122.985 70.8604L122.281 71.554L123.896 73.1622L124.6 72.4686ZM123.86 68.4085C123.774 67.9761 123.553 67.6056 123.164 67.3752L122.664 68.2266C122.752 68.279 122.833 68.3702 122.875 68.5786L123.86 68.4085ZM123.164 67.3752C122.779 67.1475 122.321 67.1222 121.857 67.2022L122.052 68.183C122.39 68.1247 122.571 68.1716 122.664 68.2266L123.164 67.3752ZM121.857 67.2022L120.773 67.3894L120.968 68.3702L122.052 68.183L121.857 67.2022ZM120.378 67.9649L120.778 69.9755L121.763 69.8053L121.363 67.7947L120.378 67.9649ZM121.368 70.3808L122.452 70.1936L122.257 69.2128L121.173 69.4L121.368 70.3808ZM122.452 70.1936C122.912 70.1142 123.328 69.9429 123.602 69.6127L122.819 68.9706C122.753 69.0508 122.598 69.1539 122.257 69.2128L122.452 70.1936ZM123.607 69.6056C123.882 69.2607 123.946 68.8408 123.86 68.4085L122.875 68.5786C122.916 68.7871 122.876 68.8993 122.813 68.9778L123.607 69.6056ZM128.06 72.0861L128.09 71.5902L128.09 71.5902L128.06 72.0861ZM126.669 71.7581L126.18 71.6364L126.088 72.0342L126.467 72.2086L126.669 71.7581ZM127.025 70.2156L127.215 69.7594L126.666 69.5247L126.535 70.0938L127.025 70.2156ZM128.197 70.5205L128.248 70.0267L128.248 70.0267L128.197 70.5205ZM130.037 69.3708L129.916 69.851L129.925 69.8534L129.935 69.8555L130.037 69.3708ZM128.952 69.2438L128.963 68.7466L128.96 68.7464L128.952 69.2438ZM127.581 69.1153L127.498 69.6042L127.506 69.6056L127.581 69.1153ZM126.081 66.3917L126.542 66.5991L126.544 66.595L126.081 66.3917ZM126.946 65.4105L126.662 64.9933L126.66 64.9947L126.946 65.4105ZM129.944 64.7508L129.924 65.2476L129.931 65.248L129.944 64.7508ZM131.194 64.9914L131.687 65.1008L131.773 64.6782L131.36 64.5256L131.194 64.9914ZM130.88 66.537L130.732 67.0089L131.263 67.184L131.372 66.6463L130.88 66.537ZM128.051 66.6603L128.396 67.0301L128.405 67.0211L128.051 66.6603ZM128.27 67.5051L128.161 67.9884L128.161 67.9884L128.27 67.5051ZM129.341 67.6142L129.348 67.1169L129.348 67.1169L129.341 67.6142ZM130.714 67.7525L130.628 68.2409L130.64 68.2429L130.714 67.7525ZM131.732 68.2058L131.427 68.5944L131.437 68.6018L131.732 68.2058ZM132.218 70.445L131.757 70.2376L131.757 70.2376L132.218 70.445ZM131.343 71.4279L131.627 71.8451L131.632 71.8418L131.343 71.4279ZM129.629 71.521C129.112 71.6103 128.599 71.6331 128.09 71.5902L128.029 72.5821C128.626 72.6323 129.225 72.6052 129.824 72.5017L129.629 71.521ZM128.09 71.5902C127.577 71.547 127.176 71.4475 126.872 71.3076L126.467 72.2086C126.911 72.4129 127.436 72.5322 128.029 72.5821L128.09 71.5902ZM127.159 71.8798L127.515 70.3373L126.535 70.0938L126.18 71.6364L127.159 71.8798ZM126.835 70.6718C127.235 70.8428 127.673 70.9553 128.146 71.0143L128.248 70.0267C127.856 69.9779 127.514 69.8871 127.215 69.7594L126.835 70.6718ZM128.146 71.0143C128.623 71.0739 129.087 71.0668 129.534 70.9896L129.338 70.0089C128.997 70.0678 128.634 70.0749 128.248 70.0267L128.146 71.0143ZM129.534 70.9896C129.933 70.9206 130.297 70.8091 130.558 70.6146C130.695 70.5126 130.817 70.3783 130.891 70.2042C130.966 70.0266 130.976 69.8401 130.941 69.6612L129.955 69.8313C129.957 69.8387 129.953 69.8233 129.963 69.8017C129.97 69.7835 129.975 69.7899 129.943 69.8134C129.867 69.8699 129.688 69.9485 129.338 70.0089L129.534 70.9896ZM130.941 69.6612C130.902 69.4672 130.809 69.2862 130.652 69.143C130.5 69.0046 130.318 68.9273 130.14 68.8862L129.935 69.8555C129.991 69.8685 129.995 69.8808 129.981 69.8676C129.973 69.8608 129.966 69.8517 129.96 69.8418C129.955 69.8324 129.955 69.8276 129.955 69.8313L130.941 69.6612ZM130.158 68.8907C129.872 68.8137 129.463 68.7698 128.963 68.7466L128.94 69.7409C129.428 69.7636 129.743 69.8044 129.916 69.851L130.158 68.8907ZM128.96 68.7464C128.432 68.7254 127.999 68.6841 127.655 68.6249L127.506 69.6056C127.908 69.6747 128.389 69.719 128.944 69.7411L128.96 68.7464ZM127.664 68.6264C127.371 68.5712 127.107 68.4518 126.866 68.2637L126.257 69.0407C126.626 69.3287 127.042 69.518 127.498 69.6041L127.664 68.6264ZM126.866 68.2637C126.682 68.1205 126.531 67.8854 126.453 67.4941L125.468 67.6642C125.58 68.2276 125.829 68.7079 126.257 69.0407L126.866 68.2637ZM126.453 67.4941C126.389 67.171 126.42 66.8775 126.542 66.5991L125.619 66.1844C125.414 66.6523 125.365 67.1504 125.468 67.6642L126.453 67.4941ZM126.544 66.595C126.663 66.3179 126.88 66.0591 127.232 65.8263L126.66 64.9947C126.183 65.3108 125.824 65.7061 125.618 66.1885L126.544 66.595ZM127.229 65.8277C127.579 65.5988 128.052 65.4223 128.67 65.3157L128.475 64.3349C127.765 64.4575 127.154 64.6711 126.662 64.9933L127.229 65.8277ZM128.67 65.3157C129.085 65.2441 129.502 65.2214 129.924 65.2476L129.963 64.2541C129.463 64.2231 128.966 64.25 128.475 64.3349L128.67 65.3157ZM129.931 65.248C130.347 65.2679 130.711 65.3398 131.029 65.4572L131.36 64.5256C130.929 64.3664 130.46 64.2779 129.956 64.2537L129.931 65.248ZM130.702 64.882L130.387 66.4276L131.372 66.6463L131.687 65.1008L130.702 64.882ZM131.028 66.065C130.238 65.8046 129.48 65.7236 128.765 65.847L128.96 66.8278C129.481 66.738 130.068 66.79 130.732 67.0089L131.028 66.065ZM128.765 65.847C128.349 65.9189 127.957 66.0477 127.696 66.2995L128.405 67.0211C128.452 66.9763 128.601 66.8898 128.96 66.8278L128.765 65.847ZM127.705 66.2906C127.445 66.5281 127.304 66.8551 127.38 67.2327L128.365 67.0625C128.364 67.0565 128.364 67.0556 128.364 67.0586C128.364 67.0618 128.363 67.0653 128.362 67.0678C128.36 67.0735 128.363 67.0597 128.396 67.03L127.705 66.2906ZM127.38 67.2327C127.418 67.4246 127.512 67.6008 127.666 67.7391C127.814 67.8719 127.99 67.947 128.161 67.9884L128.378 67.0217C128.321 67.008 128.317 66.9958 128.332 67.0094C128.34 67.0166 128.349 67.0271 128.356 67.0398C128.363 67.0522 128.365 67.061 128.365 67.0625L127.38 67.2327ZM128.161 67.9884C128.443 68.0565 128.843 68.0939 129.335 68.1116L129.348 67.1169C128.867 67.0995 128.553 67.0642 128.378 67.0217L128.161 67.9884ZM129.334 68.1116C129.866 68.1314 130.296 68.1758 130.628 68.2408L130.8 67.2643C130.397 67.1857 129.911 67.1379 129.348 67.1169L129.334 68.1116ZM130.64 68.2429C130.927 68.2923 131.188 68.4076 131.427 68.5943L132.036 67.8173C131.665 67.5279 131.247 67.341 130.789 67.2622L130.64 68.2429ZM131.437 68.6018C131.619 68.7369 131.77 68.9637 131.848 69.3524L132.833 69.1822C132.721 68.6163 132.466 68.1354 132.026 67.8097L131.437 68.6018ZM131.848 69.3524C131.91 69.6672 131.879 69.9576 131.757 70.2376L132.679 70.6523C132.884 70.1859 132.934 69.6913 132.833 69.1822L131.848 69.3524ZM131.757 70.2376C131.638 70.5091 131.416 70.7709 131.055 71.0139L131.632 71.8418C132.11 71.5206 132.471 71.1272 132.679 70.6523L131.757 70.2376ZM131.06 71.0106C130.709 71.2399 130.239 71.4156 129.629 71.521L129.824 72.5017C130.528 72.3802 131.135 72.167 131.627 71.8451L131.06 71.0106Z" fill="black"/>
</svg>
