<svg width="148" height="19" viewBox="0 0 148 19" fill="none" xmlns="http://www.w3.org/2000/svg">
<path d="M0.992 1.2H4.88V14.832H13.304V18H0.992V1.2ZM23.3311 18.288C21.5871 18.288 20.0111 17.912 18.6031 17.16C17.2111 16.408 16.1151 15.376 15.3151 14.064C14.5311 12.736 14.1391 11.248 14.1391 9.6C14.1391 7.952 14.5311 6.472 15.3151 5.16C16.1151 3.832 17.2111 2.792 18.6031 2.04C20.0111 1.288 21.5871 0.912 23.3311 0.912C25.0751 0.912 26.6431 1.288 28.0351 2.04C29.4271 2.792 30.5231 3.832 31.3231 5.16C32.1231 6.472 32.5231 7.952 32.5231 9.6C32.5231 11.248 32.1231 12.736 31.3231 14.064C30.5231 15.376 29.4271 16.408 28.0351 17.16C26.6431 17.912 25.0751 18.288 23.3311 18.288ZM23.3311 14.976C24.3231 14.976 25.2191 14.752 26.0191 14.304C26.8191 13.84 27.4431 13.2 27.8911 12.384C28.3551 11.568 28.5871 10.64 28.5871 9.6C28.5871 8.56 28.3551 7.632 27.8911 6.816C27.4431 6 26.8191 5.368 26.0191 4.92C25.2191 4.456 24.3231 4.224 23.3311 4.224C22.3391 4.224 21.4431 4.456 20.6431 4.92C19.8431 5.368 19.2111 6 18.7471 6.816C18.2991 7.632 18.0751 8.56 18.0751 9.6C18.0751 10.64 18.2991 11.568 18.7471 12.384C19.2111 13.2 19.8431 13.84 20.6431 14.304C21.4431 14.752 22.3391 14.976 23.3311 14.976ZM60.2746 1.2L54.7786 18H50.6026L46.9066 6.624L43.0906 18H38.9386L33.4186 1.2H37.4506L41.2426 13.008L45.2026 1.2H48.8026L52.6426 13.104L56.5546 1.2H60.2746ZM75.1136 18.288C73.7856 18.288 72.4976 18.112 71.2496 17.76C70.0176 17.392 69.0256 16.92 68.2736 16.344L69.5936 13.416C70.3136 13.944 71.1696 14.368 72.1616 14.688C73.1536 15.008 74.1456 15.168 75.1376 15.168C76.2416 15.168 77.0576 15.008 77.5856 14.688C78.1136 14.352 78.3776 13.912 78.3776 13.368C78.3776 12.968 78.2176 12.64 77.8976 12.384C77.5936 12.112 77.1936 11.896 76.6976 11.736C76.2176 11.576 75.5616 11.4 74.7296 11.208C73.4496 10.904 72.4016 10.6 71.5856 10.296C70.7696 9.992 70.0656 9.504 69.4736 8.832C68.8976 8.16 68.6096 7.264 68.6096 6.144C68.6096 5.168 68.8736 4.288 69.4016 3.504C69.9296 2.704 70.7216 2.072 71.7776 1.608C72.8496 1.144 74.1536 0.912 75.6896 0.912C76.7616 0.912 77.8096 1.04 78.8336 1.296C79.8576 1.552 80.7536 1.92 81.5216 2.4L80.3216 5.352C78.7696 4.472 77.2176 4.032 75.6656 4.032C74.5776 4.032 73.7696 4.208 73.2416 4.56C72.7296 4.912 72.4736 5.376 72.4736 5.952C72.4736 6.528 72.7696 6.96 73.3616 7.248C73.9696 7.52 74.8896 7.792 76.1216 8.064C77.4016 8.368 78.4496 8.672 79.2656 8.976C80.0816 9.28 80.7776 9.76 81.3536 10.416C81.9456 11.072 82.2416 11.96 82.2416 13.08C82.2416 14.04 81.9696 14.92 81.4256 15.72C80.8976 16.504 80.0976 17.128 79.0256 17.592C77.9536 18.056 76.6496 18.288 75.1136 18.288ZM88.1439 4.368H82.7679V1.2H97.4079V4.368H92.0319V18H88.1439V4.368ZM109.72 14.4H101.92L100.432 18H96.4481L103.936 1.2H107.776L115.288 18H111.208L109.72 14.4ZM108.496 11.448L105.832 5.016L103.168 11.448H108.496ZM127.735 18L124.495 13.32H124.303H120.919V18H117.031V1.2H124.303C125.791 1.2 127.079 1.448 128.167 1.944C129.271 2.44 130.119 3.144 130.711 4.056C131.303 4.968 131.599 6.048 131.599 7.296C131.599 8.544 131.295 9.624 130.687 10.536C130.095 11.432 129.247 12.12 128.143 12.6L131.911 18H127.735ZM127.663 7.296C127.663 6.352 127.359 5.632 126.751 5.136C126.143 4.624 125.255 4.368 124.087 4.368H120.919V10.224H124.087C125.255 10.224 126.143 9.968 126.751 9.456C127.359 8.944 127.663 8.224 127.663 7.296ZM137.925 4.368H132.549V1.2H147.189V4.368H141.813V18H137.925V4.368Z" fill="black"/>
</svg>
