<svg width="13" height="15" viewBox="0 0 13 15" fill="none" xmlns="http://www.w3.org/2000/svg">
<path d="M11.9877 7.47177C11.9539 7.39422 11.9016 7.32469 11.8348 7.26852C11.7679 7.2129 11.6882 7.17117 11.6017 7.14817C10.8465 6.98343 10.0802 6.85559 9.31657 6.7224C8.86903 6.65875 8.45513 6.46406 8.13488 6.16774C7.8147 5.87088 7.60485 5.48736 7.5359 5.07283C7.42319 4.47751 7.333 3.8747 7.22874 3.27724C7.11887 2.63484 7.00616 1.99512 6.86248 1.35861C6.84812 1.25324 6.80112 1.15483 6.72725 1.07406C6.27641 0.685201 5.97776 1.94592 5.94957 2.11815C5.82841 2.90122 5.70163 3.6998 5.56356 4.48821C5.37762 5.55583 4.96904 6.48225 3.70677 6.7069C2.92909 6.8449 2.15146 6.96791 1.38223 7.14549C1.29702 7.17063 1.21922 7.21343 1.15478 7.27119C1.0903 7.32842 1.04086 7.39903 1.01029 7.47659C0.95113 7.69589 1.15681 7.76917 1.37662 7.80822C2.22191 7.95692 3.06715 8.13182 3.91245 8.26768C4.30384 8.3324 4.65534 8.52977 4.89859 8.82128C5.38608 9.36151 5.49311 10.0141 5.59737 10.6741C5.74673 11.6374 5.90731 12.5981 6.06789 13.5614C6.10454 13.7855 6.16654 13.9973 6.55538 14C6.83712 14 6.87655 13.7384 6.91603 13.5036C7.11887 12.3034 7.31048 11.1052 7.52178 9.90709C7.58123 9.49791 7.77997 9.11707 8.08909 8.82021C8.39816 8.52282 8.80153 8.32491 9.24051 8.25484C10.0276 8.10133 10.8146 7.95691 11.6017 7.82159C11.8327 7.77933 12.0553 7.71193 11.9877 7.47177Z" fill="white" stroke="#575757" stroke-width="1.5" stroke-miterlimit="10"/>
</svg>
